<svg width="267" height="80" viewBox="0 0 267 80" fill="none" xmlns="http://www.w3.org/2000/svg">
<rect y="0.799805" width="266.4" height="79.2" rx="39.6" fill="#315630"/>
<mask id="path-2-outside-1_277_111" maskUnits="userSpaceOnUse" x="90.4" y="25" width="84" height="26" fill="black">
<rect fill="white" x="90.4" y="25" width="84" height="26"/>
<path d="M100.8 33.56C100.16 32.8 99.12 32.32 97.76 32.16C96.64 32.08 95.76 32.2 95.08 32.6C94.4 33.04 94 33.64 93.96 34.44C93.88 35.64 94.68 36.6 96.52 37.24L99.8 38.48C102.84 39.56 104.28 41.48 104 44.36C103.68 47.88 101.32 49.52 96.88 49.08C94.8 48.96 93.24 48.24 92.12 46.96C91.64 46.44 91.56 45.88 92.04 45.4C92.56 44.92 93.04 44.84 93.52 45.32C94.48 46.36 95.68 46.92 97.08 47C100.04 47.24 101.6 46.32 101.8 44.12C101.88 42.32 100.96 41.04 98.92 40.28L95.68 39.08C92.84 38.08 91.52 36.48 91.76 34.2C91.88 32.88 92.48 31.8 93.64 31C94.76 30.24 96.2 29.88 97.88 30.08C100.08 30.28 101.6 31.04 102.48 32.4C103 33.2 103 33.8 102.4 34.2C101.92 34.56 101.4 34.28 100.8 33.56ZM112.238 31.8C112.118 30.88 112.558 30.36 113.358 30.36C114.038 30.36 114.398 30.88 114.478 31.76L114.558 37.28L119.438 36.92C120.158 36.84 120.518 37.2 120.518 37.96C120.518 38.6 120.158 38.96 119.478 39L114.678 39.36L114.838 47.36C114.838 48.32 114.478 48.76 113.718 48.76C112.958 48.76 112.598 48.32 112.598 47.4L112.398 39.56L107.558 39.92C106.838 40 106.518 39.64 106.518 38.88C106.518 38.24 106.838 37.88 107.518 37.84L112.318 37.44L112.238 31.8ZM124.351 44C124.351 45.8 124.951 46.68 126.111 46.68C127.471 46.68 128.671 46.04 129.711 44.68C130.671 43.32 131.191 41.76 131.191 39.96C131.191 39.28 130.991 38.64 130.631 38.12C130.191 37.6 129.591 37.32 128.791 37.32C127.791 37.32 126.791 38 125.791 39.36C124.791 40.76 124.351 42.28 124.351 44ZM122.151 44C122.151 41.76 122.831 39.8 124.271 37.96C125.631 36.16 127.151 35.2 128.791 35.2C130.231 35.2 131.351 35.68 132.191 36.56C132.991 37.44 133.471 38.56 133.471 39.92C133.471 43.04 133.951 45.32 135.071 46.72C135.591 47.44 135.671 48 135.151 48.36C134.551 48.76 133.911 48.6 133.431 47.92C132.831 47.16 132.351 46.12 132.031 44.92C131.791 45.36 131.431 45.88 131.071 46.36C129.711 48 128.071 48.8 126.111 48.8C124.911 48.8 123.911 48.44 123.231 47.64C122.511 46.84 122.151 45.6 122.151 44ZM147.189 39C146.629 38.44 145.949 38.16 145.149 38.16C143.829 38.16 142.629 38.88 141.709 40.32C140.709 41.76 140.269 43.44 140.269 45.4V45.64L140.349 47.04C140.349 48 139.949 48.44 139.229 48.44C138.469 48.44 138.069 48 138.069 47.08L137.589 36.76C137.509 36.04 137.869 35.64 138.629 35.64C139.389 35.64 139.789 36.28 139.869 37.4L139.949 39.8C140.149 39.44 140.429 38.96 140.749 38.52C141.869 36.92 143.349 36.04 145.149 36.04C146.549 36.04 147.749 36.56 148.709 37.52C149.269 38.12 149.389 38.68 148.869 39.12C148.309 39.68 147.749 39.6 147.189 39ZM156.34 31.8C156.22 30.88 156.66 30.36 157.46 30.36C158.14 30.36 158.5 30.88 158.58 31.76L158.66 37.28L163.54 36.92C164.26 36.84 164.62 37.2 164.62 37.96C164.62 38.6 164.26 38.96 163.58 39L158.78 39.36L158.94 47.36C158.94 48.32 158.58 48.76 157.82 48.76C157.06 48.76 156.7 48.32 156.7 47.4L156.5 39.56L151.66 39.92C150.94 40 150.62 39.64 150.62 38.88C150.62 38.24 150.94 37.88 151.62 37.84L156.42 37.44L156.34 31.8ZM173.873 47.92C173.873 48.32 173.553 48.8 173.033 49.32C172.473 49.88 171.833 50.12 171.073 50.12C169.673 50.12 168.993 49.72 168.993 48.88C168.993 48.36 169.433 47.88 170.233 47.36C171.033 46.92 171.913 46.64 172.793 46.64C173.513 46.64 173.873 47.08 173.873 47.92ZM169.673 27.44C169.673 26.52 170.073 26 170.793 26C171.513 26 171.953 26.96 171.953 28.76V40.76C171.953 41.4 171.993 41.88 172.233 42.16C172.673 42.76 172.673 43.28 172.193 43.6C171.593 44.08 170.993 43.96 170.433 43.32C169.913 42.76 169.673 41.96 169.673 40.8V27.44Z"/>
</mask>
<path d="M100.8 33.56C100.16 32.8 99.12 32.32 97.76 32.16C96.64 32.08 95.76 32.2 95.08 32.6C94.4 33.04 94 33.64 93.96 34.44C93.88 35.64 94.68 36.6 96.52 37.24L99.8 38.48C102.84 39.56 104.28 41.48 104 44.36C103.68 47.88 101.32 49.52 96.88 49.08C94.8 48.96 93.24 48.24 92.12 46.96C91.64 46.44 91.56 45.88 92.04 45.4C92.56 44.92 93.04 44.84 93.52 45.32C94.48 46.36 95.68 46.92 97.08 47C100.04 47.24 101.6 46.32 101.8 44.12C101.88 42.32 100.96 41.04 98.92 40.28L95.68 39.08C92.84 38.08 91.52 36.48 91.76 34.2C91.88 32.88 92.48 31.8 93.64 31C94.76 30.24 96.2 29.88 97.88 30.08C100.08 30.28 101.6 31.04 102.48 32.4C103 33.2 103 33.8 102.4 34.2C101.92 34.56 101.4 34.28 100.8 33.56ZM112.238 31.8C112.118 30.88 112.558 30.36 113.358 30.36C114.038 30.36 114.398 30.88 114.478 31.76L114.558 37.28L119.438 36.92C120.158 36.84 120.518 37.2 120.518 37.96C120.518 38.6 120.158 38.96 119.478 39L114.678 39.36L114.838 47.36C114.838 48.32 114.478 48.76 113.718 48.76C112.958 48.76 112.598 48.32 112.598 47.4L112.398 39.56L107.558 39.92C106.838 40 106.518 39.64 106.518 38.88C106.518 38.24 106.838 37.88 107.518 37.84L112.318 37.44L112.238 31.8ZM124.351 44C124.351 45.8 124.951 46.68 126.111 46.68C127.471 46.68 128.671 46.04 129.711 44.68C130.671 43.32 131.191 41.76 131.191 39.96C131.191 39.28 130.991 38.64 130.631 38.12C130.191 37.6 129.591 37.32 128.791 37.32C127.791 37.32 126.791 38 125.791 39.36C124.791 40.76 124.351 42.28 124.351 44ZM122.151 44C122.151 41.76 122.831 39.8 124.271 37.96C125.631 36.16 127.151 35.2 128.791 35.2C130.231 35.2 131.351 35.68 132.191 36.56C132.991 37.44 133.471 38.56 133.471 39.92C133.471 43.04 133.951 45.32 135.071 46.72C135.591 47.44 135.671 48 135.151 48.36C134.551 48.76 133.911 48.6 133.431 47.92C132.831 47.16 132.351 46.12 132.031 44.92C131.791 45.36 131.431 45.88 131.071 46.36C129.711 48 128.071 48.8 126.111 48.8C124.911 48.8 123.911 48.44 123.231 47.64C122.511 46.84 122.151 45.6 122.151 44ZM147.189 39C146.629 38.44 145.949 38.16 145.149 38.16C143.829 38.16 142.629 38.88 141.709 40.32C140.709 41.76 140.269 43.44 140.269 45.4V45.64L140.349 47.04C140.349 48 139.949 48.44 139.229 48.44C138.469 48.44 138.069 48 138.069 47.08L137.589 36.76C137.509 36.04 137.869 35.64 138.629 35.64C139.389 35.64 139.789 36.28 139.869 37.4L139.949 39.8C140.149 39.44 140.429 38.96 140.749 38.52C141.869 36.92 143.349 36.04 145.149 36.04C146.549 36.04 147.749 36.56 148.709 37.52C149.269 38.12 149.389 38.68 148.869 39.12C148.309 39.68 147.749 39.6 147.189 39ZM156.34 31.8C156.22 30.88 156.66 30.36 157.46 30.36C158.14 30.36 158.5 30.88 158.58 31.76L158.66 37.28L163.54 36.92C164.26 36.84 164.62 37.2 164.62 37.96C164.62 38.6 164.26 38.96 163.58 39L158.78 39.36L158.94 47.36C158.94 48.32 158.58 48.76 157.82 48.76C157.06 48.76 156.7 48.32 156.7 47.4L156.5 39.56L151.66 39.92C150.94 40 150.62 39.64 150.62 38.88C150.62 38.24 150.94 37.88 151.62 37.84L156.42 37.44L156.34 31.8ZM173.873 47.92C173.873 48.32 173.553 48.8 173.033 49.32C172.473 49.88 171.833 50.12 171.073 50.12C169.673 50.12 168.993 49.72 168.993 48.88C168.993 48.36 169.433 47.88 170.233 47.36C171.033 46.92 171.913 46.64 172.793 46.64C173.513 46.64 173.873 47.08 173.873 47.92ZM169.673 27.44C169.673 26.52 170.073 26 170.793 26C171.513 26 171.953 26.96 171.953 28.76V40.76C171.953 41.4 171.993 41.88 172.233 42.16C172.673 42.76 172.673 43.28 172.193 43.6C171.593 44.08 170.993 43.96 170.433 43.32C169.913 42.76 169.673 41.96 169.673 40.8V27.44Z" fill="white"/>
<path d="M100.8 33.56L101.107 33.3039L101.106 33.3023L100.8 33.56ZM97.76 32.16L97.8067 31.7627L97.7976 31.7617L97.7885 31.761L97.76 32.16ZM95.08 32.6L94.8772 32.2552L94.8698 32.2595L94.8627 32.2642L95.08 32.6ZM93.96 34.44L94.3592 34.4666L94.3595 34.46L93.96 34.44ZM96.52 37.24L96.6615 36.8657L96.6514 36.8622L96.52 37.24ZM99.8 38.48L99.6585 38.8542L99.6661 38.8569L99.8 38.48ZM104 44.36L103.602 44.3213L103.602 44.3238L104 44.36ZM96.88 49.08L96.9194 48.6819L96.9112 48.6811L96.903 48.6807L96.88 49.08ZM92.12 46.96L92.4211 46.6965L92.4139 46.6887L92.12 46.96ZM92.04 45.4L91.7687 45.1061L91.7628 45.1115L91.7572 45.1172L92.04 45.4ZM93.52 45.32L93.8139 45.0487L93.8085 45.0428L93.8028 45.0372L93.52 45.32ZM97.08 47L97.1123 46.6012L97.1028 46.6007L97.08 47ZM101.8 44.12L102.198 44.1562L102.199 44.147L102.2 44.1378L101.8 44.12ZM98.92 40.28L99.0596 39.9052L99.0589 39.9049L98.92 40.28ZM95.68 39.08L95.8189 38.7049L95.8128 38.7027L95.68 39.08ZM91.76 34.2L92.1578 34.2419L92.1584 34.2362L91.76 34.2ZM93.64 31L93.4154 30.669L93.4129 30.6707L93.64 31ZM97.88 30.08L97.8327 30.4773L97.8438 30.4784L97.88 30.08ZM102.48 32.4L102.144 32.6173L102.145 32.618L102.48 32.4ZM102.4 34.2L102.178 33.8672L102.169 33.8733L102.16 33.88L102.4 34.2ZM101.106 33.3023C100.379 32.4394 99.2295 31.9301 97.8067 31.7627L97.7133 32.5573C99.0104 32.7099 99.9407 33.1606 100.494 33.8177L101.106 33.3023ZM97.7885 31.761C96.6339 31.6785 95.6584 31.7957 94.8772 32.2552L95.2828 32.9448C95.8615 32.6043 96.6461 32.4815 97.7315 32.559L97.7885 31.761ZM94.8627 32.2642C94.0923 32.7626 93.6079 33.472 93.5605 34.42L94.3595 34.46C94.3921 33.808 94.7077 33.3174 95.2973 32.9358L94.8627 32.2642ZM93.5609 34.4134C93.5137 35.1208 93.7301 35.7664 94.2217 36.3165C94.7034 36.8555 95.4325 37.2853 96.3886 37.6178L96.6514 36.8622C95.7674 36.5547 95.1766 36.1845 94.8183 35.7835C94.4699 35.3936 94.3263 34.9592 94.3591 34.4666L93.5609 34.4134ZM96.3785 37.6142L99.6585 38.8542L99.9414 38.1058L96.6614 36.8658L96.3785 37.6142ZM99.6661 38.8569C101.138 39.3797 102.178 40.0905 102.821 40.9794C103.459 41.8616 103.734 42.9599 103.602 44.3213L104.398 44.3987C104.546 42.8801 104.241 41.5784 103.469 40.5106C102.702 39.4495 101.502 38.6603 99.9339 38.1031L99.6661 38.8569ZM103.602 44.3238C103.45 45.9969 102.822 47.1616 101.762 47.8728C100.686 48.5949 99.0937 48.8974 96.9194 48.6819L96.8405 49.478C99.1062 49.7026 100.914 49.4051 102.208 48.5372C103.518 47.6584 104.23 46.2431 104.398 44.3962L103.602 44.3238ZM96.903 48.6807C94.9107 48.5657 93.4585 47.8822 92.421 46.6966L91.819 47.2234C93.0215 48.5978 94.6893 49.3543 96.857 49.4793L96.903 48.6807ZM92.4139 46.6887C92.2106 46.4685 92.1298 46.2796 92.1189 46.1349C92.1091 46.0052 92.1507 45.855 92.3228 45.6828L91.7572 45.1172C91.4493 45.425 91.2909 45.7948 91.3211 46.1951C91.3502 46.5804 91.5494 46.9315 91.8261 47.2313L92.4139 46.6887ZM92.3113 45.6939C92.5424 45.4806 92.7111 45.4082 92.8275 45.3987C92.9234 45.3908 93.0543 45.42 93.2372 45.6028L93.8028 45.0372C93.5057 44.74 93.1566 44.5692 92.7624 44.6013C92.3888 44.6318 92.0576 44.8394 91.7687 45.1061L92.3113 45.6939ZM93.2261 45.5913C94.257 46.7081 95.5544 47.3135 97.0572 47.3993L97.1028 46.6007C95.8056 46.5265 94.703 46.0119 93.8139 45.0487L93.2261 45.5913ZM97.0477 47.3987C98.5618 47.5215 99.7919 47.3559 100.682 46.8172C101.598 46.2629 102.089 45.3543 102.198 44.1562L101.402 44.0838C101.311 45.0857 100.922 45.7371 100.268 46.1328C99.5881 46.5441 98.5582 46.7185 97.1123 46.6013L97.0477 47.3987ZM102.2 44.1378C102.243 43.1613 102.015 42.2969 101.476 41.5716C100.942 40.8516 100.128 40.3031 99.0596 39.9052L98.7804 40.6548C99.7522 41.0169 100.418 41.4884 100.834 42.0484C101.245 42.6031 101.437 43.2787 101.4 44.1022L102.2 44.1378ZM99.0589 39.9049L95.8189 38.7049L95.5411 39.4551L98.7811 40.6551L99.0589 39.9049ZM95.8128 38.7027C94.4319 38.2165 93.4675 37.5999 92.876 36.8685C92.2941 36.1488 92.0478 35.287 92.1578 34.2419L91.3622 34.1581C91.2322 35.393 91.5259 36.4712 92.254 37.3715C92.9725 38.2601 94.088 38.9435 95.5471 39.4573L95.8128 38.7027ZM92.1584 34.2362C92.2678 33.0323 92.8066 32.0606 93.8671 31.3293L93.4129 30.6707C92.1534 31.5394 91.4922 32.7277 91.3616 34.1638L92.1584 34.2362ZM93.8646 31.331C94.897 30.6304 96.2384 30.2874 97.8327 30.4772L97.9273 29.6828C96.1616 29.4726 94.623 29.8496 93.4154 30.669L93.8646 31.331ZM97.8438 30.4784C99.9707 30.6717 101.354 31.3959 102.144 32.6173L102.816 32.1827C101.846 30.6841 100.189 29.8883 97.9162 29.6816L97.8438 30.4784ZM102.145 32.618C102.387 32.9903 102.466 33.2566 102.46 33.4367C102.455 33.5849 102.391 33.725 102.178 33.8672L102.622 34.5328C103.009 34.275 103.245 33.9151 103.26 33.4633C103.274 33.0434 103.093 32.6097 102.815 32.182L102.145 32.618ZM102.16 33.88C102.089 33.933 102.034 33.9507 101.99 33.9553C101.946 33.96 101.886 33.9536 101.804 33.9181C101.627 33.8412 101.396 33.6504 101.107 33.3039L100.493 33.8161C100.804 34.1896 101.133 34.4988 101.486 34.6519C101.669 34.7314 101.867 34.7725 102.073 34.751C102.281 34.7293 102.471 34.647 102.64 34.52L102.16 33.88ZM112.238 31.8L112.638 31.7943L112.638 31.7712L112.635 31.7483L112.238 31.8ZM114.478 31.76L114.878 31.7542L114.878 31.739L114.876 31.7238L114.478 31.76ZM114.558 37.28L114.158 37.2858L114.164 37.7101L114.588 37.6789L114.558 37.28ZM119.438 36.92L119.468 37.3189L119.475 37.3184L119.482 37.3176L119.438 36.92ZM119.478 39L119.455 38.6006L119.448 38.6011L119.478 39ZM114.678 39.36L114.648 38.9611L114.271 38.9894L114.278 39.368L114.678 39.36ZM114.838 47.36H115.238L115.238 47.352L114.838 47.36ZM112.598 47.4H112.998L112.998 47.3898L112.598 47.4ZM112.398 39.56L112.798 39.5498L112.787 39.1299L112.368 39.1611L112.398 39.56ZM107.558 39.92L107.528 39.5211L107.521 39.5216L107.514 39.5224L107.558 39.92ZM107.518 37.84L107.542 38.2394L107.551 38.2386L107.518 37.84ZM112.318 37.44L112.351 37.8386L112.723 37.8076L112.718 37.4343L112.318 37.44ZM112.635 31.7483C112.583 31.3541 112.661 31.1163 112.766 30.9841C112.866 30.8586 113.045 30.76 113.358 30.76V29.96C112.871 29.96 112.43 30.1214 112.14 30.4859C111.855 30.8437 111.773 31.3259 111.841 31.8517L112.635 31.7483ZM113.358 30.76C113.581 30.76 113.721 30.8375 113.826 30.9742C113.946 31.1298 114.043 31.3941 114.08 31.7962L114.876 31.7238C114.833 31.2459 114.71 30.8102 114.46 30.4858C114.195 30.1425 113.816 29.96 113.358 29.96V30.76ZM114.078 31.7658L114.158 37.2858L114.958 37.2742L114.878 31.7542L114.078 31.7658ZM114.588 37.6789L119.468 37.3189L119.409 36.5211L114.529 36.8811L114.588 37.6789ZM119.482 37.3176C119.775 37.285 119.906 37.3505 119.969 37.4118C120.039 37.4799 120.118 37.6322 120.118 37.96H120.918C120.918 37.5278 120.817 37.1201 120.527 36.8382C120.23 36.5495 119.821 36.475 119.394 36.5224L119.482 37.3176ZM120.118 37.96C120.118 38.2045 120.051 38.3413 119.97 38.4222C119.886 38.5065 119.732 38.5844 119.455 38.6007L119.502 39.3993C119.904 39.3756 120.27 39.2535 120.536 38.9878C120.805 38.7187 120.918 38.3555 120.918 37.96H120.118ZM119.448 38.6011L114.648 38.9611L114.708 39.7589L119.508 39.3989L119.448 38.6011ZM114.278 39.368L114.438 47.368L115.238 47.352L115.078 39.352L114.278 39.368ZM114.438 47.36C114.438 47.8029 114.353 48.0434 114.251 48.1693C114.165 48.2765 114.019 48.36 113.718 48.36V49.16C114.177 49.16 114.591 49.0235 114.875 48.6707C115.144 48.3366 115.238 47.8771 115.238 47.36H114.438ZM113.718 48.36C113.417 48.36 113.269 48.2761 113.182 48.171C113.082 48.0495 112.998 47.8196 112.998 47.4H112.198C112.198 47.9004 112.294 48.3505 112.564 48.679C112.848 49.0239 113.259 49.16 113.718 49.16V48.36ZM112.998 47.3898L112.798 39.5498L111.998 39.5702L112.198 47.4102L112.998 47.3898ZM112.368 39.1611L107.528 39.5211L107.588 40.3189L112.428 39.9589L112.368 39.1611ZM107.514 39.5224C107.22 39.5551 107.106 39.4884 107.055 39.4363C106.992 39.3714 106.918 39.2188 106.918 38.88H106.118C106.118 39.3012 106.204 39.7086 106.481 39.9937C106.771 40.2916 107.176 40.3649 107.602 40.3176L107.514 39.5224ZM106.918 38.88C106.918 38.6235 106.982 38.4862 107.054 38.4094C107.127 38.3326 107.265 38.2556 107.542 38.2393L107.495 37.4407C107.091 37.4644 106.73 37.5874 106.472 37.8606C106.215 38.1338 106.118 38.4965 106.118 38.88H106.918ZM107.551 38.2386L112.351 37.8386L112.285 37.0414L107.485 37.4414L107.551 38.2386ZM112.718 37.4343L112.638 31.7943L111.838 31.8057L111.918 37.4457L112.718 37.4343ZM129.711 44.68L130.028 44.923L130.033 44.9169L130.037 44.9107L129.711 44.68ZM130.631 38.12L130.959 37.8923L130.948 37.8764L130.936 37.8616L130.631 38.12ZM125.791 39.36L125.468 39.123L125.465 39.1275L125.791 39.36ZM124.271 37.96L124.586 38.2066L124.59 38.2011L124.271 37.96ZM132.191 36.56L132.487 36.2909L132.48 36.2838L132.191 36.56ZM135.071 46.72L135.395 46.4858L135.389 46.4778L135.383 46.4701L135.071 46.72ZM135.151 48.36L135.373 48.6929L135.378 48.6889L135.151 48.36ZM133.431 47.92L133.757 47.6893L133.751 47.6806L133.745 47.6721L133.431 47.92ZM132.031 44.92L132.417 44.8169L132.159 43.8492L131.679 44.7285L132.031 44.92ZM131.071 46.36L131.379 46.6153L131.385 46.6078L131.391 46.6L131.071 46.36ZM123.231 47.64L123.536 47.3808L123.528 47.3724L123.231 47.64ZM123.951 44C123.951 44.9319 124.104 45.6952 124.462 46.236C124.84 46.8054 125.412 47.08 126.111 47.08V46.28C125.649 46.28 125.342 46.1146 125.129 45.794C124.898 45.4448 124.751 44.8681 124.751 44H123.951ZM126.111 47.08C127.62 47.08 128.929 46.3603 130.028 44.923L129.393 44.437C128.412 45.7197 127.321 46.28 126.111 46.28V47.08ZM130.037 44.9107C131.045 43.4836 131.591 41.8432 131.591 39.96H130.791C130.791 41.6768 130.297 43.1564 129.384 44.4493L130.037 44.9107ZM131.591 39.96C131.591 39.2017 131.368 38.4817 130.959 37.8923L130.302 38.3477C130.614 38.7983 130.791 39.3583 130.791 39.96H131.591ZM130.936 37.8616C130.413 37.2441 129.698 36.92 128.791 36.92V37.72C129.483 37.72 129.968 37.9559 130.325 38.3784L130.936 37.8616ZM128.791 36.92C127.596 36.92 126.492 37.7303 125.468 39.123L126.113 39.597C127.089 38.2697 127.985 37.72 128.791 37.72V36.92ZM125.465 39.1275C124.412 40.6015 123.951 42.2046 123.951 44H124.751C124.751 42.3554 125.169 40.9185 126.116 39.5925L125.465 39.1275ZM122.551 44C122.551 41.852 123.199 39.9782 124.586 38.2065L123.956 37.7135C122.462 39.6218 121.751 41.668 121.751 44H122.551ZM124.59 38.2011C125.909 36.4545 127.325 35.6 128.791 35.6V34.8C126.976 34.8 125.352 35.8655 123.951 37.7189L124.59 38.2011ZM128.791 35.6C130.132 35.6 131.144 36.0425 131.901 36.8362L132.48 36.2838C131.558 35.3175 130.329 34.8 128.791 34.8V35.6ZM131.895 36.8291C132.63 37.6378 133.071 38.6626 133.071 39.92H133.871C133.871 38.4574 133.351 37.2422 132.487 36.2909L131.895 36.8291ZM133.071 39.92C133.071 43.0574 133.548 45.4575 134.758 46.9699L135.383 46.4701C134.353 45.1825 133.871 43.0226 133.871 39.92H133.071ZM134.746 46.9542C134.992 47.2938 135.09 47.5401 135.102 47.704C135.111 47.8261 135.077 47.9248 134.923 48.0311L135.378 48.6889C135.745 48.4352 135.931 48.0739 135.9 47.646C135.871 47.2599 135.67 46.8662 135.395 46.4858L134.746 46.9542ZM134.929 48.0272C134.708 48.1742 134.513 48.2003 134.344 48.1573C134.167 48.1122 133.96 47.9757 133.757 47.6893L133.104 48.1507C133.382 48.5443 133.735 48.8278 134.147 48.9327C134.568 49.0397 134.993 48.9458 135.372 48.6928L134.929 48.0272ZM133.745 47.6721C133.187 46.9664 132.727 45.9805 132.417 44.8169L131.644 45.0231C131.974 46.2595 132.474 47.3536 133.117 48.1679L133.745 47.6721ZM131.679 44.7285C131.453 45.1431 131.107 45.6449 130.751 46.12L131.391 46.6C131.754 46.1151 132.128 45.5769 132.382 45.1115L131.679 44.7285ZM130.763 46.1047C129.472 47.6609 127.942 48.4 126.111 48.4V49.2C128.2 49.2 129.949 48.3391 131.379 46.6153L130.763 46.1047ZM126.111 48.4C124.991 48.4 124.118 48.0665 123.535 47.3809L122.926 47.8991C123.703 48.8135 124.831 49.2 126.111 49.2V48.4ZM123.528 47.3724C122.901 46.6761 122.551 45.5512 122.551 44H121.751C121.751 45.6488 122.12 47.0039 122.933 47.9076L123.528 47.3724ZM147.189 39L147.481 38.7269L147.472 38.7172L147.189 39ZM141.709 40.32L142.037 40.5482L142.042 40.5418L142.046 40.5354L141.709 40.32ZM140.269 45.64H139.869V45.6514L139.869 45.6628L140.269 45.64ZM140.349 47.04H140.749V47.0286L140.748 47.0172L140.349 47.04ZM138.069 47.08H138.469V47.0707L138.468 47.0614L138.069 47.08ZM137.589 36.76L137.988 36.7414L137.988 36.7286L137.986 36.7158L137.589 36.76ZM139.869 37.4L140.269 37.3867L140.268 37.3791L140.268 37.3715L139.869 37.4ZM139.949 39.8L139.549 39.8133L139.597 41.2567L140.298 39.9943L139.949 39.8ZM140.749 38.52L141.072 38.7553L141.076 38.7494L140.749 38.52ZM148.709 37.52L149.001 37.2469L148.992 37.2372L148.709 37.52ZM148.869 39.12L148.61 38.8146L148.598 38.8254L148.586 38.8372L148.869 39.12ZM147.472 38.7172C146.836 38.0813 146.054 37.76 145.149 37.76V38.56C145.844 38.56 146.422 38.7987 146.906 39.2828L147.472 38.7172ZM145.149 37.76C143.661 37.76 142.346 38.5788 141.372 40.1046L142.046 40.5354C142.911 39.1812 143.997 38.56 145.149 38.56V37.76ZM141.38 40.0918C140.324 41.6129 139.869 43.3774 139.869 45.4H140.669C140.669 43.5026 141.094 41.9071 142.037 40.5482L141.38 40.0918ZM139.869 45.4V45.64H140.669V45.4H139.869ZM139.869 45.6628L139.949 47.0628L140.748 47.0172L140.668 45.6172L139.869 45.6628ZM139.949 47.04C139.949 47.4742 139.857 47.7164 139.75 47.8452C139.656 47.9597 139.504 48.04 139.229 48.04V48.84C139.674 48.84 140.082 48.7003 140.367 48.3548C140.641 48.0236 140.749 47.5658 140.749 47.04H139.949ZM139.229 48.04C138.927 48.04 138.763 47.9553 138.666 47.843C138.559 47.7199 138.469 47.491 138.469 47.08H137.669C137.669 47.589 137.778 48.0401 138.061 48.367C138.354 48.7047 138.771 48.84 139.229 48.84V48.04ZM138.468 47.0614L137.988 36.7414L137.189 36.7786L137.669 47.0986L138.468 47.0614ZM137.986 36.7158C137.954 36.4243 138.018 36.2766 138.088 36.201C138.16 36.1232 138.312 36.04 138.629 36.04V35.24C138.186 35.24 137.778 35.3568 137.5 35.659C137.219 35.9634 137.144 36.3757 137.191 36.8042L137.986 36.7158ZM138.629 36.04C138.875 36.04 139.042 36.1331 139.173 36.3257C139.321 36.5416 139.432 36.9 139.47 37.4285L140.268 37.3715C140.225 36.78 140.096 36.2584 139.834 35.8743C139.556 35.4669 139.143 35.24 138.629 35.24V36.04ZM139.469 37.4133L139.549 39.8133L140.349 39.7867L140.269 37.3867L139.469 37.4133ZM140.298 39.9943C140.496 39.6391 140.767 39.1756 141.072 38.7553L140.425 38.2847C140.091 38.7444 139.802 39.2409 139.599 39.6057L140.298 39.9943ZM141.076 38.7494C142.136 37.2363 143.502 36.44 145.149 36.44V35.64C143.196 35.64 141.602 36.6037 140.421 38.2906L141.076 38.7494ZM145.149 36.44C146.44 36.44 147.539 36.9158 148.426 37.8028L148.992 37.2372C147.959 36.2042 146.658 35.64 145.149 35.64V36.44ZM148.416 37.7929C148.673 38.0675 148.778 38.2823 148.797 38.4314C148.812 38.5459 148.784 38.6679 148.61 38.8146L149.127 39.4254C149.474 39.1321 149.646 38.7541 149.59 38.3286C149.54 37.9377 149.305 37.5725 149.001 37.2471L148.416 37.7929ZM148.586 38.8372C148.359 39.0637 148.189 39.1077 148.064 39.0966C147.924 39.084 147.729 38.9926 147.481 38.7271L146.896 39.2729C147.209 39.6074 147.574 39.856 147.993 39.8934C148.428 39.9322 148.818 39.7363 149.152 39.4028L148.586 38.8372ZM156.34 31.8L156.74 31.7943L156.739 31.7712L156.736 31.7483L156.34 31.8ZM158.58 31.76L158.98 31.7542L158.979 31.739L158.978 31.7238L158.58 31.76ZM158.66 37.28L158.26 37.2858L158.266 37.7101L158.689 37.6789L158.66 37.28ZM163.54 36.92L163.569 37.3189L163.576 37.3184L163.584 37.3176L163.54 36.92ZM163.58 39L163.556 38.6006L163.55 38.6011L163.58 39ZM158.78 39.36L158.75 38.9611L158.372 38.9894L158.38 39.368L158.78 39.36ZM158.94 47.36H159.34L159.34 47.352L158.94 47.36ZM156.7 47.4H157.1L157.1 47.3898L156.7 47.4ZM156.5 39.56L156.9 39.5498L156.889 39.1299L156.47 39.1611L156.5 39.56ZM151.66 39.92L151.63 39.5211L151.623 39.5216L151.616 39.5224L151.66 39.92ZM151.62 37.84L151.643 38.2394L151.653 38.2386L151.62 37.84ZM156.42 37.44L156.453 37.8386L156.825 37.8076L156.82 37.4343L156.42 37.44ZM156.736 31.7483C156.685 31.3541 156.762 31.1163 156.868 30.9841C156.968 30.8586 157.147 30.76 157.46 30.76V29.96C156.972 29.96 156.532 30.1214 156.242 30.4859C155.957 30.8437 155.874 31.3259 155.943 31.8517L156.736 31.7483ZM157.46 30.76C157.682 30.76 157.822 30.8375 157.928 30.9742C158.048 31.1298 158.145 31.3941 158.181 31.7962L158.978 31.7238C158.935 31.2459 158.812 30.8102 158.561 30.4858C158.297 30.1425 157.917 29.96 157.46 29.96V30.76ZM158.18 31.7658L158.26 37.2858L159.06 37.2742L158.98 31.7542L158.18 31.7658ZM158.689 37.6789L163.569 37.3189L163.51 36.5211L158.63 36.8811L158.689 37.6789ZM163.584 37.3176C163.877 37.285 164.008 37.3505 164.071 37.4118C164.141 37.4799 164.22 37.6322 164.22 37.96H165.02C165.02 37.5278 164.918 37.1201 164.629 36.8382C164.332 36.5495 163.923 36.475 163.496 36.5224L163.584 37.3176ZM164.22 37.96C164.22 38.2045 164.153 38.3413 164.072 38.4222C163.988 38.5065 163.834 38.5844 163.556 38.6007L163.603 39.3993C164.006 39.3756 164.372 39.2535 164.638 38.9878C164.907 38.7187 165.02 38.3555 165.02 37.96H164.22ZM163.55 38.6011L158.75 38.9611L158.81 39.7589L163.61 39.3989L163.55 38.6011ZM158.38 39.368L158.54 47.368L159.34 47.352L159.18 39.352L158.38 39.368ZM158.54 47.36C158.54 47.8029 158.454 48.0434 158.353 48.1693C158.267 48.2765 158.12 48.36 157.82 48.36V49.16C158.279 49.16 158.693 49.0235 158.976 48.6707C159.245 48.3366 159.34 47.8771 159.34 47.36H158.54ZM157.82 48.36C157.519 48.36 157.37 48.2761 157.284 48.171C157.184 48.0495 157.1 47.8196 157.1 47.4H156.3C156.3 47.9004 156.396 48.3505 156.666 48.679C156.949 49.0239 157.361 49.16 157.82 49.16V48.36ZM157.1 47.3898L156.9 39.5498L156.1 39.5702L156.3 47.4102L157.1 47.3898ZM156.47 39.1611L151.63 39.5211L151.689 40.3189L156.529 39.9589L156.47 39.1611ZM151.616 39.5224C151.321 39.5551 151.207 39.4884 151.157 39.4363C151.094 39.3714 151.02 39.2188 151.02 38.88H150.22C150.22 39.3012 150.306 39.7086 150.583 39.9937C150.872 40.2916 151.278 40.3649 151.704 40.3176L151.616 39.5224ZM151.02 38.88C151.02 38.6235 151.083 38.4862 151.156 38.4094C151.228 38.3326 151.367 38.2556 151.643 38.2393L151.596 37.4407C151.193 37.4644 150.831 37.5874 150.574 37.8606C150.316 38.1338 150.22 38.4965 150.22 38.88H151.02ZM151.653 38.2386L156.453 37.8386L156.386 37.0414L151.586 37.4414L151.653 38.2386ZM156.82 37.4343L156.74 31.7943L155.94 31.8057L156.02 37.4457L156.82 37.4343ZM173.033 49.32L173.316 49.6028L173.316 49.6028L173.033 49.32ZM170.233 47.36L170.041 47.0095L170.028 47.0166L170.015 47.0246L170.233 47.36ZM172.233 42.16L172.556 41.9235L172.547 41.9112L172.537 41.8997L172.233 42.16ZM172.193 43.6L171.972 43.2672L171.957 43.2768L171.944 43.2877L172.193 43.6ZM170.433 43.32L170.735 43.0565L170.727 43.0478L170.433 43.32ZM173.473 47.92C173.473 48.0165 173.433 48.1624 173.308 48.365C173.185 48.564 172.998 48.7895 172.751 49.0372L173.316 49.6028C173.589 49.3305 173.822 49.056 173.989 48.785C174.154 48.5176 174.273 48.2235 174.273 47.92H173.473ZM172.751 49.0372C172.271 49.5172 171.734 49.72 171.073 49.72V50.52C171.932 50.52 172.676 50.2428 173.316 49.6028L172.751 49.0372ZM171.073 49.72C170.397 49.72 169.965 49.6209 169.713 49.4711C169.497 49.3426 169.393 49.1678 169.393 48.88H168.593C168.593 49.4322 168.83 49.8774 169.304 50.1589C169.742 50.4191 170.349 50.52 171.073 50.52V49.72ZM169.393 48.88C169.393 48.7421 169.449 48.58 169.62 48.3773C169.793 48.1708 170.066 47.946 170.451 47.6954L170.015 47.0246C169.601 47.294 169.254 47.5692 169.007 47.8627C168.757 48.16 168.593 48.4979 168.593 48.88H169.393ZM170.426 47.7105C171.183 47.2941 171.997 47.04 172.793 47.04V46.24C171.83 46.24 170.884 46.5459 170.041 47.0095L170.426 47.7105ZM172.793 47.04C173.069 47.04 173.212 47.1205 173.297 47.2218C173.392 47.3361 173.473 47.5481 173.473 47.92H174.273C174.273 47.4519 174.174 47.0239 173.91 46.7082C173.635 46.3795 173.238 46.24 172.793 46.24V47.04ZM170.073 27.44C170.073 27.0302 170.164 26.7696 170.28 26.6201C170.384 26.4859 170.54 26.4 170.793 26.4V25.6C170.327 25.6 169.923 25.7741 169.647 26.1299C169.383 26.4704 169.273 26.9298 169.273 27.44H170.073ZM170.793 26.4C170.929 26.4 171.109 26.4752 171.276 26.863C171.445 27.2557 171.553 27.883 171.553 28.76H172.353C172.353 27.837 172.242 27.0843 172.011 26.547C171.778 26.0048 171.377 25.6 170.793 25.6V26.4ZM171.553 28.76V40.76H172.353V28.76H171.553ZM171.553 40.76C171.553 41.0832 171.563 41.3917 171.609 41.6621C171.655 41.932 171.743 42.2027 171.93 42.4203L172.537 41.8997C172.484 41.8373 172.432 41.728 172.398 41.5279C172.364 41.3283 172.353 41.0768 172.353 40.76H171.553ZM171.911 42.3965C172.104 42.6601 172.161 42.8545 172.159 42.9768C172.157 43.0736 172.118 43.1695 171.972 43.2672L172.415 43.9328C172.749 43.7105 172.95 43.3864 172.958 42.9932C172.966 42.6255 172.803 42.2599 172.556 41.9235L171.911 42.3965ZM171.944 43.2877C171.71 43.4744 171.522 43.5122 171.365 43.4856C171.194 43.4567 170.981 43.338 170.734 43.0566L170.132 43.5834C170.446 43.942 170.812 44.2033 171.232 44.2744C171.665 44.3478 172.077 44.2056 172.443 43.9123L171.944 43.2877ZM170.727 43.0478C170.304 42.5925 170.073 41.9106 170.073 40.8H169.273C169.273 42.0094 169.523 42.9275 170.14 43.5922L170.727 43.0478ZM170.073 40.8V27.44H169.273V40.8H170.073Z" fill="white" mask="url(#path-2-outside-1_277_111)"/>
</svg>
