<svg width="270" height="81" viewBox="0 0 270 81" fill="none" xmlns="http://www.w3.org/2000/svg">
<rect x="0.593994" y="0.378418" width="268.475" height="79.817" rx="39.9085" fill="#315630"/>
<mask id="path-2-outside-1_284_2" maskUnits="userSpaceOnUse" x="81.8298" y="23.6665" width="103" height="31" fill="black">
<rect fill="white" x="81.8298" y="23.6665" width="103" height="31"/>
<path d="M83.5554 31.4301C83.1926 31.5107 82.9508 31.4704 82.7895 31.3091C82.6283 31.1882 82.5477 30.9463 82.5477 30.5835C82.5477 30.261 82.6283 29.9788 82.7895 29.737C82.9508 29.5354 83.1926 29.3742 83.5554 29.2935L89.6425 28.2454C91.1743 28.0036 92.3434 28.0439 93.1496 28.4067C93.9155 28.8098 94.3187 29.5354 94.3187 30.5835C94.3187 30.7448 94.2783 30.906 94.238 31.0673L98.3498 33.0828C98.6723 33.3247 98.9142 33.5666 99.0351 33.8084C99.1157 34.0906 99.0754 34.3728 98.8739 34.655C98.7126 34.9372 98.4707 35.0984 98.1886 35.0984C97.8661 35.179 97.5436 35.0581 97.1405 34.8162L92.9077 32.8813C92.4643 33.2441 91.9 33.6472 91.255 34.01L87.8688 35.9853C87.4657 36.2271 87.1432 36.3481 86.861 36.2675C86.5385 36.2271 86.3369 36.0256 86.1757 35.7031C85.9741 35.4612 85.9338 35.2194 86.0548 34.9372C86.1354 34.6953 86.3369 34.4534 86.6998 34.2116L90.2875 32.1154C90.8519 31.7929 91.2953 31.5107 91.6178 31.2285C91.9 30.9866 92.0612 30.7851 92.0612 30.5835C92.0612 30.382 91.9 30.261 91.5775 30.1804C91.2147 30.1804 90.6906 30.1804 90.0456 30.261L83.5554 31.4301ZM84.926 25.343L92.0612 24.174C92.3837 24.1337 92.7062 24.174 92.9481 24.2546C93.1899 24.4158 93.3512 24.5771 93.4721 24.819C93.6334 25.2221 93.6334 25.5446 93.5124 25.7461C93.3512 25.988 93.1093 26.1089 92.7868 26.1492L85.6516 27.3183C85.2485 27.3989 84.926 27.3989 84.7245 27.278C84.4826 27.1973 84.3214 26.9958 84.2407 26.7136C84.0795 26.3508 84.0392 26.0283 84.2004 25.7864C84.2811 25.5849 84.5229 25.4236 84.926 25.343ZM91.4565 38.0815V36.1062C91.4565 35.6628 91.5371 35.3 91.7387 35.0178C91.9 34.7759 92.1821 34.655 92.5853 34.655C92.9077 34.655 93.1899 34.7759 93.4318 35.0178C93.6334 35.3 93.7543 35.6628 93.7543 36.1062V37.9605L99.1964 37.5977C99.5189 37.5977 99.801 37.6784 100.003 37.8396C100.164 38.0412 100.285 38.3234 100.285 38.6458C100.285 39.0086 100.164 39.2908 100.003 39.4521C99.801 39.6536 99.5592 39.7343 99.2367 39.7343L85.3292 40.5808C84.926 40.6614 84.6842 40.6211 84.5229 40.4196C84.3214 40.2583 84.2407 39.9761 84.2407 39.6133C84.2407 39.2908 84.3214 39.0086 84.5229 38.8071C84.6842 38.6458 84.926 38.5652 85.2888 38.4846L91.4565 38.0815ZM105.243 30.9866H109.96C110.282 30.9866 110.564 31.1076 110.766 31.2688C110.927 31.5107 111.048 31.7929 111.048 32.1154C111.048 32.4782 110.927 32.72 110.766 32.8813C110.564 33.0425 110.282 33.1232 109.96 33.1232H105.243V38.9683C105.162 39.4521 105.042 39.8149 104.88 40.0164C104.638 40.2583 104.356 40.3389 103.993 40.3389C103.631 40.3389 103.389 40.2583 103.228 40.0164C103.026 39.8149 102.945 39.4521 102.945 38.9683V25.7864C102.945 25.343 103.026 24.9802 103.228 24.698C103.389 24.4561 103.671 24.3352 104.074 24.3352C104.397 24.3352 104.679 24.4561 104.921 24.698C105.122 24.9802 105.243 25.343 105.243 25.7864V30.9866ZM92.5046 50.0137C92.5046 50.4975 92.7062 50.8603 93.1496 51.1021C93.5527 51.344 94.1574 51.4246 94.883 51.344C96.173 51.2634 97.6242 51.0618 99.2367 50.7393C100.769 50.4168 102.179 50.0943 103.469 49.7719C103.792 49.6912 104.034 49.7315 104.276 49.8928C104.477 50.0943 104.638 50.3362 104.719 50.5781C104.759 50.82 104.759 51.0618 104.679 51.3037C104.558 51.5859 104.356 51.7471 104.114 51.8278C102.744 52.2309 101.212 52.5937 99.5189 52.9162C97.7451 53.279 96.1327 53.4805 94.6815 53.5612C93.3109 53.6418 92.2224 53.3999 91.4565 52.8355C90.6503 52.3115 90.2069 51.5456 90.2069 50.5781C90.1262 49.2478 90.4487 48.2803 91.1743 47.716C91.9 47.1516 92.7868 46.8291 93.8349 46.7082L98.3498 46.2244C99.3576 46.1438 100.204 46.0229 100.849 45.8213C101.454 45.6601 101.776 45.3376 101.776 44.8941C101.776 44.491 101.575 44.2089 101.252 44.0476C100.849 43.8864 100.365 43.846 99.7607 43.846L91.9 44.3701C91.4968 44.4507 91.255 44.4104 91.0937 44.2089C90.8922 44.0476 90.8115 43.7654 90.8115 43.4026C90.8115 43.0801 90.8922 42.7979 91.0937 42.5964C91.255 42.4351 91.4968 42.3545 91.8596 42.2739L99.3576 41.7498C100.769 41.6692 101.897 41.9111 102.784 42.4754C103.631 43.0398 104.074 43.846 104.074 44.8941C104.074 45.9826 103.59 46.7888 102.623 47.3128C101.655 47.8772 100.285 48.1997 98.5917 48.3609L94.4396 48.8044C93.8349 48.885 93.3512 49.0059 93.0287 49.1672C92.6256 49.3284 92.4643 49.6106 92.5046 50.0137ZM121.103 33.3247C121.103 32.9216 121.022 32.4782 120.942 32.075C120.78 31.6719 120.619 31.2688 120.418 30.8657C120.176 30.5432 119.853 30.3013 119.45 30.0998C119.047 29.9385 118.563 29.8176 118.08 29.8176C117.515 29.8176 117.031 29.9385 116.548 30.1401C116.024 30.382 115.58 30.7448 115.177 31.1479C114.693 31.6316 114.371 32.1557 114.21 32.6797C113.968 33.2441 113.887 33.8488 113.887 34.4937C113.887 34.9775 113.927 35.4209 114.048 35.7837C114.129 36.1868 114.331 36.469 114.653 36.7109C114.895 36.9931 115.177 37.1946 115.5 37.2752C115.822 37.4365 116.185 37.4768 116.588 37.4768C117.112 37.4768 117.636 37.3962 118.16 37.1946C118.644 37.0334 119.168 36.7109 119.652 36.2675C120.135 35.8643 120.498 35.4209 120.74 34.8969C120.982 34.4131 121.103 33.8891 121.103 33.3247ZM116.588 39.6133C115.782 39.6133 115.096 39.4924 114.532 39.2505C113.887 39.049 113.363 38.6862 112.96 38.2024C112.476 37.7993 112.154 37.2752 111.952 36.6303C111.71 36.0256 111.63 35.3 111.63 34.4937C111.63 33.5263 111.791 32.6394 112.113 31.8332C112.436 31.0269 112.92 30.3013 113.565 29.6563C114.21 29.0114 114.895 28.5276 115.661 28.1648C116.386 27.8423 117.193 27.6811 118.08 27.6811C118.886 27.6811 119.611 27.8423 120.256 28.1245C120.901 28.447 121.466 28.8501 121.949 29.3339C122.07 29.4951 122.191 29.6967 122.312 29.8579L129.81 29.5354V28.2051C129.81 27.7617 129.891 27.3989 130.052 27.1167C130.213 26.8748 130.496 26.7539 130.899 26.7539C131.261 26.7539 131.544 26.8748 131.785 27.1167C131.947 27.3989 132.068 27.7617 132.068 28.2051V39.2908C132.068 39.7746 131.947 40.1374 131.785 40.3389C131.544 40.5808 131.261 40.6614 130.899 40.6614C130.496 40.6614 130.213 40.5808 130.052 40.3389C129.891 40.1374 129.81 39.7746 129.81 39.2908V36.5093L122.312 36.7915H122.151C121.909 37.114 121.627 37.4365 121.304 37.7187C120.579 38.3637 119.853 38.8474 119.087 39.1296C118.281 39.4521 117.475 39.6133 116.588 39.6133ZM123.199 31.9541C123.32 32.3975 123.36 32.8813 123.36 33.3247C123.36 33.7681 123.28 34.2116 123.199 34.6147L129.81 34.3728V31.7122L123.199 31.9541ZM131.785 46.3051C131.785 47.071 131.624 47.7563 131.342 48.4013C131.02 49.0866 130.616 49.6912 130.133 50.2556C129.568 50.82 128.883 51.2634 128.157 51.5053C127.351 51.8278 126.505 51.9487 125.537 51.9487C124.65 51.9487 123.844 51.8681 123.199 51.6262C122.514 51.4246 121.949 51.1021 121.546 50.6184C121.063 50.2153 120.7 49.7315 120.498 49.1269C120.256 48.5625 120.135 47.9175 120.135 47.1919C120.135 46.3857 120.256 45.6601 120.539 44.9345C120.78 44.2492 121.224 43.6042 121.788 42.9995C122.272 42.4351 122.917 41.9917 123.683 41.6692C124.408 41.387 125.295 41.2258 126.263 41.2258C127.069 41.2258 127.795 41.3467 128.48 41.5886C129.125 41.8708 129.689 42.2336 130.213 42.6367C130.697 43.1204 131.06 43.6848 131.382 44.2492C131.624 44.8941 131.785 45.5794 131.785 46.3051ZM129.568 46.3051C129.568 45.9019 129.488 45.5391 129.367 45.136C129.206 44.8135 128.964 44.491 128.722 44.1685C128.399 43.9267 128.077 43.7251 127.674 43.5639C127.271 43.4429 126.787 43.3623 126.263 43.3623C125.618 43.3623 125.094 43.4832 124.61 43.6445C124.086 43.846 123.683 44.1282 123.36 44.491C122.957 44.8941 122.715 45.3376 122.594 45.7407C122.433 46.2244 122.353 46.7082 122.353 47.1919C122.353 47.6353 122.393 47.9981 122.554 48.3206C122.635 48.6834 122.836 48.9656 123.118 49.1672C123.36 49.4091 123.683 49.5703 124.086 49.6509C124.489 49.7719 124.973 49.8122 125.537 49.8122C126.142 49.8122 126.706 49.7315 127.23 49.53C127.714 49.3687 128.117 49.0866 128.48 48.6431C128.802 48.3206 129.044 47.9175 129.286 47.5144C129.447 47.1113 129.568 46.7082 129.568 46.3051ZM137.252 36.9931C136.889 37.0737 136.607 36.9931 136.406 36.7915C136.164 36.6303 136.043 36.3884 136.043 36.1062C136.002 35.8643 136.083 35.5822 136.244 35.3403C136.406 35.0984 136.688 34.9775 137.091 34.8969L151.482 33.0425C151.764 33.0425 152.006 33.1232 152.208 33.2844C152.369 33.486 152.49 33.7278 152.571 33.9697C152.571 34.2519 152.53 34.4937 152.409 34.7356C152.248 34.9775 151.966 35.1387 151.603 35.1387L137.252 36.9931ZM138.784 31.9944C138.461 32.075 138.179 31.9944 137.978 31.7929C137.736 31.6316 137.615 31.3897 137.615 31.1076C137.534 30.8657 137.615 30.6238 137.776 30.382C137.937 30.1401 138.22 30.0192 138.663 29.9385L147.814 28.7292C148.096 28.7292 148.338 28.8098 148.539 28.9711C148.701 29.1726 148.822 29.3742 148.902 29.616C148.902 29.8579 148.862 30.0998 148.741 30.3416C148.58 30.5835 148.298 30.7448 147.935 30.7448L138.784 31.9944ZM147.532 42.1933C147.532 41.5483 147.29 41.0645 146.887 40.742C146.443 40.4196 145.919 40.2583 145.274 40.2583C144.387 40.2583 143.621 40.5808 143.057 41.2258C142.452 41.8708 142.17 42.6367 142.17 43.4429C142.17 44.1282 142.331 44.6523 142.735 45.0151C143.057 45.4182 143.581 45.6198 144.226 45.6198C145.194 45.6198 146 45.257 146.645 44.5313C147.209 43.8057 147.532 43.0398 147.532 42.1933ZM144.186 47.6757C143.138 47.6757 142.21 47.3532 141.324 46.6679C140.437 46.0229 139.993 44.9345 139.993 43.4832C139.993 42.8786 140.114 42.2336 140.356 41.5886C140.598 40.9839 140.92 40.4196 141.404 39.9358C141.807 39.4521 142.372 39.0086 143.057 38.6862C143.702 38.3637 144.428 38.2024 145.234 38.2024C146.604 38.2024 147.693 38.6458 148.499 39.4521C149.265 40.2986 149.668 41.2258 149.668 42.2336C149.668 42.9592 149.507 43.6445 149.265 44.2895C148.942 44.9345 148.539 45.5391 148.056 46.0229C147.572 46.5469 146.967 46.95 146.322 47.2322C145.637 47.5547 144.911 47.6757 144.186 47.6757ZM157.569 38.283H162.366C162.689 38.283 162.971 38.404 163.173 38.5652C163.334 38.8071 163.455 39.0893 163.455 39.4118C163.455 39.7746 163.334 40.0164 163.173 40.1777C162.971 40.3389 162.689 40.4196 162.366 40.4196H157.73L158.254 48.3609C158.254 48.8447 158.174 49.2075 158.013 49.4091C157.811 49.6509 157.529 49.7719 157.166 49.7719C156.803 49.7719 156.521 49.6912 156.36 49.4494C156.118 49.2478 155.997 48.885 155.997 48.4013L154.747 28.9307C154.667 28.4873 154.707 28.1245 154.909 27.8423C155.07 27.6005 155.352 27.4795 155.755 27.4795C156.078 27.4795 156.36 27.6005 156.602 27.8423C156.803 28.1245 156.924 28.4873 156.965 28.8904L157.569 38.283ZM166.073 36.0256C165.67 36.1062 165.348 36.0659 165.146 35.8643C164.904 35.7031 164.743 35.4612 164.743 35.179C164.662 34.9372 164.743 34.655 164.904 34.3728C165.066 34.1309 165.348 33.9697 165.751 33.8891C166.557 33.7681 167.363 33.6472 168.25 33.5666C169.097 33.486 169.943 33.4456 170.75 33.365C171.959 33.3247 172.926 33.486 173.571 33.8488C174.176 34.2519 174.579 34.7759 174.781 35.3806C174.942 36.0256 174.982 36.7512 174.821 37.4768C174.619 38.2427 174.337 38.928 173.974 39.573C173.41 40.4599 172.765 41.4273 172.039 42.3948C171.233 43.4429 170.467 44.3298 169.742 45.0554C169.419 45.3779 169.137 45.4988 168.855 45.4585C168.532 45.4585 168.25 45.3376 168.049 45.136C167.807 44.9748 167.686 44.7329 167.686 44.4104C167.605 44.1282 167.726 43.846 168.049 43.5236C168.774 42.7576 169.54 41.9111 170.346 40.9436C171.153 40.0164 171.798 39.049 172.322 38.0412C172.725 37.2349 172.846 36.59 172.684 36.1062C172.483 35.6628 171.838 35.4612 170.75 35.5015C169.984 35.5418 169.218 35.6225 168.411 35.7031C167.605 35.824 166.799 35.945 166.073 36.0256ZM181.755 30.3013C181.755 29.8579 181.835 29.4951 182.037 29.2129C182.198 28.9711 182.44 28.8501 182.843 28.8501C183.206 28.8501 183.488 28.9711 183.73 29.2129C183.931 29.4951 184.052 29.8579 184.052 30.3013V47.3935C184.052 47.8772 183.931 48.24 183.73 48.4416C183.488 48.6834 183.206 48.7641 182.843 48.7641C182.44 48.7641 182.198 48.6834 182.037 48.4416C181.835 48.24 181.755 47.8772 181.755 47.3935V30.3013Z"/>
</mask>
<path d="M83.5554 31.4301C83.1926 31.5107 82.9508 31.4704 82.7895 31.3091C82.6283 31.1882 82.5477 30.9463 82.5477 30.5835C82.5477 30.261 82.6283 29.9788 82.7895 29.737C82.9508 29.5354 83.1926 29.3742 83.5554 29.2935L89.6425 28.2454C91.1743 28.0036 92.3434 28.0439 93.1496 28.4067C93.9155 28.8098 94.3187 29.5354 94.3187 30.5835C94.3187 30.7448 94.2783 30.906 94.238 31.0673L98.3498 33.0828C98.6723 33.3247 98.9142 33.5666 99.0351 33.8084C99.1157 34.0906 99.0754 34.3728 98.8739 34.655C98.7126 34.9372 98.4707 35.0984 98.1886 35.0984C97.8661 35.179 97.5436 35.0581 97.1405 34.8162L92.9077 32.8813C92.4643 33.2441 91.9 33.6472 91.255 34.01L87.8688 35.9853C87.4657 36.2271 87.1432 36.3481 86.861 36.2675C86.5385 36.2271 86.3369 36.0256 86.1757 35.7031C85.9741 35.4612 85.9338 35.2194 86.0548 34.9372C86.1354 34.6953 86.3369 34.4534 86.6998 34.2116L90.2875 32.1154C90.8519 31.7929 91.2953 31.5107 91.6178 31.2285C91.9 30.9866 92.0612 30.7851 92.0612 30.5835C92.0612 30.382 91.9 30.261 91.5775 30.1804C91.2147 30.1804 90.6906 30.1804 90.0456 30.261L83.5554 31.4301ZM84.926 25.343L92.0612 24.174C92.3837 24.1337 92.7062 24.174 92.9481 24.2546C93.1899 24.4158 93.3512 24.5771 93.4721 24.819C93.6334 25.2221 93.6334 25.5446 93.5124 25.7461C93.3512 25.988 93.1093 26.1089 92.7868 26.1492L85.6516 27.3183C85.2485 27.3989 84.926 27.3989 84.7245 27.278C84.4826 27.1973 84.3214 26.9958 84.2407 26.7136C84.0795 26.3508 84.0392 26.0283 84.2004 25.7864C84.2811 25.5849 84.5229 25.4236 84.926 25.343ZM91.4565 38.0815V36.1062C91.4565 35.6628 91.5371 35.3 91.7387 35.0178C91.9 34.7759 92.1821 34.655 92.5853 34.655C92.9077 34.655 93.1899 34.7759 93.4318 35.0178C93.6334 35.3 93.7543 35.6628 93.7543 36.1062V37.9605L99.1964 37.5977C99.5189 37.5977 99.801 37.6784 100.003 37.8396C100.164 38.0412 100.285 38.3234 100.285 38.6458C100.285 39.0086 100.164 39.2908 100.003 39.4521C99.801 39.6536 99.5592 39.7343 99.2367 39.7343L85.3292 40.5808C84.926 40.6614 84.6842 40.6211 84.5229 40.4196C84.3214 40.2583 84.2407 39.9761 84.2407 39.6133C84.2407 39.2908 84.3214 39.0086 84.5229 38.8071C84.6842 38.6458 84.926 38.5652 85.2888 38.4846L91.4565 38.0815ZM105.243 30.9866H109.96C110.282 30.9866 110.564 31.1076 110.766 31.2688C110.927 31.5107 111.048 31.7929 111.048 32.1154C111.048 32.4782 110.927 32.72 110.766 32.8813C110.564 33.0425 110.282 33.1232 109.96 33.1232H105.243V38.9683C105.162 39.4521 105.042 39.8149 104.88 40.0164C104.638 40.2583 104.356 40.3389 103.993 40.3389C103.631 40.3389 103.389 40.2583 103.228 40.0164C103.026 39.8149 102.945 39.4521 102.945 38.9683V25.7864C102.945 25.343 103.026 24.9802 103.228 24.698C103.389 24.4561 103.671 24.3352 104.074 24.3352C104.397 24.3352 104.679 24.4561 104.921 24.698C105.122 24.9802 105.243 25.343 105.243 25.7864V30.9866ZM92.5046 50.0137C92.5046 50.4975 92.7062 50.8603 93.1496 51.1021C93.5527 51.344 94.1574 51.4246 94.883 51.344C96.173 51.2634 97.6242 51.0618 99.2367 50.7393C100.769 50.4168 102.179 50.0943 103.469 49.7719C103.792 49.6912 104.034 49.7315 104.276 49.8928C104.477 50.0943 104.638 50.3362 104.719 50.5781C104.759 50.82 104.759 51.0618 104.679 51.3037C104.558 51.5859 104.356 51.7471 104.114 51.8278C102.744 52.2309 101.212 52.5937 99.5189 52.9162C97.7451 53.279 96.1327 53.4805 94.6815 53.5612C93.3109 53.6418 92.2224 53.3999 91.4565 52.8355C90.6503 52.3115 90.2069 51.5456 90.2069 50.5781C90.1262 49.2478 90.4487 48.2803 91.1743 47.716C91.9 47.1516 92.7868 46.8291 93.8349 46.7082L98.3498 46.2244C99.3576 46.1438 100.204 46.0229 100.849 45.8213C101.454 45.6601 101.776 45.3376 101.776 44.8941C101.776 44.491 101.575 44.2089 101.252 44.0476C100.849 43.8864 100.365 43.846 99.7607 43.846L91.9 44.3701C91.4968 44.4507 91.255 44.4104 91.0937 44.2089C90.8922 44.0476 90.8115 43.7654 90.8115 43.4026C90.8115 43.0801 90.8922 42.7979 91.0937 42.5964C91.255 42.4351 91.4968 42.3545 91.8596 42.2739L99.3576 41.7498C100.769 41.6692 101.897 41.9111 102.784 42.4754C103.631 43.0398 104.074 43.846 104.074 44.8941C104.074 45.9826 103.59 46.7888 102.623 47.3128C101.655 47.8772 100.285 48.1997 98.5917 48.3609L94.4396 48.8044C93.8349 48.885 93.3512 49.0059 93.0287 49.1672C92.6256 49.3284 92.4643 49.6106 92.5046 50.0137ZM121.103 33.3247C121.103 32.9216 121.022 32.4782 120.942 32.075C120.78 31.6719 120.619 31.2688 120.418 30.8657C120.176 30.5432 119.853 30.3013 119.45 30.0998C119.047 29.9385 118.563 29.8176 118.08 29.8176C117.515 29.8176 117.031 29.9385 116.548 30.1401C116.024 30.382 115.58 30.7448 115.177 31.1479C114.693 31.6316 114.371 32.1557 114.21 32.6797C113.968 33.2441 113.887 33.8488 113.887 34.4937C113.887 34.9775 113.927 35.4209 114.048 35.7837C114.129 36.1868 114.331 36.469 114.653 36.7109C114.895 36.9931 115.177 37.1946 115.5 37.2752C115.822 37.4365 116.185 37.4768 116.588 37.4768C117.112 37.4768 117.636 37.3962 118.16 37.1946C118.644 37.0334 119.168 36.7109 119.652 36.2675C120.135 35.8643 120.498 35.4209 120.74 34.8969C120.982 34.4131 121.103 33.8891 121.103 33.3247ZM116.588 39.6133C115.782 39.6133 115.096 39.4924 114.532 39.2505C113.887 39.049 113.363 38.6862 112.96 38.2024C112.476 37.7993 112.154 37.2752 111.952 36.6303C111.71 36.0256 111.63 35.3 111.63 34.4937C111.63 33.5263 111.791 32.6394 112.113 31.8332C112.436 31.0269 112.92 30.3013 113.565 29.6563C114.21 29.0114 114.895 28.5276 115.661 28.1648C116.386 27.8423 117.193 27.6811 118.08 27.6811C118.886 27.6811 119.611 27.8423 120.256 28.1245C120.901 28.447 121.466 28.8501 121.949 29.3339C122.07 29.4951 122.191 29.6967 122.312 29.8579L129.81 29.5354V28.2051C129.81 27.7617 129.891 27.3989 130.052 27.1167C130.213 26.8748 130.496 26.7539 130.899 26.7539C131.261 26.7539 131.544 26.8748 131.785 27.1167C131.947 27.3989 132.068 27.7617 132.068 28.2051V39.2908C132.068 39.7746 131.947 40.1374 131.785 40.3389C131.544 40.5808 131.261 40.6614 130.899 40.6614C130.496 40.6614 130.213 40.5808 130.052 40.3389C129.891 40.1374 129.81 39.7746 129.81 39.2908V36.5093L122.312 36.7915H122.151C121.909 37.114 121.627 37.4365 121.304 37.7187C120.579 38.3637 119.853 38.8474 119.087 39.1296C118.281 39.4521 117.475 39.6133 116.588 39.6133ZM123.199 31.9541C123.32 32.3975 123.36 32.8813 123.36 33.3247C123.36 33.7681 123.28 34.2116 123.199 34.6147L129.81 34.3728V31.7122L123.199 31.9541ZM131.785 46.3051C131.785 47.071 131.624 47.7563 131.342 48.4013C131.02 49.0866 130.616 49.6912 130.133 50.2556C129.568 50.82 128.883 51.2634 128.157 51.5053C127.351 51.8278 126.505 51.9487 125.537 51.9487C124.65 51.9487 123.844 51.8681 123.199 51.6262C122.514 51.4246 121.949 51.1021 121.546 50.6184C121.063 50.2153 120.7 49.7315 120.498 49.1269C120.256 48.5625 120.135 47.9175 120.135 47.1919C120.135 46.3857 120.256 45.6601 120.539 44.9345C120.78 44.2492 121.224 43.6042 121.788 42.9995C122.272 42.4351 122.917 41.9917 123.683 41.6692C124.408 41.387 125.295 41.2258 126.263 41.2258C127.069 41.2258 127.795 41.3467 128.48 41.5886C129.125 41.8708 129.689 42.2336 130.213 42.6367C130.697 43.1204 131.06 43.6848 131.382 44.2492C131.624 44.8941 131.785 45.5794 131.785 46.3051ZM129.568 46.3051C129.568 45.9019 129.488 45.5391 129.367 45.136C129.206 44.8135 128.964 44.491 128.722 44.1685C128.399 43.9267 128.077 43.7251 127.674 43.5639C127.271 43.4429 126.787 43.3623 126.263 43.3623C125.618 43.3623 125.094 43.4832 124.61 43.6445C124.086 43.846 123.683 44.1282 123.36 44.491C122.957 44.8941 122.715 45.3376 122.594 45.7407C122.433 46.2244 122.353 46.7082 122.353 47.1919C122.353 47.6353 122.393 47.9981 122.554 48.3206C122.635 48.6834 122.836 48.9656 123.118 49.1672C123.36 49.4091 123.683 49.5703 124.086 49.6509C124.489 49.7719 124.973 49.8122 125.537 49.8122C126.142 49.8122 126.706 49.7315 127.23 49.53C127.714 49.3687 128.117 49.0866 128.48 48.6431C128.802 48.3206 129.044 47.9175 129.286 47.5144C129.447 47.1113 129.568 46.7082 129.568 46.3051ZM137.252 36.9931C136.889 37.0737 136.607 36.9931 136.406 36.7915C136.164 36.6303 136.043 36.3884 136.043 36.1062C136.002 35.8643 136.083 35.5822 136.244 35.3403C136.406 35.0984 136.688 34.9775 137.091 34.8969L151.482 33.0425C151.764 33.0425 152.006 33.1232 152.208 33.2844C152.369 33.486 152.49 33.7278 152.571 33.9697C152.571 34.2519 152.53 34.4937 152.409 34.7356C152.248 34.9775 151.966 35.1387 151.603 35.1387L137.252 36.9931ZM138.784 31.9944C138.461 32.075 138.179 31.9944 137.978 31.7929C137.736 31.6316 137.615 31.3897 137.615 31.1076C137.534 30.8657 137.615 30.6238 137.776 30.382C137.937 30.1401 138.22 30.0192 138.663 29.9385L147.814 28.7292C148.096 28.7292 148.338 28.8098 148.539 28.9711C148.701 29.1726 148.822 29.3742 148.902 29.616C148.902 29.8579 148.862 30.0998 148.741 30.3416C148.58 30.5835 148.298 30.7448 147.935 30.7448L138.784 31.9944ZM147.532 42.1933C147.532 41.5483 147.29 41.0645 146.887 40.742C146.443 40.4196 145.919 40.2583 145.274 40.2583C144.387 40.2583 143.621 40.5808 143.057 41.2258C142.452 41.8708 142.17 42.6367 142.17 43.4429C142.17 44.1282 142.331 44.6523 142.735 45.0151C143.057 45.4182 143.581 45.6198 144.226 45.6198C145.194 45.6198 146 45.257 146.645 44.5313C147.209 43.8057 147.532 43.0398 147.532 42.1933ZM144.186 47.6757C143.138 47.6757 142.21 47.3532 141.324 46.6679C140.437 46.0229 139.993 44.9345 139.993 43.4832C139.993 42.8786 140.114 42.2336 140.356 41.5886C140.598 40.9839 140.92 40.4196 141.404 39.9358C141.807 39.4521 142.372 39.0086 143.057 38.6862C143.702 38.3637 144.428 38.2024 145.234 38.2024C146.604 38.2024 147.693 38.6458 148.499 39.4521C149.265 40.2986 149.668 41.2258 149.668 42.2336C149.668 42.9592 149.507 43.6445 149.265 44.2895C148.942 44.9345 148.539 45.5391 148.056 46.0229C147.572 46.5469 146.967 46.95 146.322 47.2322C145.637 47.5547 144.911 47.6757 144.186 47.6757ZM157.569 38.283H162.366C162.689 38.283 162.971 38.404 163.173 38.5652C163.334 38.8071 163.455 39.0893 163.455 39.4118C163.455 39.7746 163.334 40.0164 163.173 40.1777C162.971 40.3389 162.689 40.4196 162.366 40.4196H157.73L158.254 48.3609C158.254 48.8447 158.174 49.2075 158.013 49.4091C157.811 49.6509 157.529 49.7719 157.166 49.7719C156.803 49.7719 156.521 49.6912 156.36 49.4494C156.118 49.2478 155.997 48.885 155.997 48.4013L154.747 28.9307C154.667 28.4873 154.707 28.1245 154.909 27.8423C155.07 27.6005 155.352 27.4795 155.755 27.4795C156.078 27.4795 156.36 27.6005 156.602 27.8423C156.803 28.1245 156.924 28.4873 156.965 28.8904L157.569 38.283ZM166.073 36.0256C165.67 36.1062 165.348 36.0659 165.146 35.8643C164.904 35.7031 164.743 35.4612 164.743 35.179C164.662 34.9372 164.743 34.655 164.904 34.3728C165.066 34.1309 165.348 33.9697 165.751 33.8891C166.557 33.7681 167.363 33.6472 168.25 33.5666C169.097 33.486 169.943 33.4456 170.75 33.365C171.959 33.3247 172.926 33.486 173.571 33.8488C174.176 34.2519 174.579 34.7759 174.781 35.3806C174.942 36.0256 174.982 36.7512 174.821 37.4768C174.619 38.2427 174.337 38.928 173.974 39.573C173.41 40.4599 172.765 41.4273 172.039 42.3948C171.233 43.4429 170.467 44.3298 169.742 45.0554C169.419 45.3779 169.137 45.4988 168.855 45.4585C168.532 45.4585 168.25 45.3376 168.049 45.136C167.807 44.9748 167.686 44.7329 167.686 44.4104C167.605 44.1282 167.726 43.846 168.049 43.5236C168.774 42.7576 169.54 41.9111 170.346 40.9436C171.153 40.0164 171.798 39.049 172.322 38.0412C172.725 37.2349 172.846 36.59 172.684 36.1062C172.483 35.6628 171.838 35.4612 170.75 35.5015C169.984 35.5418 169.218 35.6225 168.411 35.7031C167.605 35.824 166.799 35.945 166.073 36.0256ZM181.755 30.3013C181.755 29.8579 181.835 29.4951 182.037 29.2129C182.198 28.9711 182.44 28.8501 182.843 28.8501C183.206 28.8501 183.488 28.9711 183.73 29.2129C183.931 29.4951 184.052 29.8579 184.052 30.3013V47.3935C184.052 47.8772 183.931 48.24 183.73 48.4416C183.488 48.6834 183.206 48.7641 182.843 48.7641C182.44 48.7641 182.198 48.6834 182.037 48.4416C181.835 48.24 181.755 47.8772 181.755 47.3935V30.3013Z" fill="white"/>
<path d="M83.5554 31.4301L83.484 31.0333L83.476 31.0348L83.468 31.0365L83.5554 31.4301ZM82.7895 31.3091L83.0746 31.0241L83.0543 31.0038L83.0314 30.9866L82.7895 31.3091ZM82.7895 29.737L82.4747 29.4851L82.4638 29.4988L82.4541 29.5134L82.7895 29.737ZM83.5554 29.2935L83.487 28.8963L83.4775 28.8979L83.468 28.9L83.5554 29.2935ZM89.6425 28.2454L89.5796 27.8472L89.5741 27.8482L89.6425 28.2454ZM93.1496 28.4067L93.3374 28.05L93.3264 28.0442L93.315 28.0391L93.1496 28.4067ZM94.238 31.0673L93.8469 30.9695L93.7679 31.2857L94.0606 31.4292L94.238 31.0673ZM98.3498 33.0828L98.5917 32.7603L98.5613 32.7376L98.5273 32.7209L98.3498 33.0828ZM99.0351 33.8084L99.4227 33.6977L99.4124 33.6617L99.3957 33.6282L99.0351 33.8084ZM98.8739 34.655L98.5458 34.4207L98.534 34.4373L98.5239 34.455L98.8739 34.655ZM98.1886 35.0984V34.6953H98.1389L98.0908 34.7073L98.1886 35.0984ZM97.1405 34.8162L97.3479 34.4706L97.3286 34.459L97.3081 34.4496L97.1405 34.8162ZM92.9077 32.8813L93.0753 32.5147L92.8469 32.4102L92.6525 32.5693L92.9077 32.8813ZM91.255 34.01L91.0573 33.6586L91.0518 33.6618L91.255 34.01ZM87.8688 35.9853L87.6657 35.637L87.6614 35.6396L87.8688 35.9853ZM86.861 36.2675L86.9717 35.8799L86.9418 35.8713L86.911 35.8675L86.861 36.2675ZM86.1757 35.7031L86.5363 35.5228L86.5153 35.481L86.4854 35.445L86.1757 35.7031ZM86.0548 34.9372L86.4253 35.096L86.4319 35.0806L86.4372 35.0646L86.0548 34.9372ZM86.6998 34.2116L86.4964 33.8635L86.4861 33.8695L86.4761 33.8762L86.6998 34.2116ZM90.2875 32.1154L90.0875 31.7653L90.0841 31.7673L90.2875 32.1154ZM91.6178 31.2285L91.3554 30.9224L91.3523 30.9251L91.6178 31.2285ZM91.5775 30.1804L91.6752 29.7893L91.6271 29.7773H91.5775V30.1804ZM90.0456 30.261L89.9956 29.861L89.9848 29.8624L89.9742 29.8643L90.0456 30.261ZM84.926 25.343L84.8608 24.9449L84.847 24.9477L84.926 25.343ZM92.0612 24.174L92.0112 23.774L92.0036 23.7749L91.996 23.7762L92.0612 24.174ZM92.9481 24.2546L93.1717 23.9192L93.1267 23.8892L93.0755 23.8722L92.9481 24.2546ZM93.4721 24.819L93.8464 24.6692L93.8402 24.6537L93.8327 24.6387L93.4721 24.819ZM93.5124 25.7461L93.8478 25.9697L93.8532 25.9617L93.8581 25.9535L93.5124 25.7461ZM92.7868 26.1492L92.7368 25.7492L92.7292 25.7502L92.7216 25.7514L92.7868 26.1492ZM85.6516 27.3183L85.5864 26.9202L85.5726 26.923L85.6516 27.3183ZM84.7245 27.278L84.9319 26.9323L84.8939 26.9095L84.852 26.8955L84.7245 27.278ZM84.2407 26.7136L84.6283 26.6029L84.6206 26.5757L84.6091 26.5499L84.2407 26.7136ZM84.2004 25.7864L84.5358 26.01L84.5591 25.9751L84.5747 25.9361L84.2004 25.7864ZM91.4565 38.0815L91.4828 38.4837L91.8596 38.4591V38.0815H91.4565ZM91.7387 35.0178L92.0669 35.2522L92.0741 35.2414L91.7387 35.0178ZM93.4318 35.0178L93.7598 34.7835L93.7404 34.7563L93.7168 34.7327L93.4318 35.0178ZM93.7543 37.9605H93.3512V38.3914L93.7811 38.3628L93.7543 37.9605ZM99.1964 37.5977V37.1946H99.1829L99.1695 37.1955L99.1964 37.5977ZM100.003 37.8396L100.317 37.5878L100.289 37.5528L100.254 37.5248L100.003 37.8396ZM100.003 39.4521L100.288 39.7371L100.003 39.4521ZM99.2367 39.7343V39.3311H99.2244L99.2122 39.3319L99.2367 39.7343ZM85.3292 40.5808L85.3047 40.1784L85.2771 40.1801L85.2501 40.1855L85.3292 40.5808ZM84.5229 40.4196L84.8377 40.1677L84.8097 40.1328L84.7747 40.1048L84.5229 40.4196ZM84.5229 38.8071L84.808 39.0921L84.808 39.0921L84.5229 38.8071ZM85.2888 38.4846L85.2626 38.0823L85.2316 38.0844L85.2014 38.0911L85.2888 38.4846ZM105.243 30.9866H104.84V31.3897H105.243V30.9866ZM110.766 31.2688L111.101 31.0452L111.066 30.9931L111.018 30.954L110.766 31.2688ZM110.766 32.8813L111.018 33.1961L111.035 33.1821L111.051 33.1663L110.766 32.8813ZM105.243 33.1231V32.72H104.84V33.1231H105.243ZM105.243 38.9683L105.641 39.0346L105.646 39.0017V38.9683H105.243ZM104.88 40.0164L105.165 40.3015L105.181 40.2857L105.195 40.2683L104.88 40.0164ZM103.228 40.0164L103.563 39.7928L103.541 39.7596L103.513 39.7314L103.228 40.0164ZM103.228 24.698L103.556 24.9324L103.563 24.9216L103.228 24.698ZM104.921 24.698L105.249 24.4637L105.229 24.4366L105.206 24.413L104.921 24.698ZM92.5046 50.0137H92.9077V49.9936L92.9057 49.9736L92.5046 50.0137ZM93.1496 51.1021L93.357 50.7565L93.3499 50.7522L93.3426 50.7482L93.1496 51.1021ZM94.883 51.344L94.8579 50.9417L94.8482 50.9423L94.8385 50.9434L94.883 51.344ZM99.2367 50.7393L99.3157 51.1346L99.3197 51.1338L99.2367 50.7393ZM103.469 49.7719L103.372 49.3808L103.469 49.7719ZM104.276 49.8928L104.561 49.6077L104.532 49.5795L104.499 49.5574L104.276 49.8928ZM104.719 50.5781L105.117 50.5118L105.111 50.4806L105.101 50.4506L104.719 50.5781ZM104.679 51.3037L105.049 51.4625L105.056 51.4471L105.061 51.4312L104.679 51.3037ZM104.114 51.8278L104.228 52.2145L104.235 52.2125L104.242 52.2102L104.114 51.8278ZM99.5189 52.9162L99.4434 52.5201L99.4381 52.5212L99.5189 52.9162ZM94.6815 53.5611L94.6591 53.1587L94.6578 53.1587L94.6815 53.5611ZM91.4565 52.8355L91.6957 52.511L91.6861 52.504L91.6762 52.4976L91.4565 52.8355ZM90.2069 50.5781H90.61V50.5659L90.6092 50.5537L90.2069 50.5781ZM91.1743 47.716L91.4218 48.0342L91.1743 47.716ZM93.8349 46.7082L93.792 46.3073L93.7887 46.3077L93.8349 46.7082ZM98.3498 46.2244L98.3177 45.8225L98.3069 45.8236L98.3498 46.2244ZM100.849 45.8213L100.745 45.4318L100.737 45.434L100.729 45.4366L100.849 45.8213ZM101.252 44.0476L101.433 43.687L101.418 43.6795L101.402 43.6733L101.252 44.0476ZM99.7607 43.846V43.4429H99.7473L99.7339 43.4438L99.7607 43.846ZM91.9 44.3701L91.8731 43.9679L91.8468 43.9696L91.8209 43.9748L91.9 44.3701ZM91.0937 44.2089L91.4085 43.957L91.3805 43.9221L91.3455 43.8941L91.0937 44.2089ZM91.0937 42.5964L91.3788 42.8814H91.3788L91.0937 42.5964ZM91.8596 42.2739L91.8315 41.8718L91.8015 41.8739L91.7722 41.8804L91.8596 42.2739ZM99.3576 41.7498L99.3346 41.3473L99.3295 41.3477L99.3576 41.7498ZM102.784 42.4755L103.008 42.14L103.001 42.1354L102.784 42.4755ZM102.623 47.3128L102.431 46.9582L102.42 46.9646L102.623 47.3128ZM98.5917 48.361L98.5535 47.9596L98.5489 47.9601L98.5917 48.361ZM94.4396 48.8044L94.3968 48.4034L94.3863 48.4048L94.4396 48.8044ZM93.0287 49.1672L93.1784 49.5415L93.194 49.5352L93.209 49.5277L93.0287 49.1672ZM83.468 31.0365C83.1568 31.1057 83.0906 31.0401 83.0746 31.0241L82.5045 31.5942C82.811 31.9007 83.2285 31.9157 83.6429 31.8236L83.468 31.0365ZM83.0314 30.9866C83.03 30.9856 82.9508 30.9165 82.9508 30.5835H82.1445C82.1445 30.9761 82.2266 31.3908 82.5477 31.6316L83.0314 30.9866ZM82.9508 30.5835C82.9508 30.3316 83.0126 30.1291 83.1249 29.9606L82.4541 29.5134C82.244 29.8286 82.1445 30.1905 82.1445 30.5835H82.9508ZM83.1043 29.9888C83.2023 29.8664 83.3601 29.7499 83.6429 29.6871L83.468 28.9C83.0251 28.9984 82.6993 29.2045 82.4747 29.4851L83.1043 29.9888ZM83.6238 29.6908L89.7109 28.6427L89.5741 27.8482L83.487 28.8963L83.6238 29.6908ZM89.7054 28.6436C91.2171 28.4049 92.2885 28.4612 92.9842 28.7743L93.315 28.0391C92.3983 27.6265 91.1316 27.6022 89.5796 27.8473L89.7054 28.6436ZM92.9619 28.7634C93.5704 29.0837 93.9155 29.6546 93.9155 30.5835H94.7218C94.7218 29.4162 94.2607 28.5359 93.3374 28.05L92.9619 28.7634ZM93.9155 30.5835C93.9155 30.6865 93.8896 30.7988 93.8469 30.9695L94.6291 31.165C94.6671 31.0132 94.7218 30.8031 94.7218 30.5835H93.9155ZM94.0606 31.4292L98.1724 33.4448L98.5273 32.7209L94.4155 30.7053L94.0606 31.4292ZM98.1079 33.4053C98.4151 33.6357 98.5961 33.8318 98.6746 33.9887L99.3957 33.6282C99.2323 33.3014 98.9295 33.0137 98.5917 32.7603L98.1079 33.4053ZM98.6475 33.9192C98.6935 34.08 98.678 34.2356 98.5458 34.4207L99.2019 34.8893C99.4728 34.51 99.538 34.1012 99.4227 33.6977L98.6475 33.9192ZM98.5239 34.455C98.4176 34.6409 98.2952 34.6953 98.1886 34.6953V35.5015C98.6463 35.5015 99.0076 35.2334 99.2239 34.855L98.5239 34.455ZM98.0908 34.7073C97.9368 34.7458 97.7396 34.7056 97.3479 34.4706L96.9331 35.1619C97.3476 35.4106 97.7953 35.6123 98.2863 35.4895L98.0908 34.7073ZM97.3081 34.4496L93.0753 32.5147L92.7401 33.2479L96.9729 35.1829L97.3081 34.4496ZM92.6525 32.5693C92.2247 32.9193 91.6795 33.3087 91.0573 33.6587L91.4526 34.3614C92.1204 33.9857 92.7039 33.5689 93.163 33.1933L92.6525 32.5693ZM91.0518 33.6618L87.6657 35.6371L88.0719 36.3335L91.4581 34.3582L91.0518 33.6618ZM87.6614 35.6396C87.2569 35.8823 87.0724 35.9086 86.9717 35.8799L86.7503 36.6551C87.214 36.7876 87.6744 36.572 88.0762 36.3309L87.6614 35.6396ZM86.911 35.8675C86.7753 35.8505 86.6659 35.7821 86.5363 35.5228L85.8151 35.8834C86.008 36.2691 86.3017 36.6038 86.811 36.6675L86.911 35.8675ZM86.4854 35.445C86.4186 35.3649 86.3983 35.309 86.3924 35.2716C86.3866 35.2356 86.3884 35.1821 86.4253 35.096L85.6842 34.7784C85.6002 34.9744 85.5617 35.1829 85.5962 35.3989C85.6306 35.6135 85.7313 35.7994 85.866 35.9612L86.4854 35.445ZM86.4372 35.0646C86.4787 34.9402 86.6006 34.7621 86.9234 34.547L86.4761 33.8762C86.0732 34.1447 85.7921 34.4504 85.6723 34.8097L86.4372 35.0646ZM86.9031 34.5596L90.4908 32.4634L90.0841 31.7673L86.4964 33.8635L86.9031 34.5596ZM90.4875 32.4654C91.0551 32.141 91.5285 31.8423 91.8832 31.5319L91.3523 30.9251C91.0621 31.1791 90.6486 31.4447 90.0875 31.7654L90.4875 32.4654ZM91.8801 31.5346C92.0306 31.4056 92.1699 31.27 92.2733 31.1252C92.378 30.9786 92.4643 30.7969 92.4643 30.5835H91.6581C91.6581 30.5717 91.6638 30.5915 91.6173 30.6566C91.5695 30.7234 91.4871 30.8096 91.3554 30.9224L91.8801 31.5346ZM92.4643 30.5835C92.4643 30.3536 92.3631 30.1608 92.1945 30.0237C92.0459 29.903 91.8574 29.8349 91.6752 29.7893L91.4797 30.5715C91.5459 30.588 91.5951 30.6045 91.6308 30.6198C91.6667 30.6351 91.6822 30.6464 91.6861 30.6495C91.6884 30.6514 91.6786 30.6438 91.6693 30.6249C91.6596 30.6052 91.6581 30.5888 91.6581 30.5835H92.4643ZM91.5775 29.7773C91.2126 29.7773 90.6672 29.7771 89.9956 29.861L90.0956 30.661C90.714 30.5837 91.2167 30.5835 91.5775 30.5835V29.7773ZM89.9742 29.8643L83.484 31.0333L83.6269 31.8268L90.1171 30.6578L89.9742 29.8643ZM84.9912 25.7408L92.1264 24.5718L91.996 23.7762L84.8609 24.9452L84.9912 25.7408ZM92.1112 24.574C92.3734 24.5412 92.6353 24.5753 92.8206 24.637L93.0755 23.8722C92.7771 23.7727 92.394 23.7261 92.0112 23.774L92.1112 24.574ZM92.7244 24.59C92.9245 24.7234 93.0298 24.8358 93.1115 24.9992L93.8327 24.6387C93.6725 24.3184 93.4554 24.1083 93.1717 23.9192L92.7244 24.59ZM93.0978 24.9687C93.2401 25.3242 93.1922 25.4963 93.1667 25.5387L93.8581 25.9535C94.0745 25.5929 94.0267 25.1199 93.8464 24.6692L93.0978 24.9687ZM93.177 25.5225C93.0983 25.6406 92.9786 25.719 92.7368 25.7492L92.8368 26.5492C93.24 26.4988 93.604 26.3354 93.8478 25.9697L93.177 25.5225ZM92.7216 25.7514L85.5865 26.9205L85.7168 27.7161L92.852 26.547L92.7216 25.7514ZM85.5726 26.923C85.3886 26.9598 85.2401 26.9745 85.1255 26.9708C85.0087 26.967 84.953 26.9449 84.9319 26.9323L84.5171 27.6236C84.6976 27.7319 84.9039 27.7703 85.0995 27.7766C85.2973 27.783 85.5116 27.7574 85.7307 27.7136L85.5726 26.923ZM84.852 26.8955C84.7708 26.8685 84.6837 26.7966 84.6283 26.6029L83.8531 26.8243C83.959 27.195 84.1944 27.5262 84.597 27.6604L84.852 26.8955ZM84.6091 26.5499C84.4619 26.2186 84.495 26.0714 84.5358 26.01L83.865 25.5628C83.5834 25.9852 83.6971 26.483 83.8724 26.8773L84.6091 26.5499ZM84.5747 25.9361C84.5759 25.9333 84.5887 25.9032 84.656 25.8612C84.7244 25.8184 84.8363 25.7721 85.0051 25.7383L84.847 24.9477C84.4012 25.0369 83.9841 25.2417 83.8261 25.6367L84.5747 25.9361ZM91.8596 38.0815V36.1062H91.0534V38.0815H91.8596ZM91.8596 36.1062C91.8596 35.7063 91.9332 35.4391 92.0667 35.2521L91.4107 34.7835C91.1411 35.1609 91.0534 35.6192 91.0534 36.1062H91.8596ZM92.0741 35.2414C92.1337 35.152 92.26 35.0581 92.5853 35.0581V34.2519C92.1043 34.2519 91.6662 34.3999 91.4033 34.7942L92.0741 35.2414ZM92.5853 35.0581C92.7938 35.0581 92.9754 35.1315 93.1467 35.3028L93.7168 34.7327C93.4045 34.4204 93.0216 34.2519 92.5853 34.2519V35.0581ZM93.1038 35.2521C93.2521 35.4598 93.3512 35.739 93.3512 36.1062H94.1574C94.1574 35.5866 94.0146 35.1401 93.7598 34.7835L93.1038 35.2521ZM93.3512 36.1062V37.9605H94.1574V36.1062H93.3512ZM93.7811 38.3628L99.2232 38L99.1695 37.1955L93.7275 37.5583L93.7811 38.3628ZM99.1964 38.0009C99.4574 38.0009 99.6411 38.0666 99.7508 38.1544L100.254 37.5248C99.961 37.2901 99.5803 37.1946 99.1964 37.1946V38.0009ZM99.6878 38.0914C99.7982 38.2294 99.8817 38.4245 99.8817 38.6458H100.688C100.688 38.2222 100.529 37.8529 100.317 37.5878L99.6878 38.0914ZM99.8817 38.6458C99.8817 38.9248 99.7883 39.0963 99.7175 39.167L100.288 39.7371C100.539 39.4854 100.688 39.0925 100.688 38.6458H99.8817ZM99.7175 39.167C99.6099 39.2747 99.4812 39.3311 99.2367 39.3311V40.1374C99.6371 40.1374 99.9922 40.0326 100.288 39.7371L99.7175 39.167ZM99.2122 39.3319L85.3047 40.1784L85.3536 40.9832L99.2612 40.1366L99.2122 39.3319ZM85.2501 40.1855C85.0694 40.2217 84.9677 40.221 84.9115 40.2101C84.8721 40.2026 84.8569 40.1917 84.8377 40.1677L84.2081 40.6714C84.3502 40.849 84.5365 40.959 84.7592 41.0019C84.965 41.0414 85.1858 41.0206 85.4082 40.9761L85.2501 40.1855ZM84.7747 40.1048C84.7197 40.0608 84.6439 39.9387 84.6439 39.6133H83.8376C83.8376 40.0136 83.923 40.4558 84.2711 40.7343L84.7747 40.1048ZM84.6439 39.6133C84.6439 39.353 84.7087 39.1914 84.808 39.0921L84.2379 38.522C83.9341 38.8259 83.8376 39.2287 83.8376 39.6133H84.6439ZM84.808 39.0921C84.877 39.0231 85.0082 38.9599 85.3763 38.8781L85.2014 38.0911C84.8438 38.1705 84.4913 38.2686 84.2379 38.522L84.808 39.0921ZM85.3151 38.8869L91.4828 38.4837L91.4302 37.6792L85.2626 38.0823L85.3151 38.8869ZM105.243 31.3897H109.96V30.5835H105.243V31.3897ZM109.96 31.3897C110.181 31.3897 110.376 31.4732 110.514 31.5836L111.018 30.954C110.752 30.7419 110.383 30.5835 109.96 30.5835V31.3897ZM110.43 31.4924C110.564 31.6928 110.645 31.8977 110.645 32.1154H111.451C111.451 31.688 111.29 31.3285 111.101 31.0452L110.43 31.4924ZM110.645 32.1154C110.645 32.3784 110.561 32.5155 110.481 32.5962L111.051 33.1663C111.293 32.9245 111.451 32.5779 111.451 32.1154H110.645ZM110.514 32.5665C110.404 32.6543 110.221 32.72 109.96 32.72V33.5263C110.344 33.5263 110.724 33.4308 111.018 33.1961L110.514 32.5665ZM109.96 32.72H105.243V33.5263H109.96V32.72ZM104.84 33.1231V38.9683H105.646V33.1231H104.84ZM104.845 38.9021C104.767 39.3754 104.658 39.649 104.566 39.7646L105.195 40.2683C105.425 39.9808 105.558 39.5288 105.641 39.0346L104.845 38.9021ZM104.595 39.7314C104.452 39.8746 104.287 39.9358 103.993 39.9358V40.7421C104.425 40.7421 104.825 40.6421 105.165 40.3015L104.595 39.7314ZM103.993 39.9358C103.691 39.9358 103.616 39.8722 103.563 39.7928L102.892 40.24C103.162 40.6444 103.57 40.7421 103.993 40.7421V39.9358ZM103.513 39.7314C103.435 39.6534 103.348 39.4409 103.348 38.9683H102.542C102.542 39.4633 102.617 39.9764 102.942 40.3015L103.513 39.7314ZM103.348 38.9683V25.7864H102.542V38.9683H103.348ZM103.348 25.7864C103.348 25.3865 103.422 25.1193 103.556 24.9323L102.899 24.4637C102.63 24.8411 102.542 25.2995 102.542 25.7864H103.348ZM103.563 24.9216C103.623 24.8322 103.749 24.7383 104.074 24.7383V23.9321C103.593 23.9321 103.155 24.0801 102.892 24.4744L103.563 24.9216ZM104.074 24.7383C104.283 24.7383 104.464 24.8117 104.636 24.9831L105.206 24.413C104.893 24.1006 104.51 23.9321 104.074 23.9321V24.7383ZM104.593 24.9323C104.741 25.14 104.84 25.4192 104.84 25.7864H105.646C105.646 25.2668 105.503 24.8204 105.249 24.4637L104.593 24.9323ZM104.84 25.7864V30.9866H105.646V25.7864H104.84ZM92.1015 50.0137C92.1015 50.3126 92.1642 50.5974 92.3126 50.8518C92.4613 51.1067 92.6814 51.306 92.9566 51.456L93.3426 50.7482C93.1744 50.6564 93.072 50.5534 93.009 50.4455C92.9458 50.3371 92.9077 50.1986 92.9077 50.0137H92.1015ZM92.9422 51.4478C93.4545 51.7552 94.1631 51.8296 94.9275 51.7447L94.8385 50.9434C94.1517 51.0197 93.651 50.9329 93.357 50.7565L92.9422 51.4478ZM94.9082 51.7463C96.2203 51.6643 97.69 51.4598 99.3157 51.1346L99.1576 50.344C97.5584 50.6639 96.1256 50.8624 94.8579 50.9417L94.9082 51.7463ZM99.3197 51.1338C100.856 50.8105 102.272 50.4868 103.567 50.1629L103.372 49.3808C102.087 49.7019 100.681 50.0232 99.1536 50.3449L99.3197 51.1338ZM103.567 50.1629C103.79 50.1071 103.914 50.136 104.052 50.2282L104.499 49.5574C104.154 49.3271 103.793 49.2754 103.372 49.3808L103.567 50.1629ZM103.991 50.1778C104.158 50.3451 104.28 50.5352 104.337 50.7056L105.101 50.4506C104.997 50.1373 104.796 49.8436 104.561 49.6077L103.991 50.1778ZM104.321 50.6444C104.355 50.8429 104.35 51.0146 104.296 51.1762L105.061 51.4312C105.169 51.1091 105.164 50.797 105.117 50.5118L104.321 50.6444ZM104.308 51.1449C104.236 51.3138 104.127 51.3985 103.987 51.4453L104.242 52.2102C104.585 52.0958 104.88 51.8579 105.049 51.4625L104.308 51.1449ZM104.001 51.441C102.645 51.8398 101.126 52.1997 99.4434 52.5202L99.5943 53.3122C101.298 52.9877 102.843 52.622 104.228 52.2145L104.001 51.441ZM99.4381 52.5212C97.6826 52.8803 96.0897 53.0792 94.6591 53.1587L94.7038 53.9636C96.1757 53.8819 97.8077 53.6776 99.5996 53.3111L99.4381 52.5212ZM94.6578 53.1587C93.3391 53.2363 92.3576 52.9988 91.6957 52.511L91.2174 53.1601C92.0873 53.801 93.2826 54.0472 94.7051 53.9636L94.6578 53.1587ZM91.6762 52.4976C90.9775 52.0434 90.61 51.4011 90.61 50.5781H89.8037C89.8037 51.69 90.3231 52.5796 91.2368 53.1735L91.6762 52.4976ZM90.6092 50.5537C90.5327 49.2901 90.8444 48.4833 91.4218 48.0342L90.9269 47.3978C90.053 48.0774 89.7198 49.2055 89.8045 50.6025L90.6092 50.5537ZM91.4218 48.0342C92.077 47.5246 92.8894 47.2231 93.8811 47.1086L93.7887 46.3077C92.6843 46.4351 91.7229 46.7786 90.9269 47.3978L91.4218 48.0342ZM93.8779 47.109L98.3928 46.6253L98.3069 45.8236L93.792 46.3074L93.8779 47.109ZM98.382 46.6263C99.3971 46.5451 100.28 46.4215 100.969 46.2061L100.729 45.4366C100.128 45.6243 99.3181 45.7426 98.3177 45.8226L98.382 46.6263ZM100.953 46.2108C101.298 46.1188 101.602 45.9709 101.825 45.7486C102.055 45.5178 102.179 45.2243 102.179 44.8941H101.373C101.373 45.0075 101.336 45.0968 101.254 45.1785C101.164 45.2686 101.005 45.3626 100.745 45.4318L100.953 46.2108ZM102.179 44.8941C102.179 44.3273 101.881 43.9115 101.433 43.687L101.072 44.4082C101.268 44.5062 101.373 44.6548 101.373 44.8941H102.179ZM101.402 43.6733C100.923 43.4816 100.373 43.4429 99.7607 43.4429V44.2492C100.358 44.2492 100.776 44.2911 101.103 44.4219L101.402 43.6733ZM99.7339 43.4438L91.8731 43.9679L91.9268 44.7723L99.7875 44.2483L99.7339 43.4438ZM91.8209 43.9748C91.6402 44.0109 91.5385 44.0102 91.4823 43.9994C91.4429 43.9919 91.4277 43.981 91.4085 43.957L90.7789 44.4607C90.921 44.6383 91.1073 44.7483 91.33 44.7912C91.5358 44.8307 91.7566 44.8099 91.979 44.7654L91.8209 43.9748ZM91.3455 43.8941C91.2905 43.8501 91.2147 43.7279 91.2147 43.4026H90.4084C90.4084 43.8029 90.4938 44.2451 90.8419 44.5236L91.3455 43.8941ZM91.2147 43.4026C91.2147 43.1423 91.2795 42.9807 91.3788 42.8814L90.8087 42.3113C90.5049 42.6152 90.4084 43.018 90.4084 43.4026H91.2147ZM91.3788 42.8814C91.4478 42.8124 91.579 42.7492 91.9471 42.6674L91.7722 41.8804C91.4146 41.9598 91.0621 42.0579 90.8087 42.3113L91.3788 42.8814ZM91.8877 42.676L99.3857 42.152L99.3295 41.3477L91.8315 41.8718L91.8877 42.676ZM99.3806 42.1523C100.735 42.0749 101.772 42.3094 102.568 42.8155L103.001 42.1354C102.022 41.5128 100.802 41.2635 99.3346 41.3474L99.3806 42.1523ZM102.56 42.8109C103.296 43.3011 103.671 43.9819 103.671 44.8941H104.477C104.477 43.7102 103.965 42.7786 103.008 42.14L102.56 42.8109ZM103.671 44.8941C103.671 45.377 103.564 45.7766 103.366 46.1077C103.167 46.4391 102.862 46.7248 102.431 46.9584L102.815 47.6673C103.351 47.3768 103.772 46.9974 104.057 46.5225C104.342 46.0474 104.477 45.4997 104.477 44.8941H103.671ZM102.42 46.9646C101.528 47.4846 100.228 47.8002 98.5535 47.9596L98.6299 48.7622C100.342 48.5992 101.782 48.2698 102.826 47.661L102.42 46.9646ZM98.5489 47.9601L94.3968 48.4035L94.4824 49.2052L98.6345 48.7618L98.5489 47.9601ZM94.3863 48.4048C93.7672 48.4874 93.2308 48.6154 92.8484 48.8066L93.209 49.5277C93.4715 49.3965 93.9027 49.2826 94.4929 49.204L94.3863 48.4048ZM92.879 48.7929C92.6193 48.8968 92.3982 49.0561 92.2558 49.2905C92.1134 49.5251 92.0771 49.7899 92.1035 50.0538L92.9057 49.9736C92.8918 49.8344 92.916 49.7566 92.9449 49.709C92.9739 49.6613 93.035 49.5988 93.1784 49.5415L92.879 48.7929ZM120.942 32.075L121.337 31.996L121.33 31.9597L121.316 31.9253L120.942 32.075ZM120.418 30.8657L120.778 30.6854L120.762 30.6529L120.74 30.6238L120.418 30.8657ZM119.45 30.0998L119.63 29.7392L119.615 29.7317L119.6 29.7255L119.45 30.0998ZM116.548 30.1401L116.393 29.768L116.386 29.7709L116.379 29.7741L116.548 30.1401ZM115.177 31.1479L115.462 31.4329L115.177 31.1479ZM114.21 32.6797L114.58 32.8385L114.589 32.8188L114.595 32.7983L114.21 32.6797ZM114.048 35.7837L114.444 35.7047L114.439 35.68L114.431 35.6562L114.048 35.7837ZM114.653 36.7109L114.959 36.4485L114.93 36.4149L114.895 36.3884L114.653 36.7109ZM115.5 37.2752L115.68 36.9147L115.64 36.8949L115.597 36.8842L115.5 37.2752ZM118.16 37.1946L118.033 36.8122L118.024 36.8151L118.015 36.8184L118.16 37.1946ZM119.652 36.2675L119.394 35.9578L119.386 35.9639L119.379 35.9703L119.652 36.2675ZM120.74 34.8969L120.379 34.7165L120.374 34.7279L120.74 34.8969ZM114.532 39.2505L114.691 38.88L114.672 38.8719L114.652 38.8658L114.532 39.2505ZM112.96 38.2024L113.27 37.9443L113.246 37.9162L113.218 37.8927L112.96 38.2024ZM111.952 36.6303L112.337 36.51L112.332 36.4951L112.326 36.4805L111.952 36.6303ZM112.113 31.8332L112.488 31.9829L112.113 31.8332ZM113.565 29.6563L113.85 29.9414V29.9414L113.565 29.6563ZM115.661 28.1648L115.497 27.7963L115.488 27.8005L115.661 28.1648ZM120.256 28.1245L120.437 27.7639L120.427 27.7593L120.418 27.7552L120.256 28.1245ZM121.949 29.3339L122.272 29.092L122.255 29.0691L122.234 29.0488L121.949 29.3339ZM122.312 29.8579L121.99 30.0998L122.117 30.2698L122.33 30.2607L122.312 29.8579ZM129.81 29.5354L129.828 29.9382L130.213 29.9216V29.5354H129.81ZM130.052 27.1167L129.717 26.8931L129.709 26.9047L129.702 26.9167L130.052 27.1167ZM131.785 27.1167L132.135 26.9167L132.109 26.8698L132.071 26.8317L131.785 27.1167ZM131.785 40.3389L132.071 40.624L132.086 40.6082L132.1 40.5908L131.785 40.3389ZM130.052 40.3389L130.387 40.1153L130.378 40.1008L130.367 40.0871L130.052 40.3389ZM129.81 36.5093H130.213V36.0908L129.795 36.1065L129.81 36.5093ZM122.312 36.7915V37.1946H122.32L122.327 37.1943L122.312 36.7915ZM122.151 36.7915V36.3884H121.949L121.829 36.5496L122.151 36.7915ZM121.304 37.7187L121.039 37.4153L121.037 37.4174L121.304 37.7187ZM119.087 39.1296L118.948 38.7512L118.938 38.7553L119.087 39.1296ZM123.199 31.9541L123.184 31.5513L122.676 31.5698L122.81 32.0602L123.199 31.9541ZM123.199 34.6147L122.804 34.5356L122.704 35.0362L123.214 35.0175L123.199 34.6147ZM129.81 34.3728L129.825 34.7757L130.213 34.7614V34.3728H129.81ZM129.81 31.7122H130.213V31.2941L129.795 31.3094L129.81 31.7122ZM131.342 48.4013L131.707 48.573L131.711 48.5628L131.342 48.4013ZM130.133 50.2556L130.418 50.5406L130.429 50.5297L130.439 50.5179L130.133 50.2556ZM128.157 51.5053L128.03 51.1228L128.019 51.1266L128.008 51.131L128.157 51.5053ZM123.199 51.6262L123.341 51.2487L123.327 51.2436L123.313 51.2395L123.199 51.6262ZM121.546 50.6184L121.856 50.3603L121.833 50.3322L121.804 50.3087L121.546 50.6184ZM120.498 49.1269L120.881 48.9994L120.875 48.9835L120.869 48.9681L120.498 49.1269ZM120.539 44.9345L120.914 45.0806L120.919 45.0686L120.539 44.9345ZM121.788 42.9995L122.083 43.2746L122.089 43.2683L122.094 43.2618L121.788 42.9995ZM123.683 41.6692L123.537 41.2934L123.526 41.2977L123.683 41.6692ZM128.48 41.5886L128.642 41.2193L128.628 41.2134L128.614 41.2085L128.48 41.5886ZM130.213 42.6367L130.498 42.3517L130.48 42.3331L130.459 42.3172L130.213 42.6367ZM131.382 44.2492L131.76 44.1076L131.748 44.0773L131.732 44.0492L131.382 44.2492ZM129.367 45.136L129.753 45.0202L129.743 44.9869L129.727 44.9557L129.367 45.136ZM128.722 44.1685L129.044 43.9267L129.01 43.8806L128.964 43.846L128.722 44.1685ZM127.674 43.5639L127.823 43.1896L127.807 43.1829L127.79 43.1777L127.674 43.5639ZM124.61 43.6445L124.483 43.2621L124.474 43.265L124.465 43.2682L124.61 43.6445ZM123.36 44.491L123.645 44.7761L123.654 44.7677L123.662 44.7588L123.36 44.491ZM122.594 45.7407L122.977 45.8682L122.981 45.8565L122.594 45.7407ZM122.554 48.3206L122.948 48.2332L122.937 48.1847L122.915 48.1404L122.554 48.3206ZM123.118 49.1672L123.404 48.8821L123.38 48.8585L123.353 48.8392L123.118 49.1672ZM124.086 49.6509L124.202 49.2648L124.184 49.2594L124.165 49.2556L124.086 49.6509ZM127.23 49.53L127.103 49.1476L127.094 49.1505L127.086 49.1537L127.23 49.53ZM128.48 48.6431L128.195 48.3581L128.181 48.3723L128.168 48.3879L128.48 48.6431ZM129.286 47.5144L129.632 47.7218L129.648 47.6941L129.66 47.6641L129.286 47.5144ZM121.506 33.3247C121.506 32.8768 121.417 32.3973 121.337 31.996L120.546 32.1541C120.627 32.5591 120.7 32.9664 120.7 33.3247H121.506ZM121.316 31.9253C121.156 31.5244 120.988 31.1059 120.778 30.6854L120.057 31.046C120.25 31.4317 120.405 31.8195 120.567 32.2248L121.316 31.9253ZM120.74 30.6238C120.451 30.238 120.072 29.9603 119.63 29.7392L119.27 30.4603C119.634 30.6424 119.901 30.8484 120.095 31.1076L120.74 30.6238ZM119.6 29.7255C119.162 29.5503 118.627 29.4145 118.08 29.4145V30.2207C118.5 30.2207 118.932 30.3267 119.3 30.4741L119.6 29.7255ZM118.08 29.4145C117.452 29.4145 116.915 29.5502 116.393 29.768L116.703 30.5122C117.147 30.3269 117.578 30.2207 118.08 30.2207V29.4145ZM116.379 29.7741C115.795 30.0437 115.312 30.4424 114.892 30.8628L115.462 31.4329C115.848 31.0471 116.253 30.7203 116.717 30.5061L116.379 29.7741ZM114.892 30.8628C114.369 31.3856 114.008 31.9649 113.824 32.5612L114.595 32.7983C114.734 32.3464 115.017 31.8776 115.462 31.4329L114.892 30.8628ZM113.839 32.5209C113.568 33.1526 113.484 33.8165 113.484 34.4937H114.29C114.29 33.881 114.367 33.3356 114.58 32.8385L113.839 32.5209ZM113.484 34.4937C113.484 34.9928 113.525 35.4872 113.666 35.9112L114.431 35.6562C114.33 35.3546 114.29 34.9621 114.29 34.4937H113.484ZM113.653 35.8628C113.756 36.3771 114.022 36.7412 114.411 37.0334L114.895 36.3884C114.64 36.1969 114.502 35.9965 114.444 35.7047L113.653 35.8628ZM114.347 36.9732C114.627 37.2994 114.976 37.56 115.402 37.6663L115.597 36.8842C115.378 36.8293 115.163 36.6867 114.959 36.4485L114.347 36.9732ZM115.319 37.6358C115.726 37.8392 116.164 37.8799 116.588 37.8799V37.0737C116.205 37.0737 115.918 37.0338 115.68 36.9147L115.319 37.6358ZM116.588 37.8799C117.155 37.8799 117.729 37.7925 118.305 37.5709L118.015 36.8184C117.544 36.9999 117.069 37.0737 116.588 37.0737V37.8799ZM118.288 37.5771C118.837 37.3941 119.408 37.0373 119.924 36.5646L119.379 35.9703C118.927 36.3845 118.451 36.6727 118.033 36.8122L118.288 37.5771ZM119.91 36.5771C120.43 36.1433 120.835 35.654 121.106 35.0658L120.374 34.7279C120.162 35.1878 119.84 35.5854 119.394 35.9578L119.91 36.5771ZM121.101 35.0771C121.372 34.535 121.506 33.9488 121.506 33.3247H120.7C120.7 33.8293 120.592 34.2913 120.38 34.7166L121.101 35.0771ZM116.588 39.2102C115.82 39.2102 115.192 39.0948 114.691 38.88L114.373 39.621C115.001 39.89 115.743 40.0164 116.588 40.0164V39.2102ZM114.652 38.8658C114.083 38.6878 113.624 38.3698 113.27 37.9443L112.65 38.4605C113.102 39.0025 113.691 39.4101 114.412 39.6353L114.652 38.8658ZM113.218 37.8927C112.804 37.5475 112.52 37.0943 112.337 36.51L111.567 36.7505C111.788 37.4562 112.149 38.0511 112.702 38.5121L113.218 37.8927ZM112.326 36.4805C112.113 35.9457 112.033 35.2798 112.033 34.4937H111.227C111.227 35.3201 111.308 36.1055 111.578 36.78L112.326 36.4805ZM112.033 34.4937C112.033 33.5717 112.186 32.7364 112.488 31.9829L111.739 31.6835C111.396 32.5425 111.227 33.4808 111.227 34.4937H112.033ZM112.488 31.9829C112.789 31.2299 113.241 30.5498 113.85 29.9414L113.28 29.3713C112.598 30.0529 112.083 30.824 111.739 31.6835L112.488 31.9829ZM113.85 29.9414C114.463 29.3277 115.111 28.8713 115.833 28.5291L115.488 27.8005C114.679 28.1839 113.956 28.6951 113.28 29.3713L113.85 29.9414ZM115.825 28.5332C116.493 28.2361 117.242 28.0842 118.08 28.0842V27.278C117.143 27.278 116.28 27.4485 115.497 27.7964L115.825 28.5332ZM118.08 28.0842C118.831 28.0842 119.501 28.2341 120.095 28.4938L120.418 27.7552C119.722 27.4505 118.941 27.278 118.08 27.278V28.0842ZM120.076 28.4851C120.684 28.7892 121.213 29.1674 121.664 29.6189L122.234 29.0488C121.718 28.5328 121.118 28.1048 120.437 27.7639L120.076 28.4851ZM121.627 29.5757C121.679 29.6457 121.734 29.7267 121.795 29.8195C121.855 29.9081 121.921 30.0085 121.99 30.0998L122.635 29.616C122.582 29.546 122.528 29.4651 122.466 29.3723C122.407 29.2837 122.34 29.1832 122.272 29.092L121.627 29.5757ZM122.33 30.2607L129.828 29.9382L129.793 29.1327L122.295 29.4552L122.33 30.2607ZM130.213 29.5354V28.2051H129.407V29.5354H130.213ZM130.213 28.2051C130.213 27.8074 130.286 27.5198 130.402 27.3167L129.702 26.9167C129.496 27.278 129.407 27.716 129.407 28.2051H130.213ZM130.387 27.3403C130.447 27.2509 130.573 27.157 130.899 27.157V26.3508C130.418 26.3508 129.98 26.4988 129.717 26.8931L130.387 27.3403ZM130.899 27.157C131.155 27.157 131.334 27.2356 131.5 27.4018L132.071 26.8317C131.753 26.5141 131.368 26.3508 130.899 26.3508V27.157ZM131.435 27.3167C131.565 27.5436 131.665 27.838 131.665 28.2051H132.471C132.471 27.6854 132.328 27.2542 132.135 26.9167L131.435 27.3167ZM131.665 28.2051V39.2908H132.471V28.2051H131.665ZM131.665 39.2908C131.665 39.7195 131.556 39.9811 131.471 40.0871L132.1 40.5908C132.338 40.2937 132.471 39.8296 132.471 39.2908H131.665ZM131.5 40.0539C131.357 40.1971 131.192 40.2583 130.899 40.2583V41.0645C131.331 41.0645 131.73 40.9646 132.071 40.624L131.5 40.0539ZM130.899 40.2583C130.528 40.2583 130.431 40.1805 130.387 40.1153L129.717 40.5625C129.996 40.9811 130.463 41.0645 130.899 41.0645V40.2583ZM130.367 40.0871C130.296 39.999 130.213 39.7574 130.213 39.2908H129.407C129.407 39.7918 129.485 40.2758 129.737 40.5908L130.367 40.0871ZM130.213 39.2908V36.5093H129.407V39.2908H130.213ZM129.795 36.1065L122.297 36.3887L122.327 37.1943L129.825 36.9122L129.795 36.1065ZM122.312 36.3884H122.151V37.1946H122.312V36.3884ZM121.829 36.5496C121.599 36.8557 121.335 37.156 121.039 37.4153L121.57 38.0221C121.919 37.717 122.219 37.3723 122.473 37.0334L121.829 36.5496ZM121.037 37.4174C120.334 38.0416 119.652 38.4921 118.948 38.7513L119.227 39.5078C120.055 39.2027 120.823 38.6857 121.572 38.02L121.037 37.4174ZM118.938 38.7553C118.178 39.0592 117.422 39.2102 116.588 39.2102V40.0164C117.527 40.0164 118.384 39.8449 119.237 39.5039L118.938 38.7553ZM122.81 32.0602C122.918 32.4572 122.957 32.9024 122.957 33.3247H123.763C123.763 32.8602 123.722 32.3378 123.588 31.848L122.81 32.0602ZM122.957 33.3247C122.957 33.7244 122.884 34.1331 122.804 34.5356L123.594 34.6937C123.675 34.29 123.763 33.8119 123.763 33.3247H122.957ZM123.214 35.0175L129.825 34.7757L129.795 33.97L123.184 34.2118L123.214 35.0175ZM130.213 34.3728V31.7122H129.407V34.3728H130.213ZM129.795 31.3094L123.184 31.5513L123.214 32.357L129.825 32.1151L129.795 31.3094ZM131.382 46.3051C131.382 47.0111 131.234 47.6416 130.973 48.2397L131.711 48.5628C132.014 47.8709 132.189 47.1308 132.189 46.3051H131.382ZM130.977 48.2296C130.672 48.8792 130.289 49.4538 129.827 49.9933L130.439 50.5179C130.944 49.9287 131.368 49.2939 131.707 48.5729L130.977 48.2296ZM129.848 49.9706C129.322 50.4959 128.689 50.903 128.03 51.1228L128.285 51.8877C129.077 51.6238 129.814 51.144 130.418 50.5406L129.848 49.9706ZM128.008 51.131C127.263 51.429 126.47 51.5456 125.537 51.5456V52.3518C126.539 52.3518 127.44 52.2265 128.307 51.8795L128.008 51.131ZM125.537 51.5456C124.666 51.5456 123.918 51.4651 123.341 51.2487L123.058 52.0036C123.771 52.271 124.634 52.3518 125.537 52.3518V51.5456ZM123.313 51.2395C122.681 51.0536 122.194 50.7664 121.856 50.3603L121.237 50.8765C121.705 51.4379 122.347 51.7957 123.085 52.0129L123.313 51.2395ZM121.804 50.3087C121.369 49.9457 121.055 49.5221 120.881 48.9994L120.116 49.2543C120.345 49.941 120.756 50.4849 121.288 50.9281L121.804 50.3087ZM120.869 48.9681C120.652 48.4622 120.539 47.8727 120.539 47.1919H119.732C119.732 47.9623 119.861 48.6629 120.128 49.2857L120.869 48.9681ZM120.539 47.1919C120.539 46.4292 120.652 45.7539 120.914 45.0806L120.163 44.7884C119.86 45.5662 119.732 46.3422 119.732 47.1919H120.539ZM120.919 45.0686C121.136 44.4525 121.542 43.8542 122.083 43.2746L121.493 42.7244C120.906 43.3542 120.425 44.0458 120.158 44.8003L120.919 45.0686ZM122.094 43.2618C122.53 42.7533 123.12 42.3436 123.839 42.0407L123.526 41.2977C122.714 41.6398 122.014 42.117 121.482 42.7372L122.094 43.2618ZM123.829 42.0449C124.502 41.7833 125.338 41.6289 126.263 41.6289V40.8227C125.253 40.8227 124.315 40.9908 123.537 41.2935L123.829 42.0449ZM126.263 41.6289C127.027 41.6289 127.707 41.7433 128.346 41.9687L128.614 41.2085C127.882 40.9502 127.111 40.8227 126.263 40.8227V41.6289ZM128.318 41.9579C128.926 42.2236 129.462 42.5672 129.968 42.9562L130.459 42.3172C129.917 41.9 129.324 41.5179 128.642 41.2193L128.318 41.9579ZM129.928 42.9217C130.374 43.3674 130.716 43.8948 131.032 44.4492L131.732 44.0492C131.404 43.4748 131.02 42.8735 130.498 42.3517L129.928 42.9217ZM131.005 44.3907C131.235 45.0033 131.382 45.6399 131.382 46.3051H132.189C132.189 45.519 132.014 44.785 131.76 44.1076L131.005 44.3907ZM129.971 46.3051C129.971 45.8454 129.879 45.4396 129.753 45.0202L128.981 45.2519C129.097 45.6387 129.165 45.9585 129.165 46.3051H129.971ZM129.727 44.9557C129.547 44.5945 129.281 44.2418 129.044 43.9267L128.399 44.4104C128.647 44.7403 128.864 45.0326 129.006 45.3163L129.727 44.9557ZM128.964 43.846C128.622 43.5898 128.269 43.3676 127.823 43.1896L127.524 43.9381C127.885 44.0826 128.177 44.2635 128.48 44.491L128.964 43.846ZM127.79 43.1777C127.35 43.0459 126.827 42.9592 126.263 42.9592V43.7654C126.746 43.7654 127.191 43.84 127.558 43.95L127.79 43.1777ZM126.263 42.9592C125.563 42.9592 124.995 43.0912 124.483 43.2621L124.737 44.0269C125.192 43.8753 125.672 43.7654 126.263 43.7654V42.9592ZM124.465 43.2682C123.885 43.4916 123.427 43.8096 123.059 44.2232L123.662 44.7588C123.939 44.4468 124.287 44.2005 124.755 44.0207L124.465 43.2682ZM123.075 44.206C122.624 44.6569 122.348 45.1587 122.208 45.6249L122.981 45.8565C123.083 45.5165 123.29 45.1314 123.645 44.7761L123.075 44.206ZM122.212 45.6132C122.038 46.1358 121.949 46.6625 121.949 47.1919H122.756C122.756 46.7538 122.829 46.313 122.977 45.8682L122.212 45.6132ZM121.949 47.1919C121.949 47.6528 121.989 48.0927 122.194 48.5009L122.915 48.1404C122.796 47.9036 122.756 47.6179 122.756 47.1919H121.949ZM122.161 48.4081C122.264 48.8744 122.527 49.2398 122.884 49.4952L123.353 48.8392C123.146 48.6915 123.005 48.4925 122.948 48.2332L122.161 48.4081ZM122.833 49.4522C123.142 49.7609 123.542 49.9532 124.007 50.0462L124.165 49.2556C123.824 49.1874 123.579 49.0572 123.404 48.8821L122.833 49.4522ZM123.97 50.037C124.43 50.1749 124.96 50.2153 125.537 50.2153V49.4091C124.986 49.4091 124.549 49.3689 124.202 49.2648L123.97 50.037ZM125.537 50.2153C126.177 50.2153 126.793 50.13 127.375 49.9062L127.086 49.1537C126.619 49.3331 126.106 49.4091 125.537 49.4091V50.2153ZM127.358 49.9124C127.92 49.725 128.385 49.3954 128.792 48.8984L128.168 48.3879C127.849 48.7777 127.508 49.0125 127.103 49.1476L127.358 49.9124ZM128.765 48.9282C129.129 48.5645 129.395 48.1166 129.632 47.7218L128.94 47.307C128.694 47.7185 128.476 48.0768 128.195 48.3581L128.765 48.9282ZM129.66 47.6641C129.828 47.2451 129.971 46.7851 129.971 46.3051H129.165C129.165 46.6312 129.067 46.9774 128.912 47.3647L129.66 47.6641ZM137.252 36.9931L137.2 36.5933L137.182 36.5956L137.165 36.5996L137.252 36.9931ZM136.406 36.7915L136.691 36.5065L136.662 36.4782L136.629 36.4561L136.406 36.7915ZM136.043 36.1062H136.446V36.0728L136.44 36.0399L136.043 36.1062ZM136.244 35.3403L135.909 35.1167L136.244 35.3403ZM137.091 34.8969L137.039 34.4971L137.026 34.4988L137.012 34.5016L137.091 34.8969ZM151.482 33.0425V32.6394H151.456L151.431 32.6427L151.482 33.0425ZM152.208 33.2844L152.523 33.0326L152.495 32.9976L152.46 32.9696L152.208 33.2844ZM152.571 33.9697H152.974V33.9043L152.953 33.8422L152.571 33.9697ZM152.409 34.7356L152.745 34.9592L152.759 34.9383L152.77 34.9159L152.409 34.7356ZM151.603 35.1387V34.7356H151.577L151.551 34.7389L151.603 35.1387ZM138.784 31.9944L138.729 31.595L138.708 31.598L138.686 31.6033L138.784 31.9944ZM137.978 31.7929L138.263 31.5078L138.235 31.4796L138.201 31.4575L137.978 31.7929ZM137.615 31.1076H138.018V31.0421L137.997 30.9801L137.615 31.1076ZM137.776 30.382L138.112 30.6056V30.6056L137.776 30.382ZM138.663 29.9385L138.61 29.5389L138.601 29.5402L138.591 29.5419L138.663 29.9385ZM147.814 28.7292V28.3261H147.787L147.761 28.3295L147.814 28.7292ZM148.539 28.9711L148.854 28.7192L148.826 28.6842L148.791 28.6563L148.539 28.9711ZM148.902 29.616H149.305V29.5506L149.285 29.4886L148.902 29.616ZM148.741 30.3416L149.076 30.5653L149.09 30.5444L149.101 30.5219L148.741 30.3416ZM147.935 30.7448V30.3416H147.907L147.88 30.3454L147.935 30.7448ZM146.887 40.742L147.138 40.4273L147.131 40.4215L147.124 40.416L146.887 40.742ZM143.057 41.2258L143.351 41.5017L143.36 41.4912L143.057 41.2258ZM142.735 45.0151L143.049 44.7633L143.029 44.7375L143.004 44.7155L142.735 45.0151ZM146.645 44.5313L146.946 44.7992L146.955 44.7893L146.963 44.7788L146.645 44.5313ZM141.324 46.6679L141.57 46.3487L141.561 46.3418L141.324 46.6679ZM140.356 41.5886L139.982 41.4388L139.979 41.4471L140.356 41.5886ZM141.404 39.9358L141.689 40.2209L141.702 40.2079L141.714 40.1939L141.404 39.9358ZM143.057 38.6862L143.229 39.051L143.237 39.0467L143.057 38.6862ZM148.499 39.4521L148.798 39.1816L148.791 39.1742L148.784 39.167L148.499 39.4521ZM149.265 44.2895L149.626 44.4698L149.635 44.4508L149.642 44.431L149.265 44.2895ZM148.056 46.0229L147.771 45.7378L147.765 45.7435L147.759 45.7495L148.056 46.0229ZM146.322 47.2322L146.161 46.8628L146.151 46.8675L146.322 47.2322ZM157.569 38.283L157.167 38.3089L157.191 38.6862H157.569V38.283ZM163.173 38.5652L163.508 38.3416L163.473 38.2895L163.424 38.2504L163.173 38.5652ZM163.173 40.1777L163.424 40.4925L163.442 40.4785L163.458 40.4627L163.173 40.1777ZM157.73 40.4196V40.0164H157.3L157.328 40.4461L157.73 40.4196ZM158.254 48.361H158.658V48.3477L158.657 48.3344L158.254 48.361ZM158.013 49.4091L158.322 49.6672L158.327 49.6609L158.013 49.4091ZM156.36 49.4494L156.695 49.2258L156.663 49.1771L156.618 49.1397L156.36 49.4494ZM155.997 48.4013H156.4V48.3883L156.399 48.3754L155.997 48.4013ZM154.747 28.9307L155.15 28.9049L155.148 28.8816L155.144 28.8586L154.747 28.9307ZM154.909 27.8423L155.237 28.0768L155.244 28.0659L154.909 27.8423ZM156.602 27.8423L156.93 27.608L156.91 27.5809L156.887 27.5573L156.602 27.8423ZM156.965 28.8904L157.367 28.8645L157.366 28.8574L157.366 28.8503L156.965 28.8904ZM137.165 36.5996C136.913 36.6556 136.779 36.5945 136.691 36.5065L136.121 37.0766C136.436 37.3916 136.866 37.4918 137.34 37.3866L137.165 36.5996ZM136.629 36.4561C136.505 36.3731 136.446 36.2601 136.446 36.1062H135.64C135.64 36.5167 135.823 36.8874 136.182 37.1269L136.629 36.4561ZM136.44 36.0399C136.422 35.9266 136.458 35.747 136.58 35.5639L135.909 35.1167C135.708 35.4174 135.583 35.8021 135.645 36.1725L136.44 36.0399ZM136.58 35.5639C136.647 35.4627 136.789 35.3684 137.17 35.2922L137.012 34.5016C136.587 34.5866 136.164 34.7341 135.909 35.1167L136.58 35.5639ZM137.142 35.2967L151.534 33.4423L151.431 32.6427L137.039 34.4971L137.142 35.2967ZM151.482 33.4456C151.682 33.4456 151.833 33.5005 151.956 33.5992L152.46 32.9696C152.18 32.7458 151.847 32.6394 151.482 32.6394V33.4456ZM151.893 33.5362C152.019 33.6936 152.119 33.891 152.188 34.0972L152.953 33.8422C152.86 33.5647 152.719 33.2783 152.523 33.0326L151.893 33.5362ZM152.167 33.9697C152.167 34.2097 152.134 34.3852 152.049 34.5553L152.77 34.9159C152.927 34.6023 152.974 34.2941 152.974 33.9697H152.167ZM152.074 34.512C151.992 34.6352 151.839 34.7356 151.603 34.7356V35.5418C152.093 35.5418 152.504 35.3198 152.745 34.9592L152.074 34.512ZM151.551 34.7389L137.2 36.5933L137.304 37.3929L151.655 35.5385L151.551 34.7389ZM138.686 31.6033C138.491 31.6521 138.357 31.6021 138.263 31.5078L137.693 32.0779C138.001 32.3867 138.432 32.498 138.882 32.3855L138.686 31.6033ZM138.201 31.4575C138.077 31.3745 138.018 31.2614 138.018 31.1076H137.212C137.212 31.5181 137.395 31.8888 137.754 32.1283L138.201 31.4575ZM137.997 30.9801C137.975 30.9123 137.978 30.8059 138.112 30.6056L137.441 30.1583C137.252 30.4418 137.094 30.8191 137.232 31.235L137.997 30.9801ZM138.112 30.6056C138.176 30.5085 138.312 30.412 138.735 30.3351L138.591 29.5419C138.127 29.6263 137.699 29.7716 137.441 30.1584L138.112 30.6056ZM138.716 30.3382L147.867 29.1288L147.761 28.3295L138.61 29.5389L138.716 30.3382ZM147.814 29.1323C148.014 29.1323 148.164 29.1872 148.288 29.2858L148.791 28.6563C148.511 28.4324 148.178 28.3261 147.814 28.3261V29.1323ZM148.225 29.2229C148.364 29.3967 148.458 29.5569 148.52 29.7435L149.285 29.4886C149.186 29.1914 149.038 28.9485 148.854 28.7192L148.225 29.2229ZM148.499 29.616C148.499 29.8107 148.467 29.9878 148.38 30.1614L149.101 30.5219C149.257 30.2118 149.305 29.9051 149.305 29.616H148.499ZM148.406 30.118C148.323 30.2412 148.171 30.3416 147.935 30.3416V31.1479C148.424 31.1479 148.836 30.9258 149.076 30.5653L148.406 30.118ZM147.88 30.3454L138.729 31.595L138.839 32.3938L147.989 31.1442L147.88 30.3454ZM147.935 42.1933C147.935 41.4369 147.646 40.8329 147.138 40.4273L146.635 41.0568C146.934 41.2961 147.128 41.6596 147.128 42.1933H147.935ZM147.124 40.416C146.602 40.0366 145.992 39.8552 145.274 39.8552V40.6614C145.846 40.6614 146.284 40.8025 146.649 41.0681L147.124 40.416ZM145.274 39.8552C144.282 39.8552 143.401 40.2201 142.754 40.9603L143.36 41.4912C143.841 40.9415 144.493 40.6614 145.274 40.6614V39.8552ZM142.763 40.9501C142.087 41.6711 141.767 42.5361 141.767 43.4429H142.573C142.573 42.7373 142.818 42.0705 143.351 41.5015L142.763 40.9501ZM141.767 43.4429C141.767 44.1873 141.943 44.845 142.465 45.3147L143.004 44.7155C142.72 44.4596 142.573 44.0692 142.573 43.4429H141.767ZM142.42 45.2669C142.842 45.7949 143.502 46.0229 144.226 46.0229V45.2166C143.66 45.2166 143.272 45.0415 143.049 44.7633L142.42 45.2669ZM144.226 46.0229C145.309 46.0229 146.225 45.6105 146.946 44.7992L146.343 44.2635C145.775 44.9034 145.078 45.2166 144.226 45.2166V46.0229ZM146.963 44.7788C147.567 44.0019 147.935 43.1514 147.935 42.1933H147.128C147.128 42.9283 146.851 43.6095 146.327 44.2839L146.963 44.7788ZM144.186 47.2725C143.232 47.2725 142.39 46.9827 141.57 46.3489L141.077 46.9868C142.031 47.7236 143.044 48.0788 144.186 48.0788V47.2725ZM141.561 46.3418C140.813 45.7981 140.396 44.8558 140.396 43.4832H139.59C139.59 45.0131 140.06 46.2476 141.086 46.9939L141.561 46.3418ZM140.396 43.4832C140.396 42.9316 140.507 42.3345 140.734 41.7301L139.979 41.4471C139.722 42.1327 139.59 42.8255 139.59 43.4832H140.396ZM140.73 41.7383C140.958 41.1683 141.255 40.6555 141.689 40.2209L141.119 39.6508C140.586 40.1837 140.238 40.7995 139.982 41.4389L140.73 41.7383ZM141.714 40.1939C142.077 39.7578 142.594 39.3497 143.229 39.0509L142.885 38.3214C142.15 38.6676 141.537 39.1464 141.095 39.6777L141.714 40.1939ZM143.237 39.0467C143.82 38.7554 144.483 38.6055 145.234 38.6055V37.7993C144.372 37.7993 143.584 37.972 142.877 38.3256L143.237 39.0467ZM145.234 38.6055C146.511 38.6055 147.492 39.0152 148.214 39.7371L148.784 39.167C147.894 38.2765 146.698 37.7993 145.234 37.7993V38.6055ZM148.2 39.7225C148.912 40.5098 149.265 41.3441 149.265 42.2336H150.071C150.071 41.1075 149.618 40.0875 148.798 39.1816L148.2 39.7225ZM149.265 42.2336C149.265 42.8988 149.117 43.5353 148.888 44.1479L149.642 44.431C149.896 43.7537 150.071 43.0196 150.071 42.2336H149.265ZM148.904 44.1092C148.596 44.7262 148.216 45.2922 147.771 45.7378L148.341 46.3079C148.863 45.7861 149.289 45.1427 149.626 44.4698L148.904 44.1092ZM147.759 45.7495C147.319 46.2267 146.763 46.5996 146.161 46.8629L146.484 47.6015C147.172 47.3005 147.825 46.8672 148.352 46.2963L147.759 45.7495ZM146.151 46.8675C145.531 47.1591 144.867 47.2725 144.186 47.2725V48.0788C144.956 48.0788 145.743 47.9503 146.494 47.597L146.151 46.8675ZM157.569 38.6862H162.366V37.8799H157.569V38.6862ZM162.366 38.6862C162.588 38.6862 162.783 38.7696 162.921 38.88L163.424 38.2504C163.159 38.0383 162.79 37.8799 162.366 37.8799V38.6862ZM162.837 38.7888C162.971 38.9892 163.052 39.1941 163.052 39.4118H163.858C163.858 38.9844 163.697 38.6249 163.508 38.3416L162.837 38.7888ZM163.052 39.4118C163.052 39.6749 162.968 39.8119 162.887 39.8926L163.458 40.4627C163.699 40.2209 163.858 39.8743 163.858 39.4118H163.052ZM162.921 39.8629C162.811 39.9507 162.627 40.0164 162.366 40.0164V40.8227C162.75 40.8227 163.131 40.7272 163.424 40.4925L162.921 39.8629ZM162.366 40.0164H157.73V40.8227H162.366V40.0164ZM157.328 40.4461L157.852 48.3875L158.657 48.3344L158.133 40.393L157.328 40.4461ZM157.851 48.361C157.851 48.8275 157.768 49.0691 157.698 49.1572L158.327 49.6609C158.579 49.3459 158.658 48.8619 158.658 48.361H157.851ZM157.703 49.151C157.59 49.2864 157.43 49.3687 157.166 49.3687V50.175C157.628 50.175 158.032 50.0155 158.322 49.6671L157.703 49.151ZM157.166 49.3687C156.844 49.3687 156.742 49.2952 156.695 49.2258L156.024 49.673C156.301 50.0873 156.762 50.175 157.166 50.175V49.3687ZM156.618 49.1397C156.511 49.0509 156.4 48.8365 156.4 48.4013H155.594C155.594 48.9335 155.725 49.4447 156.102 49.759L156.618 49.1397ZM156.399 48.3754L155.15 28.9049L154.345 28.9566L155.595 48.4271L156.399 48.3754ZM155.144 28.8586C155.073 28.4707 155.124 28.2349 155.237 28.0766L154.581 27.608C154.291 28.0141 154.26 28.5039 154.351 29.0029L155.144 28.8586ZM155.244 28.0659C155.304 27.9765 155.43 27.8826 155.755 27.8826V27.0764C155.274 27.0764 154.836 27.2244 154.573 27.6187L155.244 28.0659ZM155.755 27.8826C155.964 27.8826 156.145 27.956 156.317 28.1274L156.887 27.5573C156.574 27.2449 156.192 27.0764 155.755 27.0764V27.8826ZM156.274 28.0766C156.425 28.2889 156.528 28.5801 156.563 28.9305L157.366 28.8503C157.32 28.3945 157.181 27.9601 156.93 27.608L156.274 28.0766ZM156.562 28.9163L157.167 38.3089L157.971 38.2571L157.367 28.8645L156.562 28.9163ZM166.073 36.0256L166.029 35.6249L166.011 35.6269L165.994 35.6303L166.073 36.0256ZM165.146 35.8643L165.431 35.5793L165.403 35.5511L165.37 35.5289L165.146 35.8643ZM164.743 35.179H165.146V35.1136L165.126 35.0516L164.743 35.179ZM164.904 34.3728L164.569 34.1492L164.561 34.1608L164.554 34.1728L164.904 34.3728ZM165.751 33.8891L165.691 33.4904L165.681 33.4919L165.672 33.4938L165.751 33.8891ZM168.25 33.5666L168.287 33.968L168.288 33.9679L168.25 33.5666ZM170.75 33.365L170.736 32.9621L170.723 32.9626L170.709 32.9639L170.75 33.365ZM173.571 33.8488L173.795 33.5133L173.782 33.5049L173.769 33.4974L173.571 33.8488ZM174.781 35.3806L175.172 35.2828L175.168 35.2678L175.163 35.2531L174.781 35.3806ZM174.821 37.4768L175.211 37.5794L175.213 37.5719L175.215 37.5643L174.821 37.4768ZM173.974 39.573L174.315 39.7894L174.32 39.7802L174.326 39.7706L173.974 39.573ZM172.039 42.3948L172.359 42.6406L172.362 42.6367L172.039 42.3948ZM168.855 45.4585L168.912 45.0594L168.884 45.0554H168.855V45.4585ZM168.049 45.136L168.334 44.851L168.305 44.8227L168.272 44.8006L168.049 45.136ZM167.686 44.4104H168.089V44.354L168.073 44.2997L167.686 44.4104ZM168.049 43.5236L168.334 43.8087L168.341 43.8008L168.049 43.5236ZM170.346 40.9436L170.042 40.679L170.037 40.6855L170.346 40.9436ZM172.322 38.0412L172.679 38.2272L172.682 38.2214L172.322 38.0412ZM172.684 36.1062L173.067 35.9787L173.06 35.9587L173.051 35.9394L172.684 36.1062ZM170.75 35.5015L170.735 35.0986L170.728 35.099L170.75 35.5015ZM168.411 35.7031L168.371 35.302L168.361 35.303L168.352 35.3044L168.411 35.7031ZM182.037 29.2129L182.365 29.4473L182.372 29.4365L182.037 29.2129ZM183.73 29.2129L184.058 28.9786L184.039 28.9515L184.015 28.9279L183.73 29.2129ZM183.73 48.4416L184.015 48.7266L183.73 48.4416ZM182.037 48.4416L182.372 48.218L182.35 48.1847L182.322 48.1565L182.037 48.4416ZM165.994 35.6303C165.633 35.7025 165.487 35.6351 165.431 35.5793L164.861 36.1494C165.208 36.4966 165.707 36.5099 166.152 36.4209L165.994 35.6303ZM165.37 35.5289C165.211 35.4228 165.146 35.2944 165.146 35.179H164.34C164.34 35.628 164.598 35.9834 164.923 36.1998L165.37 35.5289ZM165.126 35.0516C165.1 34.9764 165.11 34.8248 165.254 34.5728L164.554 34.1728C164.376 34.4852 164.224 34.898 164.361 35.3065L165.126 35.0516ZM165.24 34.5964C165.321 34.4749 165.488 34.3528 165.83 34.2844L165.672 33.4938C165.208 33.5866 164.81 33.787 164.569 34.1492L165.24 34.5964ZM165.811 34.2877C166.618 34.1666 167.413 34.0474 168.287 33.968L168.214 33.1651C167.313 33.247 166.496 33.3697 165.691 33.4904L165.811 34.2877ZM168.288 33.9679C168.706 33.9281 169.125 33.8982 169.544 33.8679C169.962 33.8377 170.38 33.8071 170.79 33.7661L170.709 32.9639C170.313 33.0036 169.905 33.0334 169.486 33.0637C169.069 33.0939 168.641 33.1244 168.212 33.1653L168.288 33.9679ZM170.763 33.7679C171.943 33.7286 172.823 33.8904 173.374 34.2001L173.769 33.4974C173.03 33.0815 171.975 32.9208 170.736 32.9621L170.763 33.7679ZM173.348 34.1842C173.884 34.5417 174.227 34.9952 174.398 35.5081L175.163 35.2531C174.931 34.5566 174.468 33.9621 173.795 33.5133L173.348 34.1842ZM174.39 35.4784C174.538 36.0712 174.573 36.7329 174.427 37.3894L175.215 37.5643C175.391 36.7695 175.346 35.98 175.172 35.2828L174.39 35.4784ZM174.431 37.3742C174.238 38.1066 173.969 38.76 173.623 39.3754L174.326 39.7706C174.705 39.096 175 38.3788 175.211 37.5794L174.431 37.3742ZM173.634 39.3566C173.073 40.2384 172.434 41.1966 171.717 42.153L172.362 42.6367C173.096 41.6581 173.747 40.6813 174.315 39.7894L173.634 39.3566ZM171.72 42.149C170.922 43.187 170.167 44.06 169.457 44.7703L170.027 45.3404C170.768 44.5996 171.545 43.6988 172.359 42.6406L171.72 42.149ZM169.457 44.7703C169.177 45.0496 169.015 45.0742 168.912 45.0594L168.798 45.8576C169.259 45.9234 169.661 45.7062 170.027 45.3404L169.457 44.7703ZM168.855 45.0554C168.636 45.0554 168.457 44.9746 168.334 44.851L167.764 45.4211C168.043 45.7006 168.429 45.8616 168.855 45.8616V45.0554ZM168.272 44.8006C168.156 44.7233 168.089 44.6155 168.089 44.4104H167.283C167.283 44.8503 167.457 45.2263 167.825 45.4714L168.272 44.8006ZM168.073 44.2997C168.054 44.2314 168.046 44.0958 168.334 43.8086L167.764 43.2385C167.406 43.5963 167.156 44.025 167.298 44.5212L168.073 44.2997ZM168.341 43.8008C169.072 43.0299 169.843 42.1769 170.656 41.2017L170.037 40.6855C169.237 41.6453 168.477 42.4854 167.756 43.2463L168.341 43.8008ZM170.651 41.2081C171.479 40.256 172.141 39.2619 172.679 38.2271L171.964 37.8552C171.454 38.836 170.827 39.7769 170.042 40.6791L170.651 41.2081ZM172.682 38.2214C173.099 37.3872 173.28 36.6182 173.067 35.9787L172.302 36.2337C172.411 36.5617 172.35 37.0827 171.961 37.8609L172.682 38.2214ZM173.051 35.9394C172.887 35.5776 172.558 35.359 172.17 35.2377C171.785 35.1175 171.3 35.0778 170.735 35.0987L170.764 35.9044C171.287 35.885 171.669 35.9259 171.929 36.0072C172.186 36.0875 172.28 36.1914 172.317 36.273L173.051 35.9394ZM170.728 35.099C169.951 35.1399 169.174 35.2217 168.371 35.302L168.452 36.1042C169.262 36.0232 170.016 35.9438 170.771 35.9041L170.728 35.099ZM168.352 35.3044C167.544 35.4257 166.745 35.5453 166.029 35.6249L166.118 36.4262C166.853 36.3446 167.667 36.2224 168.471 36.1018L168.352 35.3044ZM182.158 30.3013C182.158 29.9014 182.231 29.6342 182.365 29.4472L181.709 28.9786C181.439 29.356 181.351 29.8144 181.351 30.3013H182.158ZM182.372 29.4365C182.416 29.3714 182.461 29.3331 182.518 29.3068C182.581 29.278 182.68 29.2532 182.843 29.2532V28.447C182.603 28.447 182.38 28.4827 182.18 28.5748C181.975 28.6694 181.819 28.8126 181.701 28.9893L182.372 29.4365ZM182.843 29.2532C183.099 29.2532 183.279 29.3318 183.445 29.498L184.015 28.9279C183.697 28.6103 183.313 28.447 182.843 28.447V29.2532ZM183.402 29.4472C183.55 29.6549 183.649 29.9341 183.649 30.3013H184.455C184.455 29.7817 184.313 29.3353 184.058 28.9786L183.402 29.4472ZM183.649 30.3013V47.3935H184.455V30.3013H183.649ZM183.649 47.3935C183.649 47.827 183.538 48.0629 183.445 48.1565L184.015 48.7266C184.324 48.4171 184.455 47.9274 184.455 47.3935H183.649ZM183.445 48.1565C183.302 48.2997 183.137 48.361 182.843 48.361V49.1672C183.275 49.1672 183.674 49.0672 184.015 48.7266L183.445 48.1565ZM182.843 48.361C182.663 48.361 182.558 48.342 182.494 48.3173C182.442 48.2974 182.407 48.2708 182.372 48.218L181.701 48.6652C181.827 48.8542 181.994 48.9889 182.204 49.0698C182.402 49.1458 182.62 49.1672 182.843 49.1672V48.361ZM182.322 48.1565C182.244 48.0785 182.158 47.866 182.158 47.3935H181.351C181.351 47.8884 181.427 48.4015 181.752 48.7266L182.322 48.1565ZM182.158 47.3935V30.3013H181.351V47.3935H182.158Z" fill="white" mask="url(#path-2-outside-1_284_2)"/>
</svg>
