<svg width="270" height="81" viewBox="0 0 270 81" fill="none" xmlns="http://www.w3.org/2000/svg">
<rect x="0.593994" y="0.378906" width="268.475" height="79.817" rx="39.9085" fill="#315630"/>
<mask id="path-2-outside-1_301_74" maskUnits="userSpaceOnUse" x="81.8298" y="23.667" width="96" height="31" fill="black">
<rect fill="white" x="81.8298" y="23.667" width="96" height="31"/>
<path d="M84.1601 31.7934C83.7973 31.874 83.5554 31.8337 83.3942 31.6724C83.1926 31.5112 83.112 31.2693 83.112 30.9065C83.112 30.584 83.1926 30.3018 83.3942 30.06C83.5554 29.8987 83.7973 29.7375 84.1601 29.6568L90.2472 28.5684C91.779 28.3266 92.9481 28.3669 93.7543 28.77C94.5202 29.1731 94.9233 29.8987 94.9233 30.9468C94.9233 31.1081 94.883 31.2693 94.8427 31.4305L98.9142 33.4461C99.277 33.688 99.5189 33.9299 99.6398 34.1717C99.7204 34.4539 99.6801 34.7361 99.4785 34.978C99.277 35.3005 99.0351 35.4617 98.7932 35.4617C98.4707 35.5423 98.1483 35.4214 97.7451 35.1795L93.5124 33.2043C93.0287 33.6074 92.5046 33.9702 91.8596 34.3733L88.4735 36.3486C88.0703 36.5904 87.7075 36.7114 87.4657 36.6308C87.1432 36.5904 86.9416 36.3889 86.7804 36.0664C86.5385 35.8245 86.4982 35.5423 86.6191 35.2602C86.6998 35.0183 86.9416 34.7764 87.3044 34.5345L90.8922 32.4383C91.4565 32.1158 91.8596 31.8337 92.1821 31.5515C92.4643 31.3096 92.6256 31.1081 92.6256 30.9468C92.6256 30.7452 92.424 30.6243 92.1015 30.5437C91.7387 30.5034 91.255 30.5034 90.61 30.584L84.1601 31.7934ZM85.5307 25.7063L92.6256 24.5373C92.9481 24.4566 93.2705 24.4969 93.5124 24.5776C93.7543 24.7388 93.9155 24.9001 94.0365 25.1419C94.1977 25.5451 94.1977 25.8675 94.0768 26.0691C93.9155 26.311 93.6737 26.4722 93.3512 26.4722L86.2563 27.6413C85.8532 27.7622 85.5307 27.7622 85.3292 27.6413C85.0873 27.5606 84.926 27.3591 84.8454 27.0366C84.6842 26.6738 84.6439 26.3916 84.8051 26.1497C84.8857 25.9482 85.1276 25.7869 85.5307 25.7063ZM94.9233 39.6138V41.6697C94.9233 41.831 94.9233 41.9519 94.883 42.0728L95.4877 42.0325C97.0195 41.9519 98.1886 42.1938 99.0351 42.7581C99.8413 43.3628 100.244 44.2093 100.244 45.2978C100.244 46.4668 99.7607 47.273 98.7932 47.7568C97.8258 48.2808 96.4552 48.6033 94.7621 48.7646L90.61 49.208C90.0053 49.2886 89.5216 49.4499 89.1991 49.6111C88.796 49.8127 88.6347 50.1351 88.675 50.6189C88.675 51.1833 88.8766 51.5461 89.32 51.667C89.7231 51.8282 90.3278 51.8282 91.0534 51.7476C92.3434 51.667 93.7946 51.4654 95.4071 51.1429C96.9389 50.8204 98.3498 50.498 99.6398 50.1755C99.9623 50.0948 100.204 50.1351 100.446 50.2964C100.648 50.498 100.809 50.7398 100.889 50.9817C100.93 51.2236 100.93 51.4654 100.849 51.7073C100.728 51.9895 100.527 52.1507 100.285 52.2314C99.5995 52.4732 98.8739 52.6748 98.0676 52.836C97.2211 53.0376 96.3745 53.1988 95.528 53.3601C94.6411 53.5213 93.7543 53.6826 92.9077 53.7632C92.0209 53.9244 91.255 54.0051 90.5294 54.0051C89.1588 54.0857 88.151 53.8438 87.506 53.2391C86.8207 52.6748 86.4579 51.9895 86.3773 51.1833C86.216 49.8127 86.4982 48.8049 87.3044 48.1599C88.03 47.5955 88.9572 47.2327 90.0053 47.1118L94.8024 46.628C95.8102 46.5474 96.5761 46.4265 97.1405 46.1846C97.6645 45.9831 97.9467 45.7009 97.9467 45.2978C97.9467 44.9753 97.8258 44.6931 97.5839 44.4512C97.3017 44.2497 96.8583 44.1287 96.2133 44.1287L88.0703 44.6528C87.6672 44.7334 87.4254 44.6931 87.2641 44.4915C87.0626 44.3303 86.9819 44.0481 86.9819 43.6853C86.9819 43.3628 87.0626 43.0806 87.2641 42.8791C87.4254 42.7178 87.6672 42.6372 88.03 42.5566L92.6659 42.2341C92.6256 42.0728 92.6256 41.9116 92.6256 41.6697V39.7751L84.2004 40.2185C83.7973 40.2991 83.5554 40.2588 83.3942 40.0572C83.1926 39.896 83.112 39.6541 83.112 39.2913C83.112 38.9688 83.1926 38.6866 83.3942 38.4851C83.5554 38.3238 83.7973 38.2029 84.1601 38.1223L101.978 37.1145C102.3 37.1145 102.583 37.1548 102.784 37.316C102.945 37.5176 103.066 37.7998 103.066 38.1223C103.066 38.4851 102.945 38.7673 102.784 38.9285C102.583 39.1301 102.341 39.2107 102.018 39.2107L94.9233 39.6138ZM112.561 26.9156C114.093 26.9156 115.262 27.1978 116.068 27.7219C116.592 28.125 116.955 28.6894 117.116 29.3747H117.197L122.921 28.9312V28.2056C122.921 27.7622 123.002 27.3994 123.163 27.1172C123.324 26.8753 123.606 26.7544 124.009 26.7544C124.372 26.7544 124.654 26.8753 124.896 27.1172C125.058 27.3994 125.178 27.7622 125.178 28.2056V39.2913C125.178 39.7751 125.058 40.1379 124.896 40.3394C124.654 40.5813 124.372 40.6619 124.009 40.6619C123.606 40.6619 123.324 40.5813 123.163 40.3394C123.002 40.1379 122.921 39.7751 122.921 39.2913V35.1795L118.285 35.502C117.882 35.5826 117.64 35.5423 117.479 35.3408C117.277 35.1795 117.197 34.8974 117.197 34.5345C117.197 34.2121 117.277 33.9299 117.479 33.7283C117.64 33.5671 117.882 33.4864 118.245 33.4058L122.921 33.043V31.0677L117.197 31.5112H117.076C116.874 32.1562 116.471 32.6802 115.947 33.043C115.06 33.6477 113.77 34.0911 112.077 34.4136L109.618 34.8167C108.893 34.978 108.369 35.1392 107.965 35.3408C107.562 35.5826 107.361 35.9051 107.361 36.3889C107.361 37.0339 107.562 37.4773 108.006 37.6385C108.409 37.8401 109.094 37.9207 110.021 37.9207C111.311 37.9207 112.601 37.8401 113.932 37.5982C115.221 37.3967 116.471 37.0339 117.6 36.5501C117.922 36.3889 118.205 36.3889 118.487 36.4695C118.729 36.5904 118.93 36.792 119.091 37.1145C119.172 37.437 119.172 37.7192 119.051 37.961C118.89 38.2029 118.608 38.4045 118.285 38.5254C117.076 39.0898 115.746 39.4526 114.335 39.6944C112.883 39.9363 111.432 40.0572 110.021 40.0572C108.328 40.0572 107.119 39.7751 106.313 39.2107C105.506 38.6866 105.103 37.7595 105.103 36.3889C105.103 35.2198 105.426 34.3733 106.071 33.8492C106.716 33.3655 107.724 33.0027 109.175 32.7608L111.674 32.3577C112.642 32.1965 113.448 31.9546 114.052 31.6321C114.617 31.3499 114.939 30.9065 114.939 30.3421C114.939 29.8584 114.738 29.5359 114.335 29.3343C113.932 29.1731 113.327 29.0522 112.561 29.0522C111.513 29.0522 110.465 29.1328 109.457 29.294C108.409 29.4553 107.562 29.6568 106.837 29.8987C106.434 30.06 106.151 30.1003 105.95 29.9793C105.708 29.8987 105.587 29.6568 105.506 29.3343C105.345 29.0119 105.345 28.7297 105.506 28.4475C105.668 28.2056 105.99 28.0041 106.474 27.8025C107.199 27.5606 108.086 27.3591 109.215 27.1575C110.303 26.9963 111.432 26.9156 112.561 26.9156ZM122.558 44.4512C122.558 44.1287 122.478 43.9272 122.316 43.7659C122.115 43.645 121.873 43.5644 121.55 43.5644L109.538 45.459C109.054 45.6202 108.691 45.5799 108.489 45.4187C108.248 45.2978 108.127 45.0559 108.127 44.6931C108.127 44.3706 108.207 44.0884 108.449 43.8465C108.651 43.645 109.014 43.4837 109.497 43.3628L121.51 41.4681C122.558 41.3069 123.405 41.5085 123.969 41.9922C124.533 42.5162 124.816 43.3225 124.816 44.4512V48.7646C124.816 49.2483 124.695 49.6111 124.533 49.8127C124.292 50.0545 124.009 50.1351 123.647 50.1351C123.244 50.1351 122.961 50.0545 122.8 49.8127C122.639 49.6111 122.558 49.2483 122.558 48.7646V44.4512ZM130.363 36.9936C130 37.0742 129.718 36.9936 129.516 36.792C129.275 36.6308 129.154 36.3889 129.154 36.1067C129.113 35.8648 129.194 35.5826 129.355 35.3408C129.516 35.0989 129.799 34.978 130.202 34.8974L144.593 33.043C144.875 33.043 145.117 33.1236 145.319 33.2849C145.48 33.4864 145.601 33.7283 145.681 33.9702C145.681 34.2524 145.641 34.4942 145.52 34.7361C145.359 34.978 145.077 35.1392 144.714 35.1392L130.363 36.9936ZM131.895 31.9949C131.572 32.0755 131.29 31.9949 131.089 31.7934C130.847 31.6321 130.726 31.3902 130.726 31.1081C130.645 30.8662 130.726 30.6243 130.887 30.3824C131.048 30.1406 131.33 30.0196 131.774 29.939L140.925 28.7297C141.207 28.7297 141.449 28.8103 141.65 28.9715C141.811 29.1731 141.932 29.3747 142.013 29.6165C142.013 29.8584 141.973 30.1003 141.852 30.3421C141.69 30.584 141.408 30.7452 141.046 30.7452L131.895 31.9949ZM140.642 42.1938C140.642 41.5488 140.401 41.065 139.997 40.7425C139.554 40.42 139.03 40.2588 138.385 40.2588C137.498 40.2588 136.732 40.5813 136.168 41.2263C135.563 41.8713 135.281 42.6372 135.281 43.4434C135.281 44.1287 135.442 44.6528 135.845 45.0156C136.168 45.4187 136.692 45.6202 137.337 45.6202C138.304 45.6202 139.111 45.2574 139.756 44.5318C140.32 43.8062 140.642 43.0403 140.642 42.1938ZM137.297 47.6761C136.248 47.6761 135.321 47.3536 134.434 46.6683C133.548 46.0234 133.104 44.9349 133.104 43.4837C133.104 42.8791 133.225 42.2341 133.467 41.5891C133.709 40.9844 134.031 40.42 134.515 39.9363C134.918 39.4526 135.483 39.0091 136.168 38.6866C136.813 38.3642 137.538 38.2029 138.345 38.2029C139.715 38.2029 140.804 38.6463 141.61 39.4526C142.376 40.2991 142.779 41.2263 142.779 42.2341C142.779 42.9597 142.618 43.645 142.376 44.29C142.053 44.9349 141.65 45.5396 141.166 46.0234C140.683 46.5474 140.078 46.9505 139.433 47.2327C138.748 47.5552 138.022 47.6761 137.297 47.6761ZM150.68 38.2835H155.477C155.8 38.2835 156.082 38.4045 156.283 38.5657C156.445 38.8076 156.565 39.0898 156.565 39.4123C156.565 39.7751 156.445 40.0169 156.283 40.1782C156.082 40.3394 155.8 40.42 155.477 40.42H150.841L151.365 48.3614C151.365 48.8452 151.285 49.208 151.123 49.4095C150.922 49.6514 150.64 49.7723 150.277 49.7723C149.914 49.7723 149.632 49.6917 149.471 49.4499C149.229 49.2483 149.108 48.8855 149.108 48.4017L147.858 28.9312C147.778 28.4878 147.818 28.125 148.019 27.8428C148.181 27.6009 148.463 27.48 148.866 27.48C149.188 27.48 149.471 27.6009 149.713 27.8428C149.914 28.125 150.035 28.4878 150.075 28.8909L150.68 38.2835ZM159.184 36.0261C158.781 36.1067 158.459 36.0664 158.257 35.8648C158.015 35.7036 157.854 35.4617 157.854 35.1795C157.773 34.9377 157.854 34.6555 158.015 34.3733C158.176 34.1314 158.459 33.9702 158.862 33.8896C159.668 33.7686 160.474 33.6477 161.361 33.5671C162.208 33.4864 163.054 33.4461 163.86 33.3655C165.07 33.3252 166.037 33.4864 166.682 33.8492C167.287 34.2524 167.69 34.7764 167.891 35.3811C168.053 36.0261 168.093 36.7517 167.932 37.4773C167.73 38.2432 167.448 38.9285 167.085 39.5735C166.521 40.4604 165.876 41.4278 165.15 42.3953C164.344 43.4434 163.578 44.3303 162.853 45.0559C162.53 45.3784 162.248 45.4993 161.966 45.459C161.643 45.459 161.361 45.3381 161.159 45.1365C160.918 44.9753 160.797 44.7334 160.797 44.4109C160.716 44.1287 160.837 43.8465 161.159 43.524C161.885 42.7581 162.651 41.9116 163.457 40.9441C164.263 40.0169 164.908 39.0494 165.432 38.0417C165.836 37.2354 165.957 36.5904 165.795 36.1067C165.594 35.6633 164.949 35.4617 163.86 35.502C163.094 35.5423 162.328 35.623 161.522 35.7036C160.716 35.8245 159.91 35.9455 159.184 36.0261ZM174.865 30.3018C174.865 29.8584 174.946 29.4956 175.148 29.2134C175.309 28.9715 175.551 28.8506 175.954 28.8506C176.317 28.8506 176.599 28.9715 176.841 29.2134C177.042 29.4956 177.163 29.8584 177.163 30.3018V47.394C177.163 47.8777 177.042 48.2405 176.841 48.4421C176.599 48.6839 176.317 48.7646 175.954 48.7646C175.551 48.7646 175.309 48.6839 175.148 48.4421C174.946 48.2405 174.865 47.8777 174.865 47.394V30.3018Z"/>
</mask>
<path d="M84.1601 31.7934C83.7973 31.874 83.5554 31.8337 83.3942 31.6724C83.1926 31.5112 83.112 31.2693 83.112 30.9065C83.112 30.584 83.1926 30.3018 83.3942 30.06C83.5554 29.8987 83.7973 29.7375 84.1601 29.6568L90.2472 28.5684C91.779 28.3266 92.9481 28.3669 93.7543 28.77C94.5202 29.1731 94.9233 29.8987 94.9233 30.9468C94.9233 31.1081 94.883 31.2693 94.8427 31.4305L98.9142 33.4461C99.277 33.688 99.5189 33.9299 99.6398 34.1717C99.7204 34.4539 99.6801 34.7361 99.4785 34.978C99.277 35.3005 99.0351 35.4617 98.7932 35.4617C98.4707 35.5423 98.1483 35.4214 97.7451 35.1795L93.5124 33.2043C93.0287 33.6074 92.5046 33.9702 91.8596 34.3733L88.4735 36.3486C88.0703 36.5904 87.7075 36.7114 87.4657 36.6308C87.1432 36.5904 86.9416 36.3889 86.7804 36.0664C86.5385 35.8245 86.4982 35.5423 86.6191 35.2602C86.6998 35.0183 86.9416 34.7764 87.3044 34.5345L90.8922 32.4383C91.4565 32.1158 91.8596 31.8337 92.1821 31.5515C92.4643 31.3096 92.6256 31.1081 92.6256 30.9468C92.6256 30.7452 92.424 30.6243 92.1015 30.5437C91.7387 30.5034 91.255 30.5034 90.61 30.584L84.1601 31.7934ZM85.5307 25.7063L92.6256 24.5373C92.9481 24.4566 93.2705 24.4969 93.5124 24.5776C93.7543 24.7388 93.9155 24.9001 94.0365 25.1419C94.1977 25.5451 94.1977 25.8675 94.0768 26.0691C93.9155 26.311 93.6737 26.4722 93.3512 26.4722L86.2563 27.6413C85.8532 27.7622 85.5307 27.7622 85.3292 27.6413C85.0873 27.5606 84.926 27.3591 84.8454 27.0366C84.6842 26.6738 84.6439 26.3916 84.8051 26.1497C84.8857 25.9482 85.1276 25.7869 85.5307 25.7063ZM94.9233 39.6138V41.6697C94.9233 41.831 94.9233 41.9519 94.883 42.0728L95.4877 42.0325C97.0195 41.9519 98.1886 42.1938 99.0351 42.7581C99.8413 43.3628 100.244 44.2093 100.244 45.2978C100.244 46.4668 99.7607 47.273 98.7932 47.7568C97.8258 48.2808 96.4552 48.6033 94.7621 48.7646L90.61 49.208C90.0053 49.2886 89.5216 49.4499 89.1991 49.6111C88.796 49.8127 88.6347 50.1351 88.675 50.6189C88.675 51.1833 88.8766 51.5461 89.32 51.667C89.7231 51.8282 90.3278 51.8282 91.0534 51.7476C92.3434 51.667 93.7946 51.4654 95.4071 51.1429C96.9389 50.8204 98.3498 50.498 99.6398 50.1755C99.9623 50.0948 100.204 50.1351 100.446 50.2964C100.648 50.498 100.809 50.7398 100.889 50.9817C100.93 51.2236 100.93 51.4654 100.849 51.7073C100.728 51.9895 100.527 52.1507 100.285 52.2314C99.5995 52.4732 98.8739 52.6748 98.0676 52.836C97.2211 53.0376 96.3745 53.1988 95.528 53.3601C94.6411 53.5213 93.7543 53.6826 92.9077 53.7632C92.0209 53.9244 91.255 54.0051 90.5294 54.0051C89.1588 54.0857 88.151 53.8438 87.506 53.2391C86.8207 52.6748 86.4579 51.9895 86.3773 51.1833C86.216 49.8127 86.4982 48.8049 87.3044 48.1599C88.03 47.5955 88.9572 47.2327 90.0053 47.1118L94.8024 46.628C95.8102 46.5474 96.5761 46.4265 97.1405 46.1846C97.6645 45.9831 97.9467 45.7009 97.9467 45.2978C97.9467 44.9753 97.8258 44.6931 97.5839 44.4512C97.3017 44.2497 96.8583 44.1287 96.2133 44.1287L88.0703 44.6528C87.6672 44.7334 87.4254 44.6931 87.2641 44.4915C87.0626 44.3303 86.9819 44.0481 86.9819 43.6853C86.9819 43.3628 87.0626 43.0806 87.2641 42.8791C87.4254 42.7178 87.6672 42.6372 88.03 42.5566L92.6659 42.2341C92.6256 42.0728 92.6256 41.9116 92.6256 41.6697V39.7751L84.2004 40.2185C83.7973 40.2991 83.5554 40.2588 83.3942 40.0572C83.1926 39.896 83.112 39.6541 83.112 39.2913C83.112 38.9688 83.1926 38.6866 83.3942 38.4851C83.5554 38.3238 83.7973 38.2029 84.1601 38.1223L101.978 37.1145C102.3 37.1145 102.583 37.1548 102.784 37.316C102.945 37.5176 103.066 37.7998 103.066 38.1223C103.066 38.4851 102.945 38.7673 102.784 38.9285C102.583 39.1301 102.341 39.2107 102.018 39.2107L94.9233 39.6138ZM112.561 26.9156C114.093 26.9156 115.262 27.1978 116.068 27.7219C116.592 28.125 116.955 28.6894 117.116 29.3747H117.197L122.921 28.9312V28.2056C122.921 27.7622 123.002 27.3994 123.163 27.1172C123.324 26.8753 123.606 26.7544 124.009 26.7544C124.372 26.7544 124.654 26.8753 124.896 27.1172C125.058 27.3994 125.178 27.7622 125.178 28.2056V39.2913C125.178 39.7751 125.058 40.1379 124.896 40.3394C124.654 40.5813 124.372 40.6619 124.009 40.6619C123.606 40.6619 123.324 40.5813 123.163 40.3394C123.002 40.1379 122.921 39.7751 122.921 39.2913V35.1795L118.285 35.502C117.882 35.5826 117.64 35.5423 117.479 35.3408C117.277 35.1795 117.197 34.8974 117.197 34.5345C117.197 34.2121 117.277 33.9299 117.479 33.7283C117.64 33.5671 117.882 33.4864 118.245 33.4058L122.921 33.043V31.0677L117.197 31.5112H117.076C116.874 32.1562 116.471 32.6802 115.947 33.043C115.06 33.6477 113.77 34.0911 112.077 34.4136L109.618 34.8167C108.893 34.978 108.369 35.1392 107.965 35.3408C107.562 35.5826 107.361 35.9051 107.361 36.3889C107.361 37.0339 107.562 37.4773 108.006 37.6385C108.409 37.8401 109.094 37.9207 110.021 37.9207C111.311 37.9207 112.601 37.8401 113.932 37.5982C115.221 37.3967 116.471 37.0339 117.6 36.5501C117.922 36.3889 118.205 36.3889 118.487 36.4695C118.729 36.5904 118.93 36.792 119.091 37.1145C119.172 37.437 119.172 37.7192 119.051 37.961C118.89 38.2029 118.608 38.4045 118.285 38.5254C117.076 39.0898 115.746 39.4526 114.335 39.6944C112.883 39.9363 111.432 40.0572 110.021 40.0572C108.328 40.0572 107.119 39.7751 106.313 39.2107C105.506 38.6866 105.103 37.7595 105.103 36.3889C105.103 35.2198 105.426 34.3733 106.071 33.8492C106.716 33.3655 107.724 33.0027 109.175 32.7608L111.674 32.3577C112.642 32.1965 113.448 31.9546 114.052 31.6321C114.617 31.3499 114.939 30.9065 114.939 30.3421C114.939 29.8584 114.738 29.5359 114.335 29.3343C113.932 29.1731 113.327 29.0522 112.561 29.0522C111.513 29.0522 110.465 29.1328 109.457 29.294C108.409 29.4553 107.562 29.6568 106.837 29.8987C106.434 30.06 106.151 30.1003 105.95 29.9793C105.708 29.8987 105.587 29.6568 105.506 29.3343C105.345 29.0119 105.345 28.7297 105.506 28.4475C105.668 28.2056 105.99 28.0041 106.474 27.8025C107.199 27.5606 108.086 27.3591 109.215 27.1575C110.303 26.9963 111.432 26.9156 112.561 26.9156ZM122.558 44.4512C122.558 44.1287 122.478 43.9272 122.316 43.7659C122.115 43.645 121.873 43.5644 121.55 43.5644L109.538 45.459C109.054 45.6202 108.691 45.5799 108.489 45.4187C108.248 45.2978 108.127 45.0559 108.127 44.6931C108.127 44.3706 108.207 44.0884 108.449 43.8465C108.651 43.645 109.014 43.4837 109.497 43.3628L121.51 41.4681C122.558 41.3069 123.405 41.5085 123.969 41.9922C124.533 42.5162 124.816 43.3225 124.816 44.4512V48.7646C124.816 49.2483 124.695 49.6111 124.533 49.8127C124.292 50.0545 124.009 50.1351 123.647 50.1351C123.244 50.1351 122.961 50.0545 122.8 49.8127C122.639 49.6111 122.558 49.2483 122.558 48.7646V44.4512ZM130.363 36.9936C130 37.0742 129.718 36.9936 129.516 36.792C129.275 36.6308 129.154 36.3889 129.154 36.1067C129.113 35.8648 129.194 35.5826 129.355 35.3408C129.516 35.0989 129.799 34.978 130.202 34.8974L144.593 33.043C144.875 33.043 145.117 33.1236 145.319 33.2849C145.48 33.4864 145.601 33.7283 145.681 33.9702C145.681 34.2524 145.641 34.4942 145.52 34.7361C145.359 34.978 145.077 35.1392 144.714 35.1392L130.363 36.9936ZM131.895 31.9949C131.572 32.0755 131.29 31.9949 131.089 31.7934C130.847 31.6321 130.726 31.3902 130.726 31.1081C130.645 30.8662 130.726 30.6243 130.887 30.3824C131.048 30.1406 131.33 30.0196 131.774 29.939L140.925 28.7297C141.207 28.7297 141.449 28.8103 141.65 28.9715C141.811 29.1731 141.932 29.3747 142.013 29.6165C142.013 29.8584 141.973 30.1003 141.852 30.3421C141.69 30.584 141.408 30.7452 141.046 30.7452L131.895 31.9949ZM140.642 42.1938C140.642 41.5488 140.401 41.065 139.997 40.7425C139.554 40.42 139.03 40.2588 138.385 40.2588C137.498 40.2588 136.732 40.5813 136.168 41.2263C135.563 41.8713 135.281 42.6372 135.281 43.4434C135.281 44.1287 135.442 44.6528 135.845 45.0156C136.168 45.4187 136.692 45.6202 137.337 45.6202C138.304 45.6202 139.111 45.2574 139.756 44.5318C140.32 43.8062 140.642 43.0403 140.642 42.1938ZM137.297 47.6761C136.248 47.6761 135.321 47.3536 134.434 46.6683C133.548 46.0234 133.104 44.9349 133.104 43.4837C133.104 42.8791 133.225 42.2341 133.467 41.5891C133.709 40.9844 134.031 40.42 134.515 39.9363C134.918 39.4526 135.483 39.0091 136.168 38.6866C136.813 38.3642 137.538 38.2029 138.345 38.2029C139.715 38.2029 140.804 38.6463 141.61 39.4526C142.376 40.2991 142.779 41.2263 142.779 42.2341C142.779 42.9597 142.618 43.645 142.376 44.29C142.053 44.9349 141.65 45.5396 141.166 46.0234C140.683 46.5474 140.078 46.9505 139.433 47.2327C138.748 47.5552 138.022 47.6761 137.297 47.6761ZM150.68 38.2835H155.477C155.8 38.2835 156.082 38.4045 156.283 38.5657C156.445 38.8076 156.565 39.0898 156.565 39.4123C156.565 39.7751 156.445 40.0169 156.283 40.1782C156.082 40.3394 155.8 40.42 155.477 40.42H150.841L151.365 48.3614C151.365 48.8452 151.285 49.208 151.123 49.4095C150.922 49.6514 150.64 49.7723 150.277 49.7723C149.914 49.7723 149.632 49.6917 149.471 49.4499C149.229 49.2483 149.108 48.8855 149.108 48.4017L147.858 28.9312C147.778 28.4878 147.818 28.125 148.019 27.8428C148.181 27.6009 148.463 27.48 148.866 27.48C149.188 27.48 149.471 27.6009 149.713 27.8428C149.914 28.125 150.035 28.4878 150.075 28.8909L150.68 38.2835ZM159.184 36.0261C158.781 36.1067 158.459 36.0664 158.257 35.8648C158.015 35.7036 157.854 35.4617 157.854 35.1795C157.773 34.9377 157.854 34.6555 158.015 34.3733C158.176 34.1314 158.459 33.9702 158.862 33.8896C159.668 33.7686 160.474 33.6477 161.361 33.5671C162.208 33.4864 163.054 33.4461 163.86 33.3655C165.07 33.3252 166.037 33.4864 166.682 33.8492C167.287 34.2524 167.69 34.7764 167.891 35.3811C168.053 36.0261 168.093 36.7517 167.932 37.4773C167.73 38.2432 167.448 38.9285 167.085 39.5735C166.521 40.4604 165.876 41.4278 165.15 42.3953C164.344 43.4434 163.578 44.3303 162.853 45.0559C162.53 45.3784 162.248 45.4993 161.966 45.459C161.643 45.459 161.361 45.3381 161.159 45.1365C160.918 44.9753 160.797 44.7334 160.797 44.4109C160.716 44.1287 160.837 43.8465 161.159 43.524C161.885 42.7581 162.651 41.9116 163.457 40.9441C164.263 40.0169 164.908 39.0494 165.432 38.0417C165.836 37.2354 165.957 36.5904 165.795 36.1067C165.594 35.6633 164.949 35.4617 163.86 35.502C163.094 35.5423 162.328 35.623 161.522 35.7036C160.716 35.8245 159.91 35.9455 159.184 36.0261ZM174.865 30.3018C174.865 29.8584 174.946 29.4956 175.148 29.2134C175.309 28.9715 175.551 28.8506 175.954 28.8506C176.317 28.8506 176.599 28.9715 176.841 29.2134C177.042 29.4956 177.163 29.8584 177.163 30.3018V47.394C177.163 47.8777 177.042 48.2405 176.841 48.4421C176.599 48.6839 176.317 48.7646 175.954 48.7646C175.551 48.7646 175.309 48.6839 175.148 48.4421C174.946 48.2405 174.865 47.8777 174.865 47.394V30.3018Z" fill="white"/>
<path d="M84.1601 31.7934L84.0858 31.3969L84.0727 31.3998L84.1601 31.7934ZM83.3942 31.6724L83.6792 31.3874L83.6635 31.3716L83.646 31.3576L83.3942 31.6724ZM83.3942 30.06L83.1092 29.7749L83.0962 29.7878L83.0845 29.8019L83.3942 30.06ZM84.1601 29.6568L84.0892 29.26L84.0809 29.2615L84.0727 29.2633L84.1601 29.6568ZM90.2472 28.5684L90.1843 28.1702L90.1762 28.1716L90.2472 28.5684ZM93.7543 28.77L93.9421 28.4132L93.9346 28.4094L93.7543 28.77ZM94.8427 31.4305L94.4516 31.3328L94.3729 31.6478L94.6639 31.7918L94.8427 31.4305ZM98.9142 33.4461L99.1378 33.1107L99.1162 33.0964L99.093 33.0849L98.9142 33.4461ZM99.6398 34.1717L100.027 34.061L100.017 34.025L100 33.9915L99.6398 34.1717ZM99.4785 34.978L99.1689 34.7199L99.1513 34.741L99.1367 34.7643L99.4785 34.978ZM98.7932 35.4617V35.0586H98.7436L98.6955 35.0706L98.7932 35.4617ZM97.7451 35.1795L97.9525 34.8339L97.9346 34.8231L97.9156 34.8142L97.7451 35.1795ZM93.5124 33.2043L93.6829 32.839L93.451 32.7307L93.2543 32.8946L93.5124 33.2043ZM91.8596 34.3733L92.0629 34.7217L92.0733 34.7151L91.8596 34.3733ZM88.4735 36.3486L88.2703 36.0003L88.2661 36.0029L88.4735 36.3486ZM87.4657 36.6308L87.5931 36.2483L87.5553 36.2357L87.5157 36.2307L87.4657 36.6308ZM86.7804 36.0664L87.1409 35.8861L87.1117 35.8276L87.0654 35.7813L86.7804 36.0664ZM86.6191 35.2602L86.9897 35.419L86.9963 35.4035L87.0016 35.3876L86.6191 35.2602ZM87.3044 34.5345L87.1011 34.1865L87.0908 34.1925L87.0808 34.1991L87.3044 34.5345ZM90.8922 32.4383L90.6922 32.0883L90.6888 32.0903L90.8922 32.4383ZM92.1821 31.5515L91.9198 31.2454L91.9167 31.2481L92.1821 31.5515ZM92.1015 30.5437L92.1993 30.1526L92.173 30.146L92.146 30.143L92.1015 30.5437ZM90.61 30.584L90.56 30.184L90.5478 30.1855L90.5357 30.1878L90.61 30.584ZM85.5307 25.7063L85.4651 25.3083L85.4517 25.311L85.5307 25.7063ZM92.6256 24.5373L92.6911 24.935L92.7074 24.9323L92.7233 24.9283L92.6256 24.5373ZM93.5124 24.5776L93.736 24.2422L93.6911 24.2122L93.6399 24.1951L93.5124 24.5776ZM94.0365 25.1419L94.4108 24.9922L94.4045 24.9767L94.397 24.9617L94.0365 25.1419ZM94.0768 26.0691L94.4122 26.2927L94.4175 26.2847L94.4225 26.2765L94.0768 26.0691ZM93.3512 26.4722V26.0691H93.3182L93.2856 26.0745L93.3512 26.4722ZM86.2563 27.6413L86.1908 27.2435L86.1653 27.2477L86.1405 27.2551L86.2563 27.6413ZM85.3292 27.6413L85.5366 27.2956L85.4986 27.2728L85.4566 27.2588L85.3292 27.6413ZM84.8454 27.0366L85.2365 26.9388L85.228 26.9048L85.2138 26.8729L84.8454 27.0366ZM84.8051 26.1497L85.1405 26.3733L85.1638 26.3384L85.1794 26.2994L84.8051 26.1497ZM94.9233 39.6138L94.9005 39.2113L94.5202 39.2329V39.6138H94.9233ZM94.883 42.0728L94.5006 41.9453L94.3107 42.515L94.9098 42.475L94.883 42.0728ZM95.4877 42.0325L95.4665 41.6299L95.4609 41.6303L95.4877 42.0325ZM99.0351 42.7581L99.277 42.4356L99.268 42.4289L99.2587 42.4227L99.0351 42.7581ZM98.7932 47.7568L98.6129 47.396L98.6012 47.4023L98.7932 47.7568ZM94.7621 48.7646L94.7239 48.3632L94.7193 48.3637L94.7621 48.7646ZM90.61 49.208L90.5672 48.807L90.5567 48.8084L90.61 49.208ZM89.1991 49.6111L89.3794 49.9717L89.3794 49.9717L89.1991 49.6111ZM88.675 50.6189H89.0781V50.6021L89.0767 50.5854L88.675 50.6189ZM89.32 51.667L89.4697 51.2927L89.4483 51.2841L89.4261 51.2781L89.32 51.667ZM91.0534 51.7476L91.0283 51.3453L91.0186 51.3459L91.0089 51.347L91.0534 51.7476ZM95.4071 51.1429L95.4861 51.5382L95.4901 51.5374L95.4071 51.1429ZM99.6398 50.1755L99.7376 50.5665L99.7376 50.5665L99.6398 50.1755ZM100.446 50.2964L100.731 50.0113L100.703 49.9831L100.67 49.961L100.446 50.2964ZM100.889 50.9817L101.287 50.9154L101.282 50.8842L101.272 50.8542L100.889 50.9817ZM100.849 51.7073L101.22 51.8661L101.226 51.8507L101.232 51.8348L100.849 51.7073ZM100.285 52.2314L100.157 51.8489L100.151 51.8512L100.285 52.2314ZM98.0676 52.836L97.9886 52.4407L97.9814 52.4422L97.9743 52.4439L98.0676 52.836ZM95.528 53.3601L95.6001 53.7567L95.6034 53.7561L95.528 53.3601ZM92.9077 53.7632L92.8695 53.3619L92.8525 53.3635L92.8356 53.3666L92.9077 53.7632ZM90.5294 54.0051V53.602H90.5175L90.5057 53.6026L90.5294 54.0051ZM87.506 53.2391L87.7817 52.9451L87.7722 52.9362L87.7622 52.928L87.506 53.2391ZM86.3773 51.1833L86.7784 51.1431L86.7776 51.1362L86.3773 51.1833ZM87.3044 48.1599L87.0569 47.8416L87.0526 47.8451L87.3044 48.1599ZM90.0053 47.1118L89.9649 46.7107L89.9591 46.7113L90.0053 47.1118ZM94.8024 46.628L94.7702 46.2261L94.7619 46.227L94.8024 46.628ZM97.1405 46.1846L96.9958 45.8084L96.9887 45.8111L96.9817 45.8141L97.1405 46.1846ZM97.5839 44.4512L97.8689 44.1662L97.8454 44.1426L97.8182 44.1232L97.5839 44.4512ZM96.2133 44.1287V43.7256H96.2003L96.1874 43.7264L96.2133 44.1287ZM88.0703 44.6528L88.0445 44.2505L88.0176 44.2522L87.9913 44.2575L88.0703 44.6528ZM87.2641 44.4915L87.5789 44.2397L87.5509 44.2047L87.5159 44.1767L87.2641 44.4915ZM87.2641 42.8791L87.5492 43.1641L87.5492 43.1641L87.2641 42.8791ZM88.03 42.5566L88.0021 42.1544L87.972 42.1565L87.9426 42.163L88.03 42.5566ZM92.6659 42.2341L92.6938 42.6362L93.1736 42.6028L93.057 42.1363L92.6659 42.2341ZM92.6256 39.7751H93.0287V39.3502L92.6044 39.3725L92.6256 39.7751ZM84.2004 40.2185L84.1792 39.8159L84.15 39.8175L84.1214 39.8232L84.2004 40.2185ZM83.3942 40.0572L83.709 39.8054L83.681 39.7704L83.646 39.7425L83.3942 40.0572ZM83.3942 38.4851L83.6792 38.7701L83.6792 38.7701L83.3942 38.4851ZM84.1601 38.1223L84.1374 37.7198L84.1046 37.7217L84.0727 37.7288L84.1601 38.1223ZM101.978 37.1145V36.7114H101.966L101.955 36.712L101.978 37.1145ZM102.784 37.316L103.099 37.0642L103.071 37.0292L103.036 37.0013L102.784 37.316ZM102.784 38.9285L103.069 39.2136L103.069 39.2136L102.784 38.9285ZM102.018 39.2107V38.8076H102.007L101.995 38.8082L102.018 39.2107ZM84.0727 31.3998C83.7615 31.469 83.6952 31.4034 83.6792 31.3874L83.1092 31.9575C83.4157 32.264 83.8331 32.279 84.2476 32.1869L84.0727 31.3998ZM83.646 31.3576C83.5826 31.3069 83.5151 31.2144 83.5151 30.9065H82.7089C82.7089 31.3243 82.8026 31.7154 83.1424 31.9872L83.646 31.3576ZM83.5151 30.9065C83.5151 30.6565 83.5753 30.4723 83.7039 30.318L83.0845 29.8019C82.8099 30.1314 82.7089 30.5115 82.7089 30.9065H83.5151ZM83.6792 30.345C83.7897 30.2346 83.9642 30.1133 84.2476 30.0504L84.0727 29.2633C83.6305 29.3616 83.3212 29.5628 83.1092 29.7749L83.6792 30.345ZM84.2311 30.0537L90.3181 28.9652L90.1762 28.1716L84.0892 29.26L84.2311 30.0537ZM90.31 28.9666C91.8246 28.7275 92.8861 28.7866 93.574 29.1305L93.9346 28.4094C93.01 27.9472 91.7334 27.9256 90.1843 28.1702L90.31 28.9666ZM93.5665 29.1267C94.1751 29.447 94.5202 30.0179 94.5202 30.9468H95.3264C95.3264 29.7795 94.8654 28.8992 93.942 28.4133L93.5665 29.1267ZM94.5202 30.9468C94.5202 31.0498 94.4943 31.1621 94.4516 31.3328L95.2338 31.5283C95.2717 31.3765 95.3264 31.1663 95.3264 30.9468H94.5202ZM94.6639 31.7918L98.7353 33.8074L99.093 33.0849L95.0215 31.0693L94.6639 31.7918ZM98.6906 33.7815C99.0271 34.0059 99.2033 34.2002 99.2792 34.352L100 33.9915C99.8344 33.6596 99.5268 33.3701 99.1378 33.1107L98.6906 33.7815ZM99.2522 34.2825C99.3005 34.4514 99.2755 34.592 99.1689 34.7199L99.7882 35.236C100.085 34.8803 100.14 34.4564 100.027 34.061L99.2522 34.2825ZM99.1367 34.7643C98.9727 35.0267 98.8395 35.0586 98.7932 35.0586V35.8648C99.2308 35.8648 99.5813 35.5742 99.8204 35.1916L99.1367 34.7643ZM98.6955 35.0706C98.5415 35.1091 98.3443 35.0689 97.9525 34.8339L97.5377 35.5252C97.9522 35.7739 98.4 35.9755 98.891 35.8528L98.6955 35.0706ZM97.9156 34.8142L93.6829 32.839L93.3419 33.5696L97.5747 35.5448L97.9156 34.8142ZM93.2543 32.8946C92.7897 33.2818 92.2822 33.6338 91.646 34.0315L92.0733 34.7151C92.727 34.3065 93.2677 33.933 93.7705 33.5139L93.2543 32.8946ZM91.6565 34.0251L88.2703 36.0004L88.6766 36.6968L92.0628 34.7215L91.6565 34.0251ZM88.2661 36.0029C88.082 36.1133 87.9228 36.1864 87.7954 36.2239C87.6619 36.2631 87.6034 36.2517 87.5931 36.2483L87.3382 37.0132C87.5699 37.0904 87.8137 37.0588 88.0228 36.9973C88.2381 36.934 88.4618 36.8257 88.6809 36.6942L88.2661 36.0029ZM87.5157 36.2307C87.38 36.2138 87.2706 36.1454 87.1409 35.8861L86.4198 36.2467C86.6127 36.6324 86.9064 36.9671 87.4157 37.0308L87.5157 36.2307ZM87.0654 35.7813C86.9934 35.7093 86.9683 35.6495 86.9601 35.605C86.9517 35.5596 86.9551 35.4995 86.9897 35.419L86.2486 35.1014C86.1622 35.303 86.1253 35.525 86.1673 35.7518C86.2095 35.9794 86.3255 36.1816 86.4953 36.3514L87.0654 35.7813ZM87.0016 35.3876C87.037 35.2812 87.1784 35.103 87.528 34.87L87.0808 34.1991C86.7048 34.4498 86.3625 34.7554 86.2367 35.1327L87.0016 35.3876ZM87.5078 34.8826L91.0955 32.7864L90.6888 32.0903L87.1011 34.1865L87.5078 34.8826ZM91.0922 32.7883C91.6725 32.4568 92.0994 32.1596 92.4476 31.8549L91.9167 31.2481C91.6199 31.5078 91.2406 31.7749 90.6922 32.0883L91.0922 32.7883ZM92.4445 31.8576C92.5955 31.7281 92.7313 31.5953 92.8322 31.4608C92.9276 31.3335 93.0287 31.1565 93.0287 30.9468H92.2224C92.2224 30.8983 92.2429 30.9028 92.1872 30.977C92.1369 31.0441 92.0509 31.133 91.9198 31.2454L92.4445 31.8576ZM93.0287 30.9468C93.0287 30.6845 92.887 30.4934 92.7205 30.3731C92.5679 30.2629 92.3783 30.1974 92.1993 30.1526L92.0037 30.9348C92.0718 30.9518 92.1264 30.9692 92.1691 30.9864C92.2125 31.0038 92.2368 31.0183 92.2485 31.0267C92.2596 31.0348 92.2517 31.0319 92.241 31.0136C92.2286 30.9924 92.2224 30.9674 92.2224 30.9468H93.0287ZM92.146 30.143C91.7449 30.0985 91.2286 30.1004 90.56 30.184L90.66 30.984C91.2813 30.9063 91.7325 30.9083 92.057 30.9443L92.146 30.143ZM90.5357 30.1878L84.0858 31.3971L84.2344 32.1896L90.6843 30.9802L90.5357 30.1878ZM85.5963 26.104L92.6911 24.935L92.56 24.1395L85.4652 25.3085L85.5963 26.104ZM92.7233 24.9283C92.9569 24.87 93.2001 24.8984 93.3849 24.96L93.6399 24.1951C93.341 24.0955 92.9392 24.0433 92.5278 24.1462L92.7233 24.9283ZM93.2888 24.913C93.4888 25.0463 93.5942 25.1587 93.6759 25.3222L94.397 24.9617C94.2369 24.6414 94.0197 24.4313 93.736 24.2422L93.2888 24.913ZM93.6622 25.2916C93.8044 25.6472 93.7566 25.8193 93.7311 25.8617L94.4225 26.2765C94.6389 25.9158 94.591 25.4429 94.4108 24.9922L93.6622 25.2916ZM93.7414 25.8455C93.6421 25.9945 93.5173 26.0691 93.3512 26.0691V26.8753C93.83 26.8753 94.189 26.6275 94.4122 26.2927L93.7414 25.8455ZM93.2856 26.0745L86.1908 27.2435L86.3219 28.039L93.4167 26.87L93.2856 26.0745ZM86.1405 27.2551C85.7663 27.3674 85.5871 27.3259 85.5366 27.2956L85.1218 27.9869C85.4743 28.1985 85.9401 28.157 86.3722 28.0274L86.1405 27.2551ZM85.4566 27.2588C85.3848 27.2349 85.2951 27.1734 85.2365 26.9388L84.4543 27.1344C84.5569 27.5448 84.7898 27.8864 85.2017 28.0237L85.4566 27.2588ZM85.2138 26.8729C85.0651 26.5384 85.1007 26.433 85.1405 26.3733L84.4697 25.9261C84.187 26.3502 84.3032 26.8091 84.477 27.2003L85.2138 26.8729ZM85.1794 26.2994C85.1805 26.2966 85.1934 26.2665 85.2606 26.2245C85.3291 26.1817 85.441 26.1353 85.6098 26.1016L85.4517 25.311C85.0059 25.4002 84.5888 25.605 84.4308 26L85.1794 26.2994ZM94.5202 39.6138V41.6697H95.3264V39.6138H94.5202ZM94.5202 41.6697C94.5202 41.8452 94.5165 41.8977 94.5006 41.9453L95.2654 42.2003C95.3302 42.0061 95.3264 41.8167 95.3264 41.6697H94.5202ZM94.9098 42.475L95.5145 42.4347L95.4609 41.6303L94.8562 41.6706L94.9098 42.475ZM95.5089 42.4351C96.9946 42.3569 98.065 42.5958 98.8115 43.0935L99.2587 42.4227C98.3122 41.7917 97.0445 41.5469 95.4665 41.63L95.5089 42.4351ZM98.7932 43.0806C99.4889 43.6024 99.8413 44.3244 99.8413 45.2978H100.648C100.648 44.0942 100.194 43.1232 99.277 42.4356L98.7932 43.0806ZM99.8413 45.2978C99.8413 45.8263 99.7323 46.2455 99.5349 46.5787C99.3383 46.9105 99.0384 47.1835 98.613 47.3962L98.9735 48.1173C99.5155 47.8463 99.9413 47.4743 100.228 46.9898C100.515 46.5067 100.648 45.9383 100.648 45.2978H99.8413ZM98.6012 47.4023C97.704 47.8883 96.3966 48.2039 94.7239 48.3633L94.8003 49.1659C96.5137 49.0027 97.9475 48.6733 98.9852 48.1112L98.6012 47.4023ZM94.7193 48.3637L90.5672 48.8071L90.6528 49.6088L94.8049 49.1654L94.7193 48.3637ZM90.5567 48.8084C89.9126 48.8943 89.3853 49.0673 89.0188 49.2505L89.3794 49.9717C89.6579 49.8324 90.098 49.6829 90.6633 49.6076L90.5567 48.8084ZM89.0188 49.2505C88.7569 49.3815 88.5448 49.5675 88.4124 49.8246C88.2821 50.0775 88.249 50.3604 88.2733 50.6524L89.0767 50.5854C89.0608 50.3936 89.0881 50.2734 89.1291 50.1938C89.168 50.1182 89.2381 50.0423 89.3794 49.9717L89.0188 49.2505ZM88.2719 50.6189C88.2719 50.9439 88.3292 51.2559 88.4856 51.5166C88.6488 51.7887 88.8996 51.9702 89.2139 52.0559L89.4261 51.2781C89.2969 51.2429 89.2253 51.1824 89.1769 51.1018C89.1217 51.0098 89.0781 50.8583 89.0781 50.6189H88.2719ZM89.1703 52.0413C89.6762 52.2437 90.3727 52.2288 91.0979 52.1483L91.0089 51.347C90.2829 51.4276 89.77 51.4128 89.4697 51.2927L89.1703 52.0413ZM91.0786 52.1499C92.3907 52.0679 93.8604 51.8634 95.4861 51.5382L95.328 50.7477C93.7288 51.0675 92.296 51.266 91.0283 51.3453L91.0786 52.1499ZM95.4901 51.5374C97.026 51.2141 98.4419 50.8904 99.7376 50.5665L99.542 49.7844C98.2577 50.1055 96.8518 50.4268 95.324 50.7485L95.4901 51.5374ZM99.7376 50.5665C99.9608 50.5107 100.084 50.5396 100.222 50.6318L100.67 49.961C100.324 49.7307 99.9637 49.679 99.542 49.7844L99.7376 50.5665ZM100.161 50.5814C100.328 50.7487 100.45 50.9388 100.507 51.1092L101.272 50.8542C101.167 50.5409 100.967 50.2472 100.731 50.0113L100.161 50.5814ZM100.492 51.048C100.525 51.2465 100.521 51.4182 100.467 51.5798L101.232 51.8348C101.339 51.5127 101.335 51.2006 101.287 50.9154L100.492 51.048ZM100.479 51.5485C100.406 51.7174 100.298 51.8021 100.157 51.8489L100.412 52.6138C100.755 52.4994 101.05 52.2615 101.22 51.8661L100.479 51.5485ZM100.151 51.8512C99.4838 52.0866 98.7766 52.2831 97.9886 52.4407L98.1467 53.2313C98.9711 53.0664 99.7152 52.8599 100.419 52.6115L100.151 51.8512ZM97.9743 52.4439C97.1381 52.643 96.3006 52.8026 95.4526 52.9641L95.6034 53.7561C96.4485 53.5951 97.3041 53.4322 98.161 53.2282L97.9743 52.4439ZM95.4559 52.9635C94.5655 53.1254 93.6959 53.2832 92.8695 53.3619L92.946 54.1645C93.8126 54.082 94.7168 53.9173 95.6001 53.7567L95.4559 52.9635ZM92.8356 53.3666C91.9656 53.5248 91.2246 53.602 90.5294 53.602V54.4082C91.2853 54.4082 92.0762 54.3241 92.9799 54.1598L92.8356 53.3666ZM90.5057 53.6026C89.1788 53.6807 88.3076 53.4381 87.7817 52.9451L87.2303 53.5332C87.9943 54.2495 89.1387 54.4907 90.553 54.4075L90.5057 53.6026ZM87.7622 52.928C87.1557 52.4285 86.848 51.8391 86.7784 51.1431L85.9761 51.2234C86.0678 52.1399 86.4857 52.9211 87.2497 53.5503L87.7622 52.928ZM86.7776 51.1362C86.625 49.8387 86.9015 48.9985 87.5563 48.4747L87.0526 47.8451C86.0949 48.6113 85.8071 49.7866 85.9769 51.2304L86.7776 51.1362ZM87.5519 48.4781C88.2119 47.9647 89.067 47.6258 90.0515 47.5122L89.9591 46.7113C88.8474 46.8396 87.8481 47.2263 87.0569 47.8417L87.5519 48.4781ZM90.0458 47.5129L94.8428 47.0291L94.7619 46.227L89.9649 46.7107L90.0458 47.5129ZM94.8345 47.0299C95.8456 46.949 96.6694 46.8251 97.2993 46.5551L96.9817 45.8141C96.4829 46.0279 95.7748 46.1458 94.7702 46.2262L94.8345 47.0299ZM97.2852 46.5609C97.5781 46.4482 97.8417 46.2992 98.0351 46.0915C98.2379 45.8737 98.3498 45.6052 98.3498 45.2978H97.5436C97.5436 45.3934 97.5144 45.4676 97.4451 45.5421C97.3664 45.6265 97.2269 45.7195 96.9958 45.8084L97.2852 46.5609ZM98.3498 45.2978C98.3498 44.8614 98.1813 44.4785 97.8689 44.1662L97.2988 44.7363C97.4702 44.9076 97.5436 45.0892 97.5436 45.2978H98.3498ZM97.8182 44.1232C97.4389 43.8523 96.8983 43.7256 96.2133 43.7256V44.5318C96.8183 44.5318 97.1645 44.6471 97.3496 44.7792L97.8182 44.1232ZM96.1874 43.7264L88.0445 44.2505L88.0962 45.0551L96.2392 44.531L96.1874 43.7264ZM87.9913 44.2575C87.8106 44.2936 87.7089 44.2929 87.6527 44.2821C87.6133 44.2745 87.5981 44.2637 87.5789 44.2397L86.9493 44.7433C87.0914 44.9209 87.2777 45.031 87.5004 45.0738C87.7062 45.1134 87.927 45.0925 88.1494 45.0481L87.9913 44.2575ZM87.5159 44.1767C87.4609 44.1327 87.385 44.0106 87.385 43.6853H86.5788C86.5788 44.0856 86.6642 44.5278 87.0123 44.8063L87.5159 44.1767ZM87.385 43.6853C87.385 43.4249 87.4499 43.2634 87.5492 43.1641L86.9791 42.594C86.6752 42.8978 86.5788 43.3007 86.5788 43.6853H87.385ZM87.5492 43.1641C87.6182 43.095 87.7494 43.0319 88.1175 42.9501L87.9426 42.163C87.585 42.2425 87.2325 42.3406 86.9791 42.594L87.5492 43.1641ZM88.058 42.9587L92.6938 42.6362L92.6379 41.8319L88.0021 42.1544L88.058 42.9587ZM93.057 42.1363C93.031 42.0326 93.0287 41.9247 93.0287 41.6697H92.2224C92.2224 41.8984 92.2201 42.113 92.2748 42.3318L93.057 42.1363ZM93.0287 41.6697V39.7751H92.2224V41.6697H93.0287ZM92.6044 39.3725L84.1792 39.8159L84.2216 40.621L92.6467 40.1776L92.6044 39.3725ZM84.1214 39.8232C83.9407 39.8593 83.839 39.8586 83.7827 39.8478C83.7434 39.8403 83.7281 39.8294 83.709 39.8054L83.0794 40.3091C83.2215 40.4867 83.4078 40.5967 83.6305 40.6395C83.8363 40.6791 84.0571 40.6583 84.2795 40.6138L84.1214 39.8232ZM83.646 39.7425C83.5826 39.6918 83.5151 39.5992 83.5151 39.2913H82.7089C82.7089 39.7091 82.8026 40.1002 83.1424 40.372L83.646 39.7425ZM83.5151 39.2913C83.5151 39.031 83.5799 38.8694 83.6792 38.7701L83.1092 38.2C82.8053 38.5039 82.7089 38.9067 82.7089 39.2913H83.5151ZM83.6792 38.7701C83.7667 38.6826 83.927 38.587 84.2476 38.5158L84.0727 37.7288C83.6676 37.8188 83.3442 37.965 83.1092 38.2L83.6792 38.7701ZM84.1829 38.5248L102.001 37.517L101.955 36.712L84.1374 37.7198L84.1829 38.5248ZM101.978 37.5176C102.288 37.5176 102.446 37.5618 102.532 37.6308L103.036 37.0013C102.719 36.7478 102.313 36.7114 101.978 36.7114V37.5176ZM102.469 37.5679C102.58 37.7059 102.663 37.901 102.663 38.1223H103.469C103.469 37.6986 103.311 37.3294 103.099 37.0642L102.469 37.5679ZM102.663 38.1223C102.663 38.4013 102.57 38.5727 102.499 38.6435L103.069 39.2136C103.321 38.9618 103.469 38.5689 103.469 38.1223H102.663ZM102.499 38.6435C102.391 38.7511 102.263 38.8076 102.018 38.8076V39.6138C102.419 39.6138 102.774 39.509 103.069 39.2136L102.499 38.6435ZM101.995 38.8082L94.9005 39.2113L94.9462 40.0163L102.041 39.6132L101.995 38.8082ZM116.068 27.7219L116.314 27.4024L116.301 27.3926L116.288 27.3839L116.068 27.7219ZM117.116 29.3747L116.724 29.467L116.797 29.7778H117.116V29.3747ZM117.197 29.3747V29.7778H117.212L117.228 29.7766L117.197 29.3747ZM122.921 28.9312L122.952 29.3331L123.324 29.3043V28.9312H122.921ZM123.163 27.1172L122.827 26.8936L122.82 26.9051L122.813 26.9172L123.163 27.1172ZM124.896 27.1172L125.246 26.9172L125.22 26.8703L125.181 26.8322L124.896 27.1172ZM124.896 40.3394L125.181 40.6245L125.197 40.6087L125.211 40.5912L124.896 40.3394ZM123.163 40.3394L123.498 40.1158L123.489 40.1013L123.478 40.0876L123.163 40.3394ZM122.921 35.1795H123.324V34.7474L122.893 34.7774L122.921 35.1795ZM118.285 35.502L118.257 35.0999L118.231 35.1017L118.206 35.1067L118.285 35.502ZM117.479 35.3408L117.794 35.089L117.766 35.054L117.731 35.026L117.479 35.3408ZM118.245 33.4058L118.214 33.0039L118.185 33.0061L118.157 33.0123L118.245 33.4058ZM122.921 33.043L122.952 33.4449L123.324 33.4161V33.043H122.921ZM122.921 31.0677H123.324V30.6322L122.89 30.6658L122.921 31.0677ZM117.197 31.5112V31.9143H117.212L117.228 31.9131L117.197 31.5112ZM117.076 31.5112V31.1081H116.779L116.691 31.3909L117.076 31.5112ZM115.947 33.043L116.174 33.3761L116.177 33.3745L115.947 33.043ZM112.077 34.4136L112.142 34.8115L112.153 34.8096L112.077 34.4136ZM109.618 34.8167L109.553 34.4189L109.542 34.4208L109.531 34.4232L109.618 34.8167ZM107.965 35.3408L107.785 34.9802L107.771 34.9871L107.758 34.9951L107.965 35.3408ZM108.006 37.6385L108.186 37.278L108.165 37.2676L108.143 37.2597L108.006 37.6385ZM113.932 37.5982L113.869 37.1998L113.859 37.2016L113.932 37.5982ZM117.6 36.5501L117.759 36.9206L117.77 36.916L117.78 36.9107L117.6 36.5501ZM118.487 36.4695L118.667 36.1089L118.634 36.0922L118.597 36.0819L118.487 36.4695ZM119.091 37.1145L119.482 37.0167L119.472 36.9738L119.452 36.9342L119.091 37.1145ZM119.051 37.961L119.387 38.1846L119.4 38.1638L119.412 38.1413L119.051 37.961ZM118.285 38.5254L118.144 38.1479L118.129 38.1535L118.115 38.1601L118.285 38.5254ZM114.335 39.6944L114.401 40.0921L114.403 40.0918L114.335 39.6944ZM106.313 39.2107L106.544 38.8803L106.532 38.8727L106.313 39.2107ZM106.071 33.8492L105.829 33.5268L105.823 33.5314L105.817 33.5364L106.071 33.8492ZM109.175 32.7608L109.111 32.3629L109.108 32.3632L109.175 32.7608ZM111.674 32.3577L111.738 32.7557L111.74 32.7553L111.674 32.3577ZM114.052 31.6321L113.872 31.2714L113.863 31.2764L114.052 31.6321ZM114.335 29.3343L114.515 28.9738L114.5 28.9663L114.484 28.9601L114.335 29.3343ZM109.457 29.294L109.518 29.6925L109.521 29.6921L109.457 29.294ZM106.837 29.8987L106.709 29.5163L106.698 29.52L106.687 29.5244L106.837 29.8987ZM105.95 29.9793L106.157 29.6337L106.119 29.6109L106.077 29.5969L105.95 29.9793ZM105.506 29.3343L105.897 29.2366L105.887 29.1936L105.867 29.1541L105.506 29.3343ZM105.506 28.4475L105.171 28.2239L105.163 28.2354L105.156 28.2475L105.506 28.4475ZM106.474 27.8025L106.346 27.4201L106.332 27.4247L106.319 27.4304L106.474 27.8025ZM109.215 27.1575L109.156 26.7586L109.144 26.7607L109.215 27.1575ZM122.316 43.7659L122.601 43.4809L122.566 43.4458L122.524 43.4202L122.316 43.7659ZM121.55 43.5644V43.1612H121.519L121.488 43.1662L121.55 43.5644ZM109.538 45.459L109.475 45.0608L109.442 45.066L109.41 45.0766L109.538 45.459ZM108.489 45.4187L108.741 45.1039L108.708 45.0772L108.67 45.0581L108.489 45.4187ZM108.449 43.8465L108.734 44.1316L108.734 44.1316L108.449 43.8465ZM109.497 43.3628L109.434 42.9646L109.417 42.9674L109.399 42.9717L109.497 43.3628ZM121.51 41.4681L121.449 41.0697L121.447 41.07L121.51 41.4681ZM123.969 41.9922L124.243 41.6968L124.238 41.6913L124.231 41.6861L123.969 41.9922ZM124.533 49.8127L124.819 50.0977L124.834 50.0819L124.848 50.0645L124.533 49.8127ZM122.8 49.8127L123.135 49.589L123.126 49.5745L123.115 49.5608L122.8 49.8127ZM112.561 27.3188C114.051 27.3188 115.133 27.5947 115.848 28.0599L116.288 27.3839C115.391 26.801 114.134 26.5125 112.561 26.5125V27.3188ZM115.822 28.0414C116.27 28.3857 116.583 28.8685 116.724 29.467L117.509 29.2823C117.327 28.5102 116.914 27.8643 116.314 27.4024L115.822 28.0414ZM117.116 29.7778H117.197V28.9715H117.116V29.7778ZM117.228 29.7766L122.952 29.3331L122.89 28.5293L117.166 28.9727L117.228 29.7766ZM123.324 28.9312V28.2056H122.518V28.9312H123.324ZM123.324 28.2056C123.324 27.8078 123.397 27.5203 123.513 27.3172L122.813 26.9172C122.606 27.2785 122.518 27.7165 122.518 28.2056H123.324ZM123.498 27.3408C123.558 27.2514 123.684 27.1575 124.009 27.1575V26.3513C123.528 26.3513 123.09 26.4993 122.827 26.8936L123.498 27.3408ZM124.009 27.1575C124.266 27.1575 124.445 27.2361 124.611 27.4023L125.181 26.8322C124.864 26.5145 124.479 26.3513 124.009 26.3513V27.1575ZM124.546 27.3172C124.676 27.5441 124.775 27.8385 124.775 28.2056H125.582C125.582 27.6858 125.439 27.2547 125.246 26.9172L124.546 27.3172ZM124.775 28.2056V39.2913H125.582V28.2056H124.775ZM124.775 39.2913C124.775 39.72 124.666 39.9816 124.582 40.0876L125.211 40.5912C125.449 40.2942 125.582 39.8301 125.582 39.2913H124.775ZM124.611 40.0544C124.468 40.1975 124.303 40.2588 124.009 40.2588V41.065C124.441 41.065 124.841 40.965 125.181 40.6245L124.611 40.0544ZM124.009 40.2588C123.638 40.2588 123.542 40.181 123.498 40.1158L122.827 40.563C123.107 40.9816 123.574 41.065 124.009 41.065V40.2588ZM123.478 40.0876C123.407 39.9995 123.324 39.7579 123.324 39.2913H122.518C122.518 39.7923 122.596 40.2762 122.848 40.5912L123.478 40.0876ZM123.324 39.2913V35.1795H122.518V39.2913H123.324ZM122.893 34.7774L118.257 35.0999L118.313 35.9042L122.949 35.5817L122.893 34.7774ZM118.206 35.1067C118.025 35.1429 117.924 35.1422 117.867 35.1314C117.828 35.1238 117.813 35.1129 117.794 35.089L117.164 35.5926C117.306 35.7702 117.493 35.8803 117.715 35.9231C117.921 35.9627 118.142 35.9418 118.364 35.8973L118.206 35.1067ZM117.731 35.026C117.676 34.982 117.6 34.8599 117.6 34.5345H116.794C116.794 34.9348 116.879 35.3771 117.227 35.6556L117.731 35.026ZM117.6 34.5345C117.6 34.2742 117.665 34.1127 117.764 34.0134L117.194 33.4433C116.89 33.7471 116.794 34.1499 116.794 34.5345H117.6ZM117.764 34.0134C117.833 33.9443 117.964 33.8811 118.332 33.7993L118.157 33.0123C117.8 33.0918 117.447 33.1898 117.194 33.4433L117.764 34.0134ZM118.276 33.8077L122.952 33.4449L122.89 32.6411L118.214 33.0039L118.276 33.8077ZM123.324 33.043V31.0677H122.518V33.043H123.324ZM122.89 30.6658L117.166 31.1093L117.228 31.9131L122.952 31.4697L122.89 30.6658ZM117.197 31.1081H117.076V31.9143H117.197V31.1081ZM116.691 31.3909C116.517 31.9468 116.171 32.3978 115.718 32.7116L116.177 33.3745C116.772 32.9626 117.231 32.3655 117.461 31.6314L116.691 31.3909ZM115.72 32.7099C114.901 33.2687 113.674 33.699 112.002 34.0176L112.153 34.8096C113.866 34.4832 115.22 34.0267 116.174 33.3761L115.72 32.7099ZM112.012 34.0158L109.553 34.4189L109.683 35.2145L112.142 34.8114L112.012 34.0158ZM109.531 34.4232C108.795 34.5867 108.233 34.7565 107.785 34.9802L108.146 35.7013C108.504 35.522 108.99 35.3692 109.706 35.2102L109.531 34.4232ZM107.758 34.9951C107.514 35.1416 107.307 35.3269 107.164 35.5697C107.021 35.8139 106.958 36.089 106.958 36.3889H107.764C107.764 36.2051 107.801 36.077 107.859 35.9785C107.918 35.8787 108.014 35.7818 108.173 35.6864L107.758 34.9951ZM106.958 36.3889C106.958 37.0969 107.184 37.7688 107.868 38.0174L108.143 37.2597C107.94 37.1858 107.764 36.9709 107.764 36.3889H106.958ZM107.825 37.9991C108.323 38.2478 109.097 38.3238 110.021 38.3238V37.5176C109.091 37.5176 108.495 37.4324 108.186 37.278L107.825 37.9991ZM110.021 38.3238C111.328 38.3238 112.643 38.2422 114.004 37.9948L113.859 37.2016C112.559 37.438 111.294 37.5176 110.021 37.5176V38.3238ZM113.994 37.9965C115.317 37.7898 116.599 37.4178 117.759 36.9206L117.441 36.1796C116.344 36.65 115.126 37.0035 113.869 37.1999L113.994 37.9965ZM117.78 36.9107C118.001 36.8005 118.177 36.8003 118.376 36.8571L118.597 36.0819C118.232 35.9775 117.844 35.9773 117.42 36.1896L117.78 36.9107ZM118.306 36.8301C118.458 36.906 118.602 37.0375 118.731 37.2948L119.452 36.9342C119.258 36.5465 118.999 36.2748 118.667 36.1089L118.306 36.8301ZM118.7 37.2123C118.769 37.4864 118.751 37.6589 118.691 37.7808L119.412 38.1413C119.593 37.7794 119.575 37.3876 119.482 37.0167L118.7 37.2123ZM118.716 37.7374C118.613 37.8915 118.409 38.0483 118.144 38.1479L118.427 38.9028C118.806 38.7606 119.167 38.5144 119.387 38.1846L118.716 37.7374ZM118.115 38.1601C116.947 38.7049 115.654 39.0593 114.267 39.2971L114.403 40.0918C115.837 39.8459 117.204 39.4747 118.456 38.8907L118.115 38.1601ZM114.268 39.2968C112.838 39.5351 111.409 39.6541 110.021 39.6541V40.4604C111.455 40.4604 112.928 40.3375 114.401 40.0921L114.268 39.2968ZM110.021 39.6541C108.36 39.6541 107.25 39.3749 106.544 38.8804L106.081 39.5409C106.988 40.1752 108.296 40.4604 110.021 40.4604V39.6541ZM106.532 38.8727C105.883 38.4508 105.506 37.6833 105.506 36.3889H104.7C104.7 37.8357 105.13 38.9225 106.093 39.5487L106.532 38.8727ZM105.506 36.3889C105.506 35.2895 105.808 34.5821 106.325 34.1621L105.817 33.5364C105.043 34.1645 104.7 35.1502 104.7 36.3889H105.506ZM106.313 34.1717C106.881 33.7454 107.813 33.3964 109.241 33.1585L109.108 32.3632C107.634 32.609 106.55 32.9856 105.829 33.5268L106.313 34.1717ZM109.239 33.1588L111.738 32.7557L111.61 31.9597L109.111 32.3629L109.239 33.1588ZM111.74 32.7553C112.732 32.5901 113.585 32.3384 114.242 31.9878L113.863 31.2764C113.311 31.5708 112.551 31.8028 111.608 31.9601L111.74 32.7553ZM114.233 31.9927C114.901 31.6586 115.342 31.0927 115.342 30.3421H114.536C114.536 30.7203 114.333 31.0412 113.872 31.2715L114.233 31.9927ZM115.342 30.3421C115.342 30.0436 115.28 29.7659 115.133 29.5235C114.986 29.2803 114.771 29.1018 114.515 28.9738L114.154 29.6949C114.301 29.7685 114.389 29.852 114.443 29.9414C114.498 30.0316 114.536 30.157 114.536 30.3421H115.342ZM114.484 28.9601C114.023 28.7755 113.365 28.649 112.561 28.649V29.4553C113.289 29.4553 113.84 29.5707 114.185 29.7086L114.484 28.9601ZM112.561 28.649C111.492 28.649 110.423 28.7312 109.393 28.896L109.521 29.6921C110.506 29.5344 111.533 29.4553 112.561 29.4553V28.649ZM109.396 28.8956C108.33 29.0596 107.461 29.2658 106.709 29.5163L106.964 30.2811C107.664 30.0479 108.488 29.851 109.518 29.6925L109.396 28.8956ZM106.687 29.5244C106.281 29.6869 106.174 29.644 106.157 29.6337L105.742 30.325C106.128 30.5565 106.586 30.433 106.986 30.273L106.687 29.5244ZM106.077 29.5969C106.062 29.5918 106.04 29.5813 106.008 29.5311C105.971 29.4733 105.933 29.3803 105.897 29.2366L105.115 29.4321C105.198 29.7641 105.363 30.2085 105.822 30.3618L106.077 29.5969ZM105.867 29.1541C105.807 29.0348 105.789 28.9454 105.789 28.8758C105.789 28.8087 105.806 28.7358 105.856 28.6475L105.156 28.2475C105.046 28.4413 104.982 28.6507 104.982 28.8758C104.982 29.0984 105.044 29.3113 105.146 29.5146L105.867 29.1541ZM105.842 28.6711C105.931 28.5368 106.153 28.373 106.629 28.1746L106.319 27.4304C105.827 27.6351 105.404 27.8744 105.171 28.2239L105.842 28.6711ZM106.601 28.1849C107.3 27.9522 108.164 27.7546 109.286 27.5544L109.144 26.7607C108.008 26.9635 107.099 27.1691 106.346 27.4201L106.601 28.1849ZM109.274 27.5563C110.342 27.3981 111.451 27.3188 112.561 27.3188V26.5125C111.413 26.5125 110.265 26.5945 109.156 26.7588L109.274 27.5563ZM122.961 44.4512C122.961 44.0487 122.855 43.7348 122.601 43.4809L122.031 44.051C122.1 44.1195 122.155 44.2087 122.155 44.4512H122.961ZM122.524 43.4202C122.261 43.2625 121.948 43.1612 121.55 43.1612V43.9675C121.798 43.9675 121.969 44.0274 122.109 44.1116L122.524 43.4202ZM121.488 43.1662L109.475 45.0608L109.6 45.8572L121.613 43.9625L121.488 43.1662ZM109.41 45.0766C108.979 45.2202 108.785 45.1392 108.741 45.1039L108.238 45.7335C108.597 46.0207 109.128 46.0203 109.665 45.8414L109.41 45.0766ZM108.67 45.0581C108.611 45.029 108.53 44.9641 108.53 44.6931H107.724C107.724 45.1477 107.884 45.5665 108.309 45.7792L108.67 45.0581ZM108.53 44.6931C108.53 44.4469 108.587 44.2786 108.734 44.1316L108.164 43.5615C107.827 43.8982 107.724 44.2943 107.724 44.6931H108.53ZM108.734 44.1316C108.855 44.0104 109.128 43.8706 109.595 43.7539L109.399 42.9717C108.899 43.0969 108.446 43.2795 108.164 43.5615L108.734 44.1316ZM109.56 43.761L121.573 41.8663L121.447 41.07L109.434 42.9646L109.56 43.761ZM121.571 41.8666C122.542 41.7173 123.258 41.9132 123.707 42.2983L124.231 41.6861C123.552 41.1037 122.574 40.8965 121.449 41.0697L121.571 41.8666ZM123.695 42.2876C124.146 42.7069 124.413 43.3845 124.413 44.4512H125.219C125.219 43.2604 124.921 42.3256 124.243 41.6968L123.695 42.2876ZM124.413 44.4512V48.7646H125.219V44.4512H124.413ZM124.413 48.7646C124.413 49.1932 124.304 49.4548 124.219 49.5608L124.848 50.0645C125.086 49.7674 125.219 49.3034 125.219 48.7646H124.413ZM124.248 49.5276C124.105 49.6708 123.94 49.732 123.647 49.732V50.5383C124.079 50.5383 124.478 50.4383 124.819 50.0977L124.248 49.5276ZM123.647 49.732C123.276 49.732 123.179 49.6542 123.135 49.589L122.465 50.0363C122.744 50.4549 123.211 50.5383 123.647 50.5383V49.732ZM123.115 49.5608C123.044 49.4727 122.961 49.2311 122.961 48.7646H122.155C122.155 49.2655 122.233 49.7495 122.485 50.0645L123.115 49.5608ZM122.961 48.7646V44.4512H122.155V48.7646H122.961ZM130.363 36.9936L130.311 36.5938L130.293 36.5961L130.275 36.6L130.363 36.9936ZM129.516 36.792L129.801 36.507L129.773 36.4787L129.74 36.4566L129.516 36.792ZM129.154 36.1067H129.557V36.0733L129.551 36.0404L129.154 36.1067ZM129.355 35.3408L129.02 35.1172L129.02 35.1172L129.355 35.3408ZM130.202 34.8974L130.15 34.4975L130.136 34.4993L130.123 34.5021L130.202 34.8974ZM144.593 33.043V32.6399H144.567L144.541 32.6432L144.593 33.043ZM145.319 33.2849L145.633 33.0331L145.605 32.9981L145.57 32.9701L145.319 33.2849ZM145.681 33.9702H146.084V33.9048L146.064 33.8427L145.681 33.9702ZM145.52 34.7361L145.856 34.9597L145.869 34.9388L145.881 34.9164L145.52 34.7361ZM144.714 35.1392V34.7361H144.688L144.662 34.7394L144.714 35.1392ZM131.895 31.9949L131.84 31.5955L131.818 31.5985L131.797 31.6038L131.895 31.9949ZM131.089 31.7934L131.374 31.5083L131.345 31.4801L131.312 31.4579L131.089 31.7934ZM130.726 31.1081H131.129V31.0426L131.108 30.9806L130.726 31.1081ZM130.887 30.3824L131.222 30.6061L131.222 30.6061L130.887 30.3824ZM131.774 29.939L131.721 29.5394L131.711 29.5407L131.702 29.5424L131.774 29.939ZM140.925 28.7297V28.3266H140.898L140.872 28.33L140.925 28.7297ZM141.65 28.9715L141.965 28.7197L141.937 28.6847L141.902 28.6568L141.65 28.9715ZM142.013 29.6165H142.416V29.5511L142.395 29.489L142.013 29.6165ZM141.852 30.3421L142.187 30.5657L142.201 30.5449L142.212 30.5224L141.852 30.3421ZM141.046 30.7452V30.3421H141.018L140.991 30.3458L141.046 30.7452ZM139.997 40.7425L140.249 40.4278L140.242 40.422L140.235 40.4165L139.997 40.7425ZM136.168 41.2263L136.462 41.5021L136.471 41.4917L136.168 41.2263ZM135.845 45.0156L136.16 44.7637L136.139 44.738L136.115 44.7159L135.845 45.0156ZM139.756 44.5318L140.057 44.7996L140.066 44.7898L140.074 44.7793L139.756 44.5318ZM134.434 46.6683L134.681 46.3492L134.672 46.3423L134.434 46.6683ZM133.467 41.5891L133.093 41.4393L133.089 41.4475L133.467 41.5891ZM134.515 39.9363L134.8 40.2214L134.813 40.2084L134.825 40.1944L134.515 39.9363ZM136.168 38.6866L136.339 39.0515L136.348 39.0472L136.168 38.6866ZM141.61 39.4526L141.909 39.1821L141.902 39.1746L141.895 39.1675L141.61 39.4526ZM142.376 44.29L142.736 44.4702L142.746 44.4513L142.753 44.4315L142.376 44.29ZM141.166 46.0234L140.881 45.7383L140.876 45.744L140.87 45.7499L141.166 46.0234ZM139.433 47.2327L139.271 46.8633L139.261 46.868L139.433 47.2327ZM150.68 38.2835L150.278 38.3094L150.302 38.6866H150.68V38.2835ZM156.283 38.5657L156.619 38.3421L156.584 38.29L156.535 38.2509L156.283 38.5657ZM156.283 40.1782L156.535 40.493L156.553 40.479L156.568 40.4632L156.283 40.1782ZM150.841 40.42V40.0169H150.411L150.439 40.4466L150.841 40.42ZM151.365 48.3614H151.768V48.3482L151.768 48.3349L151.365 48.3614ZM151.123 49.4095L151.433 49.6677L151.438 49.6614L151.123 49.4095ZM149.471 49.4499L149.806 49.2262L149.774 49.1776L149.729 49.1402L149.471 49.4499ZM149.108 48.4017H149.511V48.3888L149.51 48.3759L149.108 48.4017ZM147.858 28.9312L148.26 28.9054L148.259 28.8821L148.255 28.8591L147.858 28.9312ZM148.019 27.8428L148.348 28.0772L148.355 28.0664L148.019 27.8428ZM149.713 27.8428L150.041 27.6085L150.021 27.5814L149.998 27.5578L149.713 27.8428ZM150.075 28.8909L150.478 28.865L150.477 28.8579L150.476 28.8508L150.075 28.8909ZM130.275 36.6C130.023 36.656 129.889 36.595 129.801 36.507L129.231 37.077C129.546 37.3921 129.977 37.4923 130.45 37.3871L130.275 36.6ZM129.74 36.4566C129.616 36.3736 129.557 36.2606 129.557 36.1067H128.75C128.75 36.5172 128.933 36.8879 129.293 37.1274L129.74 36.4566ZM129.551 36.0404C129.532 35.9271 129.569 35.7474 129.691 35.5644L129.02 35.1172C128.819 35.4178 128.694 35.8026 128.756 36.173L129.551 36.0404ZM129.691 35.5644C129.758 35.4632 129.9 35.3689 130.281 35.2926L130.123 34.5021C129.698 34.5871 129.275 34.7346 129.02 35.1172L129.691 35.5644ZM130.253 35.2972L144.644 33.4428L144.541 32.6432L130.15 34.4975L130.253 35.2972ZM144.593 33.4461C144.793 33.4461 144.943 33.501 145.067 33.5997L145.57 32.9701C145.291 32.7462 144.958 32.6399 144.593 32.6399V33.4461ZM145.004 33.5367C145.13 33.6941 145.23 33.8915 145.299 34.0977L146.064 33.8427C145.971 33.5651 145.83 33.2788 145.633 33.0331L145.004 33.5367ZM145.278 33.9702C145.278 34.2102 145.245 34.3857 145.16 34.5558L145.881 34.9164C146.037 34.6028 146.084 34.2946 146.084 33.9702H145.278ZM145.185 34.5125C145.103 34.6357 144.95 34.7361 144.714 34.7361V35.5423C145.203 35.5423 145.615 35.3203 145.856 34.9597L145.185 34.5125ZM144.662 34.7394L130.311 36.5938L130.415 37.3933L144.766 35.539L144.662 34.7394ZM131.797 31.6038C131.602 31.6526 131.468 31.6026 131.374 31.5083L130.803 32.0784C131.112 32.3872 131.543 32.4984 131.993 32.386L131.797 31.6038ZM131.312 31.4579C131.188 31.375 131.129 31.2619 131.129 31.1081H130.323C130.323 31.5186 130.506 31.8892 130.865 32.1288L131.312 31.4579ZM131.108 30.9806C131.086 30.9128 131.089 30.8064 131.222 30.6061L130.552 30.1588C130.363 30.4423 130.205 30.8195 130.343 31.2355L131.108 30.9806ZM131.222 30.6061C131.287 30.509 131.423 30.4125 131.846 30.3356L131.702 29.5424C131.238 29.6268 130.809 29.7721 130.552 30.1588L131.222 30.6061ZM131.827 30.3387L140.977 29.1293L140.872 28.33L131.721 29.5394L131.827 30.3387ZM140.925 29.1328C141.124 29.1328 141.275 29.1877 141.398 29.2863L141.902 28.6568C141.622 28.4329 141.289 28.3266 140.925 28.3266V29.1328ZM141.335 29.2234C141.474 29.3972 141.568 29.5574 141.631 29.744L142.395 29.489C142.296 29.1919 142.148 28.949 141.965 28.7197L141.335 29.2234ZM141.61 29.6165C141.61 29.8112 141.578 29.9883 141.491 30.1619L142.212 30.5224C142.367 30.2122 142.416 29.9056 142.416 29.6165H141.61ZM141.516 30.1185C141.434 30.2417 141.282 30.3421 141.046 30.3421V31.1484C141.535 31.1484 141.947 30.9263 142.187 30.5657L141.516 30.1185ZM140.991 30.3458L131.84 31.5955L131.949 32.3943L141.1 31.1447L140.991 30.3458ZM141.046 42.1938C141.046 41.4374 140.756 40.8334 140.249 40.4278L139.746 41.0573C140.045 41.2966 140.239 41.6601 140.239 42.1938H141.046ZM140.235 40.4165C139.713 40.0371 139.103 39.8557 138.385 39.8557V40.6619C138.957 40.6619 139.395 40.803 139.76 41.0686L140.235 40.4165ZM138.385 39.8557C137.393 39.8557 136.512 40.2206 135.864 40.9608L136.471 41.4917C136.952 40.942 137.604 40.6619 138.385 40.6619V39.8557ZM135.874 40.9506C135.198 41.6716 134.878 42.5366 134.878 43.4434H135.684C135.684 42.7378 135.928 42.071 136.462 41.502L135.874 40.9506ZM134.878 43.4434C134.878 44.1877 135.054 44.8455 135.576 45.3152L136.115 44.7159C135.831 44.46 135.684 44.0697 135.684 43.4434H134.878ZM135.531 45.2674C135.953 45.7953 136.612 46.0234 137.337 46.0234V45.2171C136.771 45.2171 136.383 45.042 136.16 44.7637L135.531 45.2674ZM137.337 46.0234C138.42 46.0234 139.336 45.611 140.057 44.7996L139.454 44.264C138.885 44.9039 138.189 45.2171 137.337 45.2171V46.0234ZM140.074 44.7793C140.678 44.0024 141.046 43.1518 141.046 42.1938H140.239C140.239 42.9288 139.962 43.61 139.437 44.2843L140.074 44.7793ZM137.297 47.273C136.342 47.273 135.501 46.9832 134.681 46.3494L134.188 46.9873C135.141 47.7241 136.154 48.0793 137.297 48.0793V47.273ZM134.672 46.3423C133.924 45.7986 133.507 44.8563 133.507 43.4837H132.701C132.701 45.0136 133.171 46.2481 134.197 46.9944L134.672 46.3423ZM133.507 43.4837C133.507 42.9321 133.618 42.335 133.844 41.7306L133.089 41.4475C132.832 42.1332 132.701 42.826 132.701 43.4837H133.507ZM133.841 41.7388C134.069 41.1688 134.365 40.6559 134.8 40.2214L134.23 39.6513C133.697 40.1841 133.348 40.8 133.093 41.4394L133.841 41.7388ZM134.825 40.1944C135.188 39.7583 135.704 39.3502 136.339 39.0514L135.996 38.3219C135.261 38.6681 134.648 39.1469 134.205 39.6782L134.825 40.1944ZM136.348 39.0472C136.931 38.7559 137.594 38.606 138.345 38.606V37.7998C137.483 37.7998 136.695 37.9724 135.988 38.3261L136.348 39.0472ZM138.345 38.606C139.621 38.606 140.603 39.0157 141.325 39.7376L141.895 39.1675C141.004 38.277 139.809 37.7998 138.345 37.7998V38.606ZM141.311 39.723C142.023 40.5103 142.376 41.3445 142.376 42.2341H143.182C143.182 41.108 142.728 40.088 141.909 39.1821L141.311 39.723ZM142.376 42.2341C142.376 42.8993 142.228 43.5358 141.998 44.1484L142.753 44.4315C143.007 43.7541 143.182 43.0201 143.182 42.2341H142.376ZM142.015 44.1097C141.707 44.7267 141.327 45.2927 140.881 45.7383L141.451 46.3084C141.973 45.7865 142.4 45.1432 142.736 44.4702L142.015 44.1097ZM140.87 45.7499C140.43 46.2272 139.873 46.6001 139.271 46.8634L139.595 47.602C140.283 47.301 140.936 46.8677 141.463 46.2968L140.87 45.7499ZM139.261 46.868C138.642 47.1596 137.977 47.273 137.297 47.273V48.0793C138.067 48.0793 138.854 47.9508 139.605 47.5975L139.261 46.868ZM150.68 38.6866H155.477V37.8804H150.68V38.6866ZM155.477 38.6866C155.698 38.6866 155.894 38.7701 156.031 38.8805L156.535 38.2509C156.27 38.0388 155.901 37.8804 155.477 37.8804V38.6866ZM155.948 38.7893C156.081 38.9897 156.162 39.1946 156.162 39.4123H156.969C156.969 38.9849 156.808 38.6254 156.619 38.3421L155.948 38.7893ZM156.162 39.4123C156.162 39.6753 156.079 39.8124 155.998 39.8931L156.568 40.4632C156.81 40.2214 156.969 39.8748 156.969 39.4123H156.162ZM156.031 39.8634C155.922 39.9512 155.738 40.0169 155.477 40.0169V40.8232C155.861 40.8232 156.242 40.7277 156.535 40.493L156.031 39.8634ZM155.477 40.0169H150.841V40.8232H155.477V40.0169ZM150.439 40.4466L150.963 48.388L151.768 48.3349L151.243 40.3935L150.439 40.4466ZM150.962 48.3614C150.962 48.828 150.879 49.0696 150.809 49.1577L151.438 49.6614C151.69 49.3464 151.768 48.8624 151.768 48.3614H150.962ZM150.814 49.1515C150.701 49.2869 150.54 49.3692 150.277 49.3692V50.1755C150.739 50.1755 151.143 50.016 151.433 49.6676L150.814 49.1515ZM150.277 49.3692C149.955 49.3692 149.852 49.2957 149.806 49.2262L149.135 49.6735C149.411 50.0878 149.873 50.1755 150.277 50.1755V49.3692ZM149.729 49.1402C149.622 49.0514 149.511 48.837 149.511 48.4017H148.705C148.705 48.934 148.835 49.4452 149.213 49.7595L149.729 49.1402ZM149.51 48.3759L148.26 28.9054L147.456 28.957L148.706 48.4276L149.51 48.3759ZM148.255 28.8591C148.184 28.4712 148.234 28.2354 148.347 28.0771L147.691 27.6085C147.401 28.0146 147.371 28.5044 147.462 29.0033L148.255 28.8591ZM148.355 28.0664C148.414 27.977 148.541 27.8831 148.866 27.8831V27.0769C148.385 27.0769 147.947 27.2249 147.684 27.6192L148.355 28.0664ZM148.866 27.8831C149.075 27.8831 149.256 27.9565 149.427 28.1279L149.998 27.5578C149.685 27.2454 149.302 27.0769 148.866 27.0769V27.8831ZM149.384 28.0771C149.536 28.2894 149.639 28.5806 149.674 28.931L150.476 28.8508C150.431 28.395 150.292 27.9606 150.041 27.6085L149.384 28.0771ZM149.673 28.9168L150.278 38.3094L151.082 38.2576L150.478 28.865L149.673 28.9168ZM159.184 36.0261L159.14 35.6254L159.122 35.6274L159.105 35.6308L159.184 36.0261ZM158.257 35.8648L158.542 35.5798L158.514 35.5516L158.481 35.5294L158.257 35.8648ZM157.854 35.1795H158.257V35.1141L158.236 35.0521L157.854 35.1795ZM158.015 34.3733L157.68 34.1497L157.672 34.1612L157.665 34.1733L158.015 34.3733ZM158.862 33.8896L158.802 33.4909L158.792 33.4924L158.783 33.4943L158.862 33.8896ZM161.361 33.5671L161.397 33.9685L161.399 33.9684L161.361 33.5671ZM163.86 33.3655L163.847 32.9626L163.834 32.9631L163.82 32.9644L163.86 33.3655ZM166.682 33.8492L166.906 33.5138L166.893 33.5054L166.88 33.4979L166.682 33.8492ZM167.891 35.3811L168.283 35.2833L168.279 35.2683L168.274 35.2536L167.891 35.3811ZM167.932 37.4773L168.322 37.5799L168.324 37.5723L168.325 37.5647L167.932 37.4773ZM167.085 39.5735L167.425 39.7899L167.431 39.7807L167.437 39.7711L167.085 39.5735ZM165.15 42.3953L165.47 42.6411L165.473 42.6372L165.15 42.3953ZM161.966 45.459L162.023 45.0599L161.994 45.0559H161.966V45.459ZM161.159 45.1365L161.444 44.8515L161.416 44.8232L161.383 44.8011L161.159 45.1365ZM160.797 44.4109H161.2V44.3544L161.184 44.3002L160.797 44.4109ZM161.159 43.524L161.445 43.8092L161.452 43.8013L161.159 43.524ZM163.457 40.9441L163.153 40.6795L163.148 40.686L163.457 40.9441ZM165.432 38.0417L165.79 38.2277L165.793 38.2219L165.432 38.0417ZM165.795 36.1067L166.178 35.9792L166.171 35.9592L166.162 35.9399L165.795 36.1067ZM163.86 35.502L163.845 35.0991L163.839 35.0995L163.86 35.502ZM161.522 35.7036L161.482 35.3025L161.472 35.3035L161.462 35.3049L161.522 35.7036ZM175.148 29.2134L175.476 29.4478L175.483 29.437L175.148 29.2134ZM176.841 29.2134L177.169 28.9791L177.149 28.952L177.126 28.9284L176.841 29.2134ZM176.841 48.4421L177.126 48.7271L177.126 48.7271L176.841 48.4421ZM175.148 48.4421L175.483 48.2185L175.461 48.1852L175.433 48.157L175.148 48.4421ZM159.105 35.6308C158.744 35.703 158.598 35.6356 158.542 35.5798L157.972 36.1499C158.319 36.4971 158.818 36.5104 159.263 36.4214L159.105 35.6308ZM158.481 35.5294C158.321 35.4232 158.257 35.2949 158.257 35.1795H157.451C157.451 35.6285 157.709 35.9839 158.033 36.2002L158.481 35.5294ZM158.236 35.0521C158.211 34.9769 158.221 34.8253 158.365 34.5733L157.665 34.1733C157.487 34.4857 157.335 34.8985 157.471 35.307L158.236 35.0521ZM158.351 34.5969C158.432 34.4754 158.599 34.3533 158.941 34.2848L158.783 33.4943C158.319 33.5871 157.921 33.7875 157.68 34.1497L158.351 34.5969ZM158.921 34.2882C159.729 34.1671 160.524 34.0479 161.397 33.9685L161.324 33.1656C160.424 33.2474 159.607 33.3701 158.802 33.4909L158.921 34.2882ZM161.399 33.9684C161.817 33.9286 162.236 33.8987 162.655 33.8684C163.072 33.8382 163.491 33.8076 163.9 33.7666L163.82 32.9644C163.423 33.0041 163.016 33.0339 162.597 33.0642C162.18 33.0944 161.751 33.1249 161.323 33.1658L161.399 33.9684ZM163.874 33.7684C165.054 33.7291 165.934 33.8909 166.485 34.2006L166.88 33.4979C166.14 33.082 165.085 32.9213 163.847 32.9626L163.874 33.7684ZM166.459 34.1847C166.995 34.5422 167.338 34.9957 167.509 35.5086L168.274 35.2536C168.042 34.5571 167.579 33.9626 166.906 33.5138L166.459 34.1847ZM167.5 35.4789C167.649 36.0717 167.684 36.7334 167.538 37.3898L168.325 37.5647C168.502 36.77 168.457 35.9805 168.283 35.2833L167.5 35.4789ZM167.542 37.3747C167.349 38.1071 167.08 38.7605 166.734 39.3759L167.437 39.7711C167.816 39.0965 168.111 38.3793 168.322 37.5799L167.542 37.3747ZM166.745 39.3571C166.184 40.2389 165.545 41.1971 164.828 42.1534L165.473 42.6372C166.207 41.6586 166.858 40.6818 167.425 39.7899L166.745 39.3571ZM164.831 42.1495C164.032 43.1875 163.278 44.0605 162.567 44.7708L163.138 45.3409C163.878 44.6001 164.656 43.6993 165.47 42.6411L164.831 42.1495ZM162.567 44.7708C162.288 45.0501 162.126 45.0747 162.023 45.0599L161.909 45.8581C162.37 45.9239 162.772 45.7066 163.138 45.3409L162.567 44.7708ZM161.966 45.0559C161.747 45.0559 161.568 44.975 161.444 44.8515L160.874 45.4216C161.154 45.7011 161.54 45.8621 161.966 45.8621V45.0559ZM161.383 44.8011C161.267 44.7238 161.2 44.616 161.2 44.4109H160.394C160.394 44.8508 160.568 45.2268 160.936 45.4719L161.383 44.8011ZM161.184 44.3002C161.165 44.2319 161.157 44.0963 161.444 43.8091L160.874 43.239C160.517 43.5968 160.267 44.0255 160.409 44.5216L161.184 44.3002ZM161.452 43.8013C162.182 43.0304 162.954 42.1774 163.767 41.2022L163.148 40.686C162.348 41.6458 161.588 42.4859 160.867 43.2468L161.452 43.8013ZM163.761 41.2086C164.589 40.2565 165.252 39.2624 165.79 38.2276L165.075 37.8557C164.565 38.8365 163.938 39.7774 163.153 40.6796L163.761 41.2086ZM165.793 38.2219C166.21 37.3877 166.391 36.6187 166.178 35.9792L165.413 36.2342C165.522 36.5622 165.461 37.0832 165.072 37.8614L165.793 38.2219ZM166.162 35.9399C165.998 35.5781 165.669 35.3595 165.281 35.2382C164.896 35.118 164.411 35.0782 163.845 35.0992L163.875 35.9049C164.398 35.8855 164.78 35.9264 165.04 36.0077C165.297 36.088 165.391 36.1919 165.428 36.2735L166.162 35.9399ZM163.839 35.0995C163.061 35.1404 162.284 35.2222 161.482 35.3025L161.562 36.1047C162.372 36.0237 163.127 35.9443 163.882 35.9046L163.839 35.0995ZM161.462 35.3049C160.654 35.4261 159.856 35.5458 159.14 35.6254L159.229 36.4267C159.963 36.3451 160.778 36.2229 161.582 36.1022L161.462 35.3049ZM175.269 30.3018C175.269 29.9019 175.342 29.6347 175.476 29.4477L174.82 28.9791C174.55 29.3565 174.462 29.8149 174.462 30.3018H175.269ZM175.483 29.437C175.526 29.3719 175.572 29.3336 175.629 29.3073C175.691 29.2785 175.791 29.2537 175.954 29.2537V28.4475C175.714 28.4475 175.491 28.4832 175.291 28.5753C175.086 28.6699 174.93 28.8131 174.812 28.9898L175.483 29.437ZM175.954 29.2537C176.21 29.2537 176.389 29.3323 176.556 29.4985L177.126 28.9284C176.808 28.6107 176.423 28.4475 175.954 28.4475V29.2537ZM176.513 29.4477C176.661 29.6554 176.76 29.9346 176.76 30.3018H177.566C177.566 29.7822 177.423 29.3358 177.169 28.9791L176.513 29.4477ZM176.76 30.3018V47.394H177.566V30.3018H176.76ZM176.76 47.394C176.76 47.8275 176.649 48.0634 176.556 48.157L177.126 48.7271C177.435 48.4176 177.566 47.9279 177.566 47.394H176.76ZM176.556 48.157C176.412 48.3002 176.248 48.3614 175.954 48.3614V49.1677C176.386 49.1677 176.785 49.0677 177.126 48.7271L176.556 48.157ZM175.954 48.3614C175.773 48.3614 175.669 48.3425 175.605 48.3178C175.553 48.2979 175.518 48.2713 175.483 48.2185L174.812 48.6657C174.938 48.8547 175.105 48.9894 175.315 49.0703C175.513 49.1463 175.731 49.1677 175.954 49.1677V48.3614ZM175.433 48.157C175.355 48.079 175.269 47.8665 175.269 47.394H174.462C174.462 47.8889 174.537 48.402 174.863 48.7271L175.433 48.157ZM175.269 47.394V30.3018H174.462V47.394H175.269Z" fill="white" mask="url(#path-2-outside-1_301_74)"/>
</svg>
